<svg width="328" height="48" viewBox="0 0 328 48" fill="none" xmlns="http://www.w3.org/2000/svg">
<rect width="328" height="48" rx="10" fill="#333333"/>
<path d="M118.443 28H116.729L120.538 17.3945H122.398L126.222 28H124.508L123.541 25.2021H119.41L118.443 28ZM119.872 23.8545H123.072L121.505 19.3281H121.432L119.872 23.8545ZM127.438 30.9883V20.0459H128.961V21.335H129.093C129.371 20.8369 129.906 19.9434 131.378 19.9434C133.304 19.9434 134.718 21.4521 134.718 24.0449C134.718 26.6084 133.319 28.1538 131.393 28.1611C129.95 28.1538 129.378 27.2749 129.093 26.7549H129.005V30.9883H127.438ZM128.976 24.0156C128.976 25.6855 129.708 26.8208 131.041 26.8281C132.418 26.8208 133.136 25.6123 133.136 24.0156C133.136 22.4482 132.44 21.269 131.041 21.2764C129.693 21.269 128.976 22.3604 128.976 24.0156ZM136.271 30.9883V20.0459H137.794V21.335H137.926C138.204 20.8369 138.739 19.9434 140.211 19.9434C142.137 19.9434 143.551 21.4521 143.551 24.0449C143.551 26.6084 142.152 28.1538 140.226 28.1611C138.783 28.1538 138.211 27.2749 137.926 26.7549H137.838V30.9883H136.271ZM137.809 24.0156C137.809 25.6855 138.541 26.8208 139.874 26.8281C141.251 26.8208 141.969 25.6123 141.969 24.0156C141.969 22.4482 141.273 21.269 139.874 21.2764C138.526 21.269 137.809 22.3604 137.809 24.0156ZM146.671 17.3945V28H145.104V17.3945H146.671ZM152.003 28.1611C149.659 28.1611 148.216 26.5425 148.224 24.0742C148.216 21.6279 149.681 19.9434 151.9 19.9434C153.709 19.9434 155.431 21.064 155.431 23.9424V24.499H149.776C149.82 26.0151 150.714 26.8721 152.018 26.8721C152.904 26.8721 153.482 26.4912 153.746 26.0078H155.328C154.977 27.2969 153.753 28.1611 152.003 28.1611ZM149.784 23.3271H153.893C153.893 22.1187 153.109 21.2251 151.915 21.2324C150.663 21.2251 149.85 22.2065 149.784 23.3271ZM168.526 26.5059V27.6777H156.515V26.5059H161.803V24.2061H157.979V20.0312H165.685V18.1855H157.95V17.043H167.062V21.1445H159.356V23.0635H167.369V24.2061H163.18V26.5059H168.526ZM185.152 26.5059V27.6777H173.141V26.5059H178.429V24.2061H174.605V20.0312H182.311V18.1855H174.576V17.043H183.688V21.1445H175.982V23.0635H183.995V24.2061H179.806V26.5059H185.152ZM196.505 17.4531V18.8594C196.505 20.5586 196.505 22.397 196.021 25.2021L194.601 25.0703C195.128 22.4409 195.128 20.5146 195.128 18.8594V18.5957H187.394V17.4531H196.505ZM186.104 27.3848V26.2275H198.072V27.3848H186.104ZM209.952 16.1348V25.6709H208.561V16.1348H209.952ZM199.332 20.2656C199.339 18.3687 200.848 17.021 202.833 17.0137C204.811 17.021 206.319 18.3687 206.319 20.2656C206.319 22.1919 204.811 23.5322 202.833 23.5322C200.848 23.5322 199.339 22.1919 199.332 20.2656ZM200.694 20.2656C200.687 21.5034 201.61 22.3164 202.833 22.3164C204.034 22.3164 204.957 21.5034 204.957 20.2656C204.957 19.0571 204.034 18.2295 202.833 18.2295C201.61 18.2295 200.687 19.0571 200.694 20.2656ZM201.368 28.9668V24.7041H202.774V27.8389H210.348V28.9668H201.368Z" fill="white"/>
<path d="M33.2672 16.1706C34.2656 16.1706 35.5172 15.4749 36.2625 14.5472C36.9375 13.7065 37.4297 12.5325 37.4297 11.3584C37.4297 11.1989 37.4156 11.0395 37.3875 10.9091C36.2766 10.9525 34.9406 11.6773 34.1391 12.6484C33.5063 13.3876 32.9297 14.5472 32.9297 15.7358C32.9297 15.9097 32.9578 16.0836 32.9719 16.1416C33.0422 16.1561 33.1547 16.1706 33.2672 16.1706ZM29.7516 33.7091C31.1156 33.7091 31.7203 32.7669 33.4219 32.7669C35.1516 32.7669 35.5312 33.6801 37.05 33.6801C38.5406 33.6801 39.5391 32.2596 40.4813 30.8681C41.5359 29.2737 41.9719 27.7083 42 27.6358C41.9016 27.6068 39.0469 26.4038 39.0469 23.0265C39.0469 20.0986 41.2969 18.7796 41.4234 18.6782C39.9328 16.475 37.6688 16.417 37.05 16.417C35.3766 16.417 34.0125 17.4606 33.1547 17.4606C32.2266 17.4606 31.0031 16.475 29.5547 16.475C26.7984 16.475 24 18.8231 24 23.2585C24 26.0124 25.0406 28.9258 26.3203 30.8101C27.4172 32.4045 28.3734 33.7091 29.7516 33.7091Z" fill="white"/>
</svg>
