<svg width="219" height="89" viewBox="0 0 219 89" fill="none" xmlns="http://www.w3.org/2000/svg">
<g id="Group 6368">
<path id="Union" d="M90.5498 2.6045C87.9977 0.956063 84.9602 0 81.7004 0C74.5356 0 68.4456 4.61887 66.2222 11.0526C63.6608 9.38603 60.6064 8.41818 57.3267 8.41818C49.3469 8.41818 42.6997 14.148 41.244 21.7334C41.1455 21.7315 41.0469 21.7304 40.9478 21.7304C37.029 21.7304 33.4324 23.1122 30.6136 25.4163C27.7945 23.1122 24.1973 21.7304 20.2788 21.7304C11.233 21.7304 3.89966 29.093 3.89966 38.1751C3.89966 40.7686 4.49783 43.2215 5.56283 45.4031C2.15213 48.4169 0 52.8321 0 57.7519C0 66.8339 7.3333 74.1966 16.3789 74.1966C20.4377 74.1966 24.1518 72.7142 27.0132 70.2597C28.631 77.2098 34.8425 82.3864 42.258 82.3864C47.2109 82.3864 51.6266 80.0771 54.4954 76.4724C56.9751 80.7023 61.3353 83.5091 66.3003 83.5091C72.8418 83.5091 78.3337 78.637 79.8579 72.0567C80.7214 72.2049 81.6093 72.282 82.5148 72.282C84.1818 72.282 85.7877 72.0205 87.2944 71.5359C88.4705 76.4716 92.8935 80.141 98.1703 80.141C101.599 80.141 104.668 78.5915 106.719 76.1517C108.45 77.2561 110.505 77.8956 112.707 77.8956C114.972 77.8956 117.079 77.2196 118.84 76.058C120.601 82.9431 126.45 88 133.395 88C139.706 88 145.112 83.8243 147.367 77.8956H147.373C153.885 77.8956 159.632 74.415 163.058 69.1087C165.718 76.8559 172.712 82.3864 180.92 82.3864C190.121 82.3864 197.795 75.4382 199.552 66.2087C201.59 67.7807 204.142 68.7151 206.911 68.7151C213.588 68.7151 219 63.2811 219 56.5774C219 52.5349 217.032 48.9538 214.005 46.7481C214.022 46.6281 214.037 46.5075 214.05 46.3863C214.071 46.2049 214.087 46.0223 214.099 45.8384C214.111 45.6534 214.119 45.467 214.123 45.2795L214.125 45.1449L214.125 45.0271C214.125 38.3234 208.713 32.8893 202.036 32.8893C199.359 32.8893 196.885 33.7626 194.882 35.2411C192.765 33.4093 190.009 32.3019 186.994 32.3019C185.488 32.3019 184.046 32.5785 182.715 33.0842C180.086 27.529 174.446 23.6883 167.913 23.6883C164.739 23.6883 161.776 24.5945 159.266 26.1637C159.21 26.1396 159.153 26.116 159.096 26.0925C159.165 25.7485 159.219 25.3993 159.259 25.0454C159.308 24.6 159.333 24.1472 159.333 23.6883C159.333 16.9846 153.921 11.5506 147.244 11.5506C141.856 11.5506 137.291 15.0895 135.729 19.9789C135.622 19.9751 135.514 19.9723 135.406 19.9707C135.322 19.9693 135.239 19.9688 135.155 19.9688C135.032 19.9688 134.909 19.9701 134.787 19.9729C134.701 19.9748 134.616 19.9773 134.532 19.9803C134.454 19.9833 134.377 19.9869 134.299 19.991L134.229 19.9948L134.091 20.003C134.011 20.0082 133.931 20.014 133.851 20.0203C133.078 20.0812 132.32 20.1963 131.581 20.361C129.632 13.4677 123.315 8.41818 115.824 8.41818C113.659 8.41818 111.594 8.83947 109.702 9.60503C106.821 4.89955 101.645 1.76192 95.7397 1.76192C93.9255 1.76192 92.1804 2.05795 90.5498 2.6045Z" fill="#87D2E2"/>
<path id="Vector 1120" d="M7 35C7 34.45 8.75 24.55 21 24C15.75 26.2 11.0833 27.3 7 35Z" fill="#EBF5FF"/>
<path id="Vector 1121" d="M44 22C44 21.4 46 10.6 60 10C54 12.4 48.6667 13.6 44 22Z" fill="#EBF5FF"/>
<path id="Vector 1125" d="M113.581 12.276C113.997 12.0511 122.193 9.17125 127.644 17.1275C123.824 14.521 121.075 11.8542 113.581 12.276Z" fill="#EBF5FF"/>
<path id="Vector 1130" d="M181.437 35.0051C181.853 34.7801 190.049 31.9002 195.5 39.8565C191.68 37.25 188.931 34.5832 181.437 35.0051Z" fill="#EBF5FF"/>
<path id="Vector 1134" d="M103.41 77.3599C102.995 77.5849 94.7985 80.4647 89.3469 72.5085C93.1668 75.115 95.9161 77.7818 103.41 77.3599Z" fill="#EBF5FF"/>
<path id="Vector 1128" d="M141.45 14.549C141.866 14.3241 150.062 11.4442 155.513 19.4004C151.694 16.7939 148.944 14.1271 141.45 14.549Z" fill="#EBF5FF"/>
<path id="Vector 1122" d="M31.1844 28.9159C31.3257 28.5409 35.011 22.1686 43.1499 24.4435C39.1573 24.808 35.828 24.5486 31.1844 28.9159Z" fill="#EBF5FF"/>
<path id="Vector 1126" d="M100.167 5.30238C94.3333 4.07985 91.4167 6.93235 91 7.33986C92.25 6.93227 95.1667 5.70989 99.75 6.52491C103.417 7.17692 105.444 11.0491 106 12C105.861 10.6416 104.833 6.2804 100.167 5.30238Z" fill="#EBF5FF"/>
<path id="Vector 1129" d="M171.778 26.3456C165.556 24.9484 162.444 28.2084 162 28.6741C163.333 28.2083 166.444 26.8113 171.333 27.7428C175.244 28.4879 177.407 32.9133 178 34C177.852 32.4476 176.756 27.4633 171.778 26.3456Z" fill="#EBF5FF"/>
<path id="Vector 1127" d="M77.8333 2.34558C83.6667 0.948405 86.5833 4.2084 87 4.67412C85.75 4.20831 82.8333 2.8113 78.25 3.74275C74.5833 4.48791 72.5556 8.91331 72 10C72.1389 8.44756 73.1667 3.46332 77.8333 2.34558Z" fill="#EBF5FF"/>
<path id="Vector 1131" d="M4.94843 67.3363C1.93206 62.1462 4.47794 58.5324 4.84165 58.0161C4.70436 59.3252 4.0664 62.4596 6.26606 66.5803C8.02579 69.8769 13.1091 70.6671 14.373 70.9159C12.7453 71.1834 7.36153 71.4884 4.94843 67.3363Z" fill="#EBF5FF"/>
<path id="Vector 1132" d="M69.1667 80.6976C63.3333 81.9201 60.4167 79.0677 60 78.6601C61.25 79.0677 64.1667 80.2901 68.75 79.4751C72.4167 78.8231 74.4444 74.9509 75 74C74.8611 75.3584 73.8333 79.7196 69.1667 80.6976Z" fill="#EBF5FF"/>
<path id="Vector 1133" d="M130.628 85.2831C124.4 83.9095 123.901 78.9753 123.829 78.2704C124.658 79.3857 126.388 82.3211 131.172 83.5788C134.999 84.5849 139.766 80.8351 140.989 79.9427C139.837 81.5401 135.61 86.382 130.628 85.2831Z" fill="#EBF5FF"/>
</g>
</svg>
