<svg width="32" height="32" viewBox="0 0 32 32" fill="none" xmlns="http://www.w3.org/2000/svg">
<path d="M6.75217 28.6668C6.1791 28.6668 5.68826 28.4625 5.27964 28.0539C4.87101 27.6452 4.6667 27.1544 4.6667 26.5813V7.76085C4.6667 7.18779 4.87101 6.69694 5.27964 6.28832C5.68826 5.87972 6.1791 5.67542 6.75217 5.67542H9.0086V4.07879C9.0086 3.82548 9.09346 3.6123 9.26317 3.43925C9.43286 3.26621 9.64461 3.17969 9.89844 3.17969C10.1586 3.17969 10.3759 3.26621 10.5503 3.43925C10.7248 3.6123 10.812 3.82548 10.812 4.07879V5.67542H21.2393V4.05555C21.2393 3.80349 21.3226 3.59449 21.4892 3.42855C21.6557 3.26264 21.8625 3.17969 22.1095 3.17969C22.3628 3.17969 22.5745 3.26329 22.7447 3.43049C22.9148 3.59769 22.9999 3.80524 22.9999 4.05316V5.67542H25.2478C25.8209 5.67542 26.3117 5.87972 26.7204 6.28832C27.129 6.69694 27.3333 7.18779 27.3333 7.76085V26.5813C27.3333 27.1544 27.129 27.6452 26.7204 28.0539C26.3117 28.4625 25.8209 28.6668 25.2478 28.6668H6.75217ZM6.75217 26.9916H25.2478C25.3504 26.9916 25.4444 26.9489 25.5299 26.8634C25.6154 26.7779 25.6581 26.6839 25.6581 26.5813V13.5814H6.34187V26.5813C6.34187 26.6839 6.38461 26.7779 6.4701 26.8634C6.55557 26.9489 6.64959 26.9916 6.75217 26.9916ZM6.34187 11.9062H25.6581V7.76085C25.6581 7.6583 25.6154 7.56428 25.5299 7.47879C25.4444 7.39332 25.3504 7.35059 25.2478 7.35059H6.75217C6.64959 7.35059 6.55557 7.39332 6.4701 7.47879C6.38461 7.56428 6.34187 7.6583 6.34187 7.76085V11.9062ZM16 18.7694C15.6735 18.7694 15.3953 18.6544 15.1654 18.4245C14.9355 18.1946 14.8205 17.9164 14.8205 17.5899C14.8205 17.2634 14.9355 16.9852 15.1654 16.7553C15.3953 16.5254 15.6735 16.4105 16 16.4105C16.3265 16.4105 16.6047 16.5254 16.8346 16.7553C17.0645 16.9852 17.1795 17.2634 17.1795 17.5899C17.1795 17.9164 17.0645 18.1946 16.8346 18.4245C16.6047 18.6544 16.3265 18.7694 16 18.7694ZM10.6667 18.7694C10.3402 18.7694 10.062 18.6544 9.83207 18.4245C9.60216 18.1946 9.4872 17.9164 9.4872 17.5899C9.4872 17.2634 9.60216 16.9852 9.83207 16.7553C10.062 16.5254 10.3402 16.4105 10.6667 16.4105C10.9932 16.4105 11.2714 16.5254 11.5013 16.7553C11.7312 16.9852 11.8461 17.2634 11.8461 17.5899C11.8461 17.9164 11.7312 18.1946 11.5013 18.4245C11.2714 18.6544 10.9932 18.7694 10.6667 18.7694ZM21.3333 18.7694C21.0068 18.7694 20.7286 18.6544 20.4987 18.4245C20.2688 18.1946 20.1539 17.9164 20.1539 17.5899C20.1539 17.2634 20.2688 16.9852 20.4987 16.7553C20.7286 16.5254 21.0068 16.4105 21.3333 16.4105C21.6598 16.4105 21.938 16.5254 22.1679 16.7553C22.3978 16.9852 22.5128 17.2634 22.5128 17.5899C22.5128 17.9164 22.3978 18.1946 22.1679 18.4245C21.938 18.6544 21.6598 18.7694 21.3333 18.7694ZM16 24.0002C15.6735 24.0002 15.3953 23.8852 15.1654 23.6553C14.9355 23.4254 14.8205 23.1472 14.8205 22.8207C14.8205 22.4942 14.9355 22.216 15.1654 21.9861C15.3953 21.7562 15.6735 21.6412 16 21.6412C16.3265 21.6412 16.6047 21.7562 16.8346 21.9861C17.0645 22.216 17.1795 22.4942 17.1795 22.8207C17.1795 23.1472 17.0645 23.4254 16.8346 23.6553C16.6047 23.8852 16.3265 24.0002 16 24.0002ZM10.6667 24.0002C10.3402 24.0002 10.062 23.8852 9.83207 23.6553C9.60216 23.4254 9.4872 23.1472 9.4872 22.8207C9.4872 22.4942 9.60216 22.216 9.83207 21.9861C10.062 21.7562 10.3402 21.6412 10.6667 21.6412C10.9932 21.6412 11.2714 21.7562 11.5013 21.9861C11.7312 22.216 11.8461 22.4942 11.8461 22.8207C11.8461 23.1472 11.7312 23.4254 11.5013 23.6553C11.2714 23.8852 10.9932 24.0002 10.6667 24.0002ZM21.3333 24.0002C21.0068 24.0002 20.7286 23.8852 20.4987 23.6553C20.2688 23.4254 20.1539 23.1472 20.1539 22.8207C20.1539 22.4942 20.2688 22.216 20.4987 21.9861C20.7286 21.7562 21.0068 21.6412 21.3333 21.6412C21.6598 21.6412 21.938 21.7562 22.1679 21.9861C22.3978 22.216 22.5128 22.4942 22.5128 22.8207C22.5128 23.1472 22.3978 23.4254 22.1679 23.6553C21.938 23.8852 21.6598 24.0002 21.3333 24.0002Z" fill="black"/>
</svg>
