<svg width="24" height="24" viewBox="0 0 24 24" fill="none" xmlns="http://www.w3.org/2000/svg">
<path d="M6.92693 18.1269C6.63592 18.4179 6.16411 18.4179 5.8731 18.1269C5.5821 17.8359 5.5821 17.3641 5.8731 17.0731L10.9462 12L5.8731 6.9269C5.5821 6.63589 5.5821 6.16408 5.8731 5.87307C6.16411 5.58207 6.63592 5.58207 6.92693 5.87307L12 10.9462L17.0731 5.87307C17.3641 5.58207 17.8359 5.58207 18.1269 5.87307C18.4179 6.16408 18.4179 6.63589 18.1269 6.9269L13.0538 12L18.1269 17.0731C18.4179 17.3641 18.4179 17.8359 18.1269 18.1269C17.8359 18.4179 17.3641 18.4179 17.0731 18.1269L12 13.0538L6.92693 18.1269Z" fill="black"/>
</svg>
