<svg width="70" height="98" viewBox="0 0 70 98" fill="none" xmlns="http://www.w3.org/2000/svg">
<path d="M10 10C10 4.47715 14.4772 0 20 0H50C55.5228 0 60 4.47715 60 10V10H10V10Z" fill="#00B6F1"/>
<circle cx="3.75" cy="43.75" r="3.75" fill="#00B6F1"/>
<circle cx="16.2505" cy="18.75" r="3.75" fill="#00B6F1"/>
<circle cx="13.75" cy="31.25" r="3.75" fill="#00B6F1"/>
<circle cx="28.7495" cy="18.75" r="3.75" fill="#00B6F1"/>
<circle cx="26.2495" cy="31.25" r="3.75" fill="#00B6F1"/>
<circle cx="41.25" cy="18.75" r="3.75" fill="#00B6F1"/>
<circle cx="43.75" cy="31.25" r="3.75" fill="#00B6F1"/>
<circle cx="53.75" cy="18.75" r="3.75" fill="#00B6F1"/>
<circle cx="56.2505" cy="31.25" r="3.75" fill="#00B6F1"/>
<circle cx="66.25" cy="43.75" r="3.75" fill="#00B6F1"/>
<path d="M69.3367 71.1715C69.3367 71.2199 69.3367 71.2684 69.3367 71.2684V86.057C69.3367 87.1722 68.4639 88.2389 67.3487 88.2389H61.0939V92.7483C61.0939 96.0939 58.3786 97.4515 55.033 97.4515C51.6874 97.4515 48.9721 96.0939 48.9721 92.7483V88.2874H20.3646V92.7967C20.3646 96.1424 17.6493 97.5 14.3037 97.5C10.9581 97.5 8.24282 96.1424 8.24282 92.7967V88.2874H2.08495C0.969744 88.2874 0 87.2207 0 86.1055V71.3169C0 71.2684 0.0484872 71.2199 0.0484872 71.2199C0.0484872 71.123 0 71.0745 0 70.9775C0 66.0803 3.87898 62.1043 8.7277 61.9104C8.7277 61.9104 9.35803 58.7146 10.7642 51.9065C12.1703 45.0985 14.9825 42.5 20.1222 42.5H49.4085C54.5481 42.5 57.7164 46.6069 58.718 51.9065C59.7196 57.2061 60.706 61.9104 60.706 61.9104C65.5062 62.1528 69.3367 66.1288 69.3367 70.9775C69.3852 71.026 69.3367 71.0745 69.3367 71.1715ZM55.6148 54.2339C53.873 47.5302 51.9783 46.3305 47.5175 46.3305H22.0132C17.5524 46.3305 15.5171 47.6487 13.9158 54.2339C12.3146 60.8192 12.1703 61.6195 12.1703 61.6195C12.1703 66.4682 57.3604 66.4682 57.3604 61.6195C57.3604 61.6195 57.3567 60.9376 55.6148 54.2339Z" fill="#363636"/>
<path d="M10.1344 78.6876C12.7319 78.6876 14.8377 76.5819 14.8377 73.9844C14.8377 71.3868 12.7319 69.2811 10.1344 69.2811C7.53687 69.2811 5.43115 71.3868 5.43115 73.9844C5.43115 76.5819 7.53687 78.6876 10.1344 78.6876Z" fill="white"/>
<path d="M64.0037 73.9837C64.0037 76.602 61.8703 78.687 59.3004 78.687C56.6821 78.687 54.5972 76.5535 54.5972 73.9837C54.5972 71.3654 56.6821 69.2804 59.3004 69.2804C61.8703 69.232 64.0037 71.3654 64.0037 73.9837Z" fill="white"/>
</svg>
