<svg width="328" height="48" viewBox="0 0 328 48" fill="none" xmlns="http://www.w3.org/2000/svg">
<rect x="0.5" y="0.5" width="327" height="47" rx="9.5" stroke="#858B8E"/>
<path d="M120.116 20.749C119.72 19.4966 118.761 18.7202 117.362 18.7275C115.575 18.7202 114.205 20.1265 114.198 22.6973C114.205 25.2607 115.56 26.6743 117.435 26.667C119.127 26.6743 120.247 25.5977 120.277 23.8984H117.669V22.5654H121.844V23.7666C121.844 26.4546 119.998 28.1465 117.42 28.1465C114.549 28.1465 112.601 26.0591 112.601 22.6973C112.601 19.3135 114.608 17.248 117.347 17.248C119.639 17.248 121.412 18.6763 121.771 20.749H120.116ZM126.942 28.1611C124.686 28.1611 123.214 26.5205 123.221 24.0596C123.214 21.584 124.686 19.9434 126.942 19.9434C129.183 19.9434 130.648 21.584 130.648 24.0596C130.648 26.5205 129.183 28.1611 126.942 28.1611ZM124.788 24.0596C124.788 25.5757 125.484 26.8574 126.942 26.8574C128.377 26.8574 129.066 25.5757 129.066 24.0596C129.066 22.5361 128.377 21.2397 126.942 21.2324C125.484 21.2397 124.788 22.5361 124.788 24.0596ZM135.555 28.1611C133.299 28.1611 131.827 26.5205 131.834 24.0596C131.827 21.584 133.299 19.9434 135.555 19.9434C137.796 19.9434 139.261 21.584 139.261 24.0596C139.261 26.5205 137.796 28.1611 135.555 28.1611ZM133.402 24.0596C133.402 25.5757 134.097 26.8574 135.555 26.8574C136.991 26.8574 137.679 25.5757 137.679 24.0596C137.679 22.5361 136.991 21.2397 135.555 21.2324C134.097 21.2397 133.402 22.5361 133.402 24.0596ZM144.139 31.1494C142.132 31.1494 140.806 30.2632 140.667 28.7764H142.264C142.418 29.5308 143.121 29.897 144.154 29.8896C145.399 29.897 146.182 29.355 146.19 28.1172V26.5498H146.087C145.809 27.0625 145.238 27.8828 143.773 27.8828C141.898 27.8828 140.448 26.4839 140.448 23.9424C140.448 21.4009 141.876 19.9434 143.787 19.9434C145.267 19.9434 145.809 20.8369 146.102 21.335H146.204V20.0459H147.728V28.1758C147.735 30.2192 146.19 31.1494 144.139 31.1494ZM142.044 23.9717C142.037 25.5317 142.755 26.5864 144.124 26.5938C145.457 26.5864 146.204 25.6123 146.204 23.9717C146.204 22.3604 145.472 21.269 144.124 21.2764C142.74 21.269 142.037 22.4482 142.044 23.9717ZM151.2 17.3945V28H149.632V17.3945H151.2ZM156.532 28.1611C154.188 28.1611 152.745 26.5425 152.752 24.0742C152.745 21.6279 154.21 19.9434 156.429 19.9434C158.238 19.9434 159.959 21.064 159.959 23.9424V24.499H154.305C154.349 26.0151 155.243 26.8721 156.546 26.8721C157.432 26.8721 158.011 26.4912 158.275 26.0078H159.857C159.505 27.2969 158.282 28.1611 156.532 28.1611ZM154.312 23.3271H158.421C158.421 22.1187 157.638 21.2251 156.444 21.2324C155.191 21.2251 154.378 22.2065 154.312 23.3271ZM173.055 26.5059V27.6777H161.043V26.5059H166.331V24.2061H162.508V20.0312H170.213V18.1855H162.479V17.043H171.59V21.1445H163.885V23.0635H171.898V24.2061H167.708V26.5059H173.055ZM189.681 26.5059V27.6777H177.669V26.5059H182.957V24.2061H179.134V20.0312H186.839V18.1855H179.105V17.043H188.216V21.1445H180.511V23.0635H188.524V24.2061H184.334V26.5059H189.681ZM201.034 17.4531V18.8594C201.034 20.5586 201.034 22.397 200.55 25.2021L199.129 25.0703C199.657 22.4409 199.657 20.5146 199.657 18.8594V18.5957H191.922V17.4531H201.034ZM190.633 27.3848V26.2275H202.601V27.3848H190.633ZM214.481 16.1348V25.6709H213.089V16.1348H214.481ZM203.861 20.2656C203.868 18.3687 205.377 17.021 207.362 17.0137C209.339 17.021 210.848 18.3687 210.848 20.2656C210.848 22.1919 209.339 23.5322 207.362 23.5322C205.377 23.5322 203.868 22.1919 203.861 20.2656ZM205.223 20.2656C205.216 21.5034 206.139 22.3164 207.362 22.3164C208.563 22.3164 209.486 21.5034 209.486 20.2656C209.486 19.0571 208.563 18.2295 207.362 18.2295C206.139 18.2295 205.216 19.0571 205.223 20.2656ZM205.897 28.9668V24.7041H207.303V27.8389H214.876V28.9668H205.897Z" fill="#333333"/>
<path d="M43.6225 21.8783H42.7498V21.8334H32.9998V26.1667H39.1223C38.2291 28.6892 35.829 30.5 32.9998 30.5C29.4102 30.5 26.4998 27.5896 26.4998 24C26.4998 20.4104 29.4102 17.5 32.9998 17.5C34.6568 17.5 36.1643 18.1251 37.312 19.1461L40.3763 16.0819C38.4414 14.2787 35.8533 13.1667 32.9998 13.1667C27.0171 13.1667 22.1665 18.0173 22.1665 24C22.1665 29.9827 27.0171 34.8334 32.9998 34.8334C38.9825 34.8334 43.8332 29.9827 43.8332 24C43.8332 23.2736 43.7584 22.5646 43.6225 21.8783Z" fill="#FFC107"/>
<path d="M23.416 18.9576L26.9753 21.5679C27.9384 19.1835 30.2708 17.5 33.0003 17.5C34.6572 17.5 36.1647 18.1251 37.3125 19.1461L40.3767 16.0819C38.4418 14.2787 35.8538 13.1667 33.0003 13.1667C28.8392 13.1667 25.2306 15.5159 23.416 18.9576Z" fill="#FF3D00"/>
<path d="M32.9998 34.8333C35.7981 34.8333 38.3407 33.7625 40.2631 32.021L36.9101 29.1838C35.7859 30.0387 34.4122 30.5011 32.9998 30.5C30.1821 30.5 27.7896 28.7033 26.8882 26.1959L23.3555 28.9178C25.1484 32.4262 28.7895 34.8333 32.9998 34.8333Z" fill="#4CAF50"/>
<path d="M43.6226 21.8783H42.75V21.8333H33V26.1666H39.1225C38.6952 27.3672 37.9256 28.4163 36.9087 29.1843L36.9103 29.1832L40.2632 32.0204C40.026 32.236 43.8333 29.4166 43.8333 24C43.8333 23.2736 43.7586 22.5646 43.6226 21.8783Z" fill="#1976D2"/>
</svg>
