<svg width="32" height="32" viewBox="0 0 32 32" fill="none" xmlns="http://www.w3.org/2000/svg">
<path d="M7.67519 25.658H12.624V18.6152C12.624 18.3198 12.7239 18.0722 12.9237 17.8723C13.1236 17.6725 13.3712 17.5725 13.6667 17.5725H18.3333C18.6287 17.5725 18.8764 17.6725 19.0762 17.8723C19.2761 18.0722 19.376 18.3198 19.376 18.6152V25.658H24.3248V13.3731C24.3248 13.3047 24.3098 13.2428 24.2799 13.1872C24.25 13.1317 24.2094 13.0825 24.1581 13.0397L16.2436 7.08964C16.1752 7.03551 16.094 7.00844 16 7.00844C15.906 7.00844 15.8248 7.03551 15.7564 7.08964L7.84189 13.0397C7.7906 13.0825 7.75 13.1317 7.72009 13.1872C7.69016 13.2428 7.67519 13.3047 7.67519 13.3731V25.658ZM6.00002 25.658V13.3759C6.00002 13.0419 6.0725 12.7285 6.21746 12.4358C6.36239 12.1431 6.56911 11.9009 6.83762 11.7093L14.7521 5.74351C15.1116 5.46431 15.5257 5.32471 15.9944 5.32471C16.4631 5.32471 16.8809 5.46431 17.2479 5.74351L25.1624 11.7093C25.4309 11.9009 25.6376 12.1431 25.7825 12.4358C25.9275 12.7285 26 13.0419 26 13.3759V25.658C26 26.114 25.8347 26.5071 25.5043 26.8375C25.1739 27.168 24.7807 27.3332 24.3248 27.3332H18.7436C18.4481 27.3332 18.2005 27.2332 18.0007 27.0334C17.8008 26.8335 17.7009 26.5859 17.7009 26.2904V19.2477H14.2991V26.2904C14.2991 26.5859 14.1992 26.8335 13.9993 27.0334C13.7995 27.2332 13.5518 27.3332 13.2564 27.3332H7.67519C7.21924 27.3332 6.82606 27.168 6.49566 26.8375C6.16524 26.5071 6.00002 26.114 6.00002 25.658Z" fill="black"/>
</svg>
