<svg width="328" height="48" viewBox="0 0 328 48" fill="none" xmlns="http://www.w3.org/2000/svg">
<rect width="328" height="48" rx="10" fill="#FFE812"/>
<path d="M124.605 17.4531C124.59 21.3276 123.404 24.7627 118.614 27.1211L117.852 26.0811C120.225 24.9165 121.639 23.5029 122.415 21.8403L118.13 22.2432L117.925 21.042L122.847 20.7124C123.045 20.0386 123.155 19.3281 123.206 18.5811H118.614V17.4531H124.605ZM126.612 29.2305V16.1201H128.003V21.3643H130.04V22.5068H128.003V29.2305H126.612ZM137.569 17.4531C137.554 21.3276 136.368 24.7627 131.578 27.1211L130.816 26.0811C133.189 24.9165 134.603 23.5029 135.379 21.8403L131.094 22.2432L130.889 21.042L135.811 20.7124C136.009 20.0386 136.119 19.3281 136.17 18.5811H131.578V17.4531H137.569ZM139.576 29.2305V16.1201H140.967V21.3643H143.003V22.5068H140.967V29.2305H139.576ZM149.683 16.9111C152.488 16.9185 154.532 18.3027 154.532 20.3975C154.532 22.3604 152.818 23.6714 150.372 23.8691V26.4473H155.718V27.6045H143.707V26.4473H148.995V23.8691C146.563 23.6714 144.842 22.3604 144.849 20.3975C144.842 18.3027 146.893 16.9185 149.683 16.9111ZM146.197 20.3975C146.197 21.8696 147.662 22.7852 149.683 22.7998C151.719 22.7852 153.177 21.8696 153.184 20.3975C153.177 18.9766 151.719 18.0391 149.683 18.0537C147.662 18.0391 146.197 18.9766 146.197 20.3975ZM168.682 26.5059V27.6777H156.67V26.5059H161.958V24.2061H158.135V20.0312H165.84V18.1855H158.106V17.043H167.217V21.1445H159.512V23.0635H167.525V24.2061H163.335V26.5059H168.682ZM185.308 26.5059V27.6777H173.296V26.5059H178.584V24.2061H174.761V20.0312H182.466V18.1855H174.732V17.043H183.843V21.1445H176.138V23.0635H184.151V24.2061H179.961V26.5059H185.308ZM196.661 17.4531V18.8594C196.661 20.5586 196.661 22.397 196.177 25.2021L194.756 25.0703C195.284 22.4409 195.284 20.5146 195.284 18.8594V18.5957H187.549V17.4531H196.661ZM186.26 27.3848V26.2275H198.228V27.3848H186.26ZM210.108 16.1348V25.6709H208.716V16.1348H210.108ZM199.488 20.2656C199.495 18.3687 201.004 17.021 202.989 17.0137C204.966 17.021 206.475 18.3687 206.475 20.2656C206.475 22.1919 204.966 23.5322 202.989 23.5322C201.004 23.5322 199.495 22.1919 199.488 20.2656ZM200.85 20.2656C200.843 21.5034 201.766 22.3164 202.989 22.3164C204.19 22.3164 205.113 21.5034 205.113 20.2656C205.113 19.0571 204.19 18.2295 202.989 18.2295C201.766 18.2295 200.843 19.0571 200.85 20.2656ZM201.524 28.9668V24.7041H202.93V27.8389H210.503V28.9668H201.524Z" fill="#333333"/>
<path d="M33 15C26.9248 15 22 18.8831 22 23.6731C22 26.7699 24.0589 29.4872 27.156 31.0216C26.9875 31.6027 26.0733 34.7599 26.0369 35.008C26.0369 35.008 26.015 35.1943 26.1357 35.2654C26.2564 35.3365 26.3983 35.2812 26.3983 35.2812C26.7444 35.2329 30.4115 32.657 31.0463 32.2097C31.6803 32.2995 32.3333 32.3462 33 32.3462C39.0752 32.3462 44 28.4632 44 23.6731C44 18.8831 39.0752 15 33 15Z" fill="#31213C"/>
</svg>
