<svg width="176" height="176" viewBox="0 0 176 176" fill="none" xmlns="http://www.w3.org/2000/svg">
<path d="M32.2353 111.883C32.2353 111.321 32.4261 110.909 32.8076 110.648C33.2092 110.387 33.661 110.257 34.163 110.257C34.6651 110.257 35.1068 110.387 35.4884 110.648C35.89 110.909 36.0908 111.321 36.0908 111.883V116.191C36.0908 117.395 36.2213 118.43 36.4824 119.293C36.7434 120.157 37.1952 120.98 37.8378 121.763C38.2997 122.345 38.7615 122.898 39.2234 123.42C39.7053 123.942 40.117 124.394 40.4583 124.775C40.7997 125.137 40.9302 125.558 40.8499 126.04C40.7897 126.522 40.5989 126.904 40.2776 127.185C39.9362 127.486 39.5346 127.647 39.0728 127.667C38.6109 127.667 38.2093 127.496 37.8679 127.155C37.627 126.894 37.3157 126.552 36.9342 126.131C36.5527 125.709 36.1812 125.277 35.8197 124.835C35.5185 124.474 35.2675 124.153 35.0667 123.871C34.8659 123.59 34.7052 123.349 34.5847 123.149C34.4643 122.928 34.3739 122.737 34.3137 122.576C34.2534 122.416 34.2132 122.255 34.1932 122.094H34.163C34.1028 122.436 33.9622 122.817 33.7414 123.239C33.5405 123.661 33.1289 124.243 32.5064 124.986C32.1449 125.428 31.7534 125.88 31.3317 126.341C30.9301 126.803 30.5084 127.265 30.0666 127.727C29.7252 128.068 29.3136 128.229 28.8316 128.209C28.3497 128.169 27.9581 127.998 27.6569 127.697C27.3155 127.355 27.1147 126.954 27.0545 126.492C26.9942 126.01 27.1348 125.578 27.4762 125.197C28.0184 124.614 28.5404 124.042 29.0425 123.48C29.5445 122.918 30.0264 122.345 30.4883 121.763C31.1309 120.98 31.5827 120.157 31.8437 119.293C32.1048 118.43 32.2353 117.395 32.2353 116.191V111.883ZM47.6573 110.166C47.6573 109.644 47.838 109.263 48.1995 109.022C48.5609 108.781 48.9726 108.66 49.4344 108.66C49.8963 108.66 50.3079 108.781 50.6694 109.022C51.0308 109.263 51.2116 109.644 51.2116 110.166V133.48C51.2116 134.002 51.0308 134.384 50.6694 134.625C50.3079 134.866 49.8963 134.986 49.4344 134.986C48.9726 134.986 48.5609 134.866 48.1995 134.625C47.838 134.384 47.6573 134.002 47.6573 133.48V110.166ZM42.1752 110.468C42.1752 109.945 42.356 109.564 42.7174 109.323C43.0789 109.082 43.4905 108.962 43.9524 108.962C44.3942 108.962 44.7958 109.082 45.1572 109.323C45.5187 109.564 45.6994 109.945 45.6994 110.468V132.215C45.6994 132.737 45.5187 133.119 45.1572 133.36C44.7958 133.601 44.3942 133.721 43.9524 133.721C43.4905 133.721 43.0789 133.601 42.7174 133.36C42.356 133.119 42.1752 132.737 42.1752 132.215V119.835H39.9463C39.4844 119.835 39.1431 119.675 38.9222 119.353C38.7013 119.032 38.5908 118.64 38.5908 118.179C38.5908 117.717 38.7013 117.325 38.9222 117.004C39.1431 116.683 39.4844 116.522 39.9463 116.522H42.1752V110.468ZM64.9816 115.648V117.094C64.9816 117.717 65.0117 118.259 65.072 118.721C65.1322 119.183 65.2426 119.614 65.4033 120.016C65.584 120.398 65.8049 120.779 66.0659 121.161C66.3471 121.522 66.6985 121.914 67.1202 122.335C67.7226 122.938 68.2949 123.49 68.8371 123.992C69.3793 124.494 69.8913 124.956 70.3733 125.378C70.7347 125.699 70.8753 126.1 70.795 126.582C70.7347 127.044 70.554 127.426 70.2528 127.727C69.9516 128.028 69.5801 128.219 69.1383 128.299C68.6965 128.38 68.2949 128.259 67.9335 127.938C67.5318 127.596 67.1001 127.205 66.6382 126.763C66.1764 126.301 65.6744 125.799 65.1322 125.257C64.7306 124.875 64.3992 124.544 64.1382 124.263C63.8972 123.982 63.6964 123.751 63.5358 123.57C63.3952 123.369 63.2848 123.199 63.2044 123.058C63.1442 122.898 63.104 122.747 63.084 122.606H63.0538C63.0137 122.787 62.9534 122.958 62.8731 123.118C62.8129 123.279 62.7125 123.47 62.5719 123.691C62.4313 123.892 62.2305 124.133 61.9695 124.414C61.7285 124.675 61.4072 124.996 61.0056 125.378C60.4634 125.9 59.9213 126.412 59.3791 126.914C58.857 127.416 58.3048 127.908 57.7224 128.39C57.3208 128.711 56.8891 128.811 56.4272 128.691C55.9654 128.55 55.5939 128.319 55.3127 127.998C55.0316 127.657 54.881 127.265 54.8609 126.823C54.8408 126.361 55.0216 125.97 55.4031 125.649C56.0457 125.106 56.6481 124.574 57.2104 124.052C57.7927 123.51 58.3851 122.938 58.9875 122.335C59.4092 121.914 59.7506 121.522 60.0116 121.161C60.2927 120.779 60.5136 120.398 60.6743 120.016C60.855 119.614 60.9755 119.183 61.0357 118.721C61.096 118.259 61.1261 117.717 61.1261 117.094V115.648H56.4573C55.9955 115.648 55.6541 115.488 55.4332 115.166C55.2123 114.845 55.1019 114.464 55.1019 114.022C55.1019 113.56 55.2123 113.168 55.4332 112.847C55.6541 112.526 55.9955 112.365 56.4573 112.365H61.1261V110.227C61.1261 109.664 61.3169 109.253 61.6984 108.992C62.1 108.731 62.5518 108.6 63.0538 108.6C63.5559 108.6 63.9976 108.731 64.3792 108.992C64.7808 109.253 64.9816 109.664 64.9816 110.227V112.365H69.4094C69.8712 112.365 70.2126 112.526 70.4335 112.847C70.6544 113.168 70.7648 113.56 70.7648 114.022C70.7648 114.464 70.6544 114.845 70.4335 115.166C70.2126 115.488 69.8712 115.648 69.4094 115.648H64.9816ZM79.2891 117.546C79.771 117.546 80.1224 117.707 80.3433 118.028C80.5642 118.349 80.6747 118.741 80.6747 119.203C80.6747 119.665 80.5642 120.066 80.3433 120.408C80.1224 120.729 79.771 120.889 79.2891 120.889H76.4577V133.36C76.4577 133.922 76.2569 134.334 75.8553 134.595C75.4738 134.856 75.032 134.986 74.53 134.986C74.0279 134.986 73.5761 134.856 73.1745 134.595C72.793 134.334 72.6022 133.922 72.6022 133.36V110.287C72.6022 109.725 72.793 109.313 73.1745 109.052C73.5761 108.791 74.0279 108.66 74.53 108.66C75.032 108.66 75.4738 108.791 75.8553 109.052C76.2569 109.313 76.4577 109.725 76.4577 110.287V117.546H79.2891Z" fill="#363636"/>
<path d="M90.3482 117.185C90.3482 116.16 90.4988 115.207 90.8 114.323C91.1012 113.44 91.543 112.687 92.1254 112.064C92.7278 111.421 93.4708 110.919 94.3543 110.558C95.2579 110.197 96.3021 110.016 97.4869 110.016C98.6717 110.016 99.7058 110.197 100.589 110.558C101.493 110.919 102.236 111.421 102.818 112.064C103.421 112.687 103.873 113.44 104.174 114.323C104.475 115.207 104.626 116.16 104.626 117.185C104.626 118.209 104.475 119.163 104.174 120.046C103.873 120.93 103.421 121.693 102.818 122.335C102.236 122.958 101.493 123.45 100.589 123.811C99.7058 124.173 98.6717 124.353 97.4869 124.353C96.3021 124.353 95.2579 124.173 94.3543 123.811C93.4708 123.45 92.7278 122.958 92.1254 122.335C91.543 121.693 91.1012 120.93 90.8 120.046C90.4988 119.163 90.3482 118.209 90.3482 117.185ZM100.951 117.185C100.951 116.642 100.891 116.13 100.77 115.648C100.65 115.166 100.449 114.755 100.168 114.413C99.8866 114.052 99.5251 113.771 99.0833 113.57C98.6415 113.349 98.1094 113.239 97.4869 113.239C96.8443 113.239 96.3021 113.349 95.8604 113.57C95.4387 113.771 95.0873 114.052 94.8061 114.413C94.525 114.755 94.3242 115.166 94.2037 115.648C94.0832 116.13 94.023 116.642 94.023 117.185C94.023 117.727 94.0832 118.239 94.2037 118.721C94.3242 119.203 94.525 119.624 94.8061 119.986C95.0873 120.327 95.4387 120.608 95.8604 120.829C96.3021 121.03 96.8443 121.13 97.4869 121.13C98.1094 121.13 98.6415 121.03 99.0833 120.829C99.5251 120.608 99.8866 120.327 100.168 119.986C100.449 119.624 100.65 119.203 100.77 118.721C100.891 118.239 100.951 117.727 100.951 117.185ZM109.053 118.811H102.397V115.558H109.053V110.287C109.053 109.725 109.244 109.313 109.626 109.052C110.027 108.791 110.479 108.66 110.981 108.66C111.463 108.66 111.895 108.791 112.276 109.052C112.678 109.313 112.879 109.725 112.879 110.287V127.576C112.879 128.139 112.678 128.55 112.276 128.811C111.895 129.072 111.463 129.203 110.981 129.203C110.479 129.203 110.027 129.072 109.626 128.811C109.244 128.55 109.053 128.139 109.053 127.576V118.811ZM97.1857 136.372C96.2218 136.372 95.5491 136.191 95.1676 135.83C94.8061 135.468 94.6254 134.815 94.6254 133.872V128.179C94.6254 127.617 94.8162 127.205 95.1977 126.944C95.5993 126.683 96.0612 126.552 96.5833 126.552C97.0853 126.552 97.5271 126.683 97.9086 126.944C98.3102 127.205 98.511 127.617 98.511 128.179V132.396C98.511 132.858 98.742 133.089 99.2038 133.089H112.186C112.648 133.089 112.989 133.249 113.21 133.57C113.431 133.892 113.541 134.283 113.541 134.745C113.541 135.187 113.431 135.568 113.21 135.89C112.989 136.211 112.648 136.372 112.186 136.372H97.1857ZM125.926 114.203V116.642C125.926 117.225 125.956 117.767 126.016 118.269C126.076 118.751 126.167 119.203 126.287 119.624C126.428 120.046 126.599 120.458 126.799 120.859C127.02 121.241 127.291 121.622 127.613 122.004C128.095 122.586 128.567 123.118 129.028 123.6C129.49 124.082 129.882 124.494 130.203 124.835C130.544 125.197 130.695 125.618 130.655 126.1C130.615 126.562 130.434 126.954 130.113 127.275C129.771 127.617 129.37 127.797 128.908 127.817C128.466 127.837 128.075 127.677 127.733 127.335C127.512 127.114 127.211 126.813 126.83 126.432C126.468 126.03 126.087 125.598 125.685 125.137C125.062 124.454 124.651 123.912 124.45 123.51C124.249 123.108 124.119 122.757 124.058 122.456H124.028C123.988 122.797 123.858 123.179 123.637 123.6C123.416 124.022 122.994 124.584 122.372 125.287C121.97 125.749 121.568 126.191 121.167 126.612C120.765 127.034 120.333 127.476 119.872 127.938C119.53 128.279 119.119 128.43 118.637 128.39C118.155 128.329 117.763 128.149 117.462 127.847C117.121 127.506 116.92 127.104 116.859 126.643C116.819 126.161 116.98 125.729 117.341 125.347C117.904 124.765 118.436 124.213 118.938 123.691C119.46 123.149 119.962 122.586 120.444 122.004C120.765 121.622 121.026 121.241 121.227 120.859C121.448 120.458 121.619 120.046 121.739 119.624C121.88 119.203 121.98 118.751 122.04 118.269C122.101 117.767 122.131 117.225 122.131 116.642V114.203H118.637C118.175 114.203 117.833 114.042 117.612 113.721C117.392 113.399 117.281 113.018 117.281 112.576C117.281 112.114 117.392 111.723 117.612 111.401C117.833 111.08 118.175 110.919 118.637 110.919H129.119C129.581 110.919 129.922 111.08 130.143 111.401C130.364 111.723 130.474 112.114 130.474 112.576C130.474 113.018 130.364 113.399 130.143 113.721C129.922 114.042 129.581 114.203 129.119 114.203H125.926ZM131.95 120.528H129.781C129.32 120.528 128.978 120.367 128.757 120.046C128.536 119.725 128.426 119.333 128.426 118.871C128.426 118.41 128.536 118.018 128.757 117.697C128.978 117.375 129.32 117.215 129.781 117.215H131.95V110.468C131.95 109.945 132.131 109.564 132.492 109.323C132.854 109.082 133.265 108.962 133.727 108.962C134.169 108.962 134.571 109.082 134.932 109.323C135.294 109.564 135.474 109.945 135.474 110.468V132.215C135.474 132.737 135.294 133.119 134.932 133.36C134.571 133.601 134.169 133.721 133.727 133.721C133.265 133.721 132.854 133.601 132.492 133.36C132.131 133.119 131.95 132.737 131.95 132.215V120.528ZM137.432 110.166C137.432 109.644 137.613 109.263 137.974 109.022C138.336 108.781 138.747 108.66 139.209 108.66C139.671 108.66 140.083 108.781 140.444 109.022C140.806 109.263 140.986 109.644 140.986 110.166V133.48C140.986 134.002 140.806 134.384 140.444 134.625C140.083 134.866 139.671 134.986 139.209 134.986C138.747 134.986 138.336 134.866 137.974 134.625C137.613 134.384 137.432 134.002 137.432 133.48V110.166ZM151.624 110.377C152.708 110.377 153.682 110.518 154.546 110.799C155.409 111.06 156.142 111.442 156.744 111.944C157.347 112.425 157.809 113.008 158.13 113.691C158.451 114.373 158.612 115.126 158.612 115.95V116.281C158.612 116.763 158.552 117.225 158.431 117.667C158.331 118.088 158.14 118.52 157.859 118.962C157.598 119.404 157.226 119.875 156.744 120.377C156.283 120.879 155.7 121.452 154.997 122.094C154.556 122.496 154.204 122.847 153.943 123.149C153.682 123.43 153.481 123.701 153.341 123.962C153.2 124.203 153.11 124.454 153.07 124.715C153.03 124.956 153.009 125.237 153.009 125.558C153.009 126.02 152.829 126.382 152.467 126.643C152.126 126.904 151.724 127.034 151.262 127.034C150.76 127.034 150.329 126.914 149.967 126.673C149.606 126.412 149.425 126.01 149.425 125.468C149.425 124.946 149.455 124.474 149.515 124.052C149.576 123.63 149.686 123.229 149.847 122.847C150.027 122.446 150.278 122.054 150.6 121.673C150.941 121.271 151.383 120.829 151.925 120.347C152.548 119.805 153.04 119.353 153.401 118.992C153.783 118.61 154.074 118.269 154.275 117.968C154.475 117.667 154.606 117.395 154.666 117.154C154.726 116.893 154.756 116.612 154.756 116.311V116.16C154.756 115.839 154.696 115.538 154.576 115.257C154.455 114.976 154.264 114.725 154.003 114.504C153.762 114.283 153.431 114.112 153.009 113.992C152.608 113.851 152.106 113.781 151.503 113.781C150.7 113.781 149.997 113.901 149.395 114.142C148.792 114.383 148.22 114.695 147.678 115.076C147.276 115.357 146.875 115.458 146.473 115.377C146.092 115.277 145.76 115.036 145.479 114.654C145.198 114.293 145.057 113.891 145.057 113.45C145.078 112.988 145.288 112.606 145.69 112.305C146.433 111.723 147.286 111.261 148.25 110.919C149.234 110.558 150.359 110.377 151.624 110.377ZM151.232 129.052C151.875 129.052 152.417 129.273 152.859 129.715C153.301 130.157 153.521 130.699 153.521 131.341C153.521 131.984 153.301 132.526 152.859 132.968C152.417 133.41 151.875 133.631 151.232 133.631C150.59 133.631 150.048 133.41 149.606 132.968C149.164 132.526 148.943 131.984 148.943 131.341C148.943 130.699 149.164 130.157 149.606 129.715C150.048 129.273 150.59 129.052 151.232 129.052Z" fill="#00B6F1"/>
<path d="M73.199 41.2967C73.199 37.831 76.0085 35.0215 79.4742 35.0215H98.2999C101.766 35.0215 104.575 37.831 104.575 41.2967V41.2967H73.199V41.2967Z" fill="#00B6F1"/>
<circle cx="69.277" cy="62.4755" r="2.35321" fill="#00B6F1"/>
<circle cx="77.1213" cy="46.7875" r="2.35321" fill="#00B6F1"/>
<circle cx="75.5522" cy="54.6315" r="2.35321" fill="#00B6F1"/>
<circle cx="84.9648" cy="46.7875" r="2.35321" fill="#00B6F1"/>
<circle cx="83.3959" cy="54.6315" r="2.35321" fill="#00B6F1"/>
<circle cx="92.809" cy="46.7875" r="2.35321" fill="#00B6F1"/>
<circle cx="94.3779" cy="54.6315" r="2.35321" fill="#00B6F1"/>
<circle cx="100.653" cy="46.7875" r="2.35321" fill="#00B6F1"/>
<circle cx="102.222" cy="54.6315" r="2.35321" fill="#00B6F1"/>
<circle cx="108.497" cy="62.4755" r="2.35321" fill="#00B6F1"/>
<path d="M110.434 79.6831C110.434 79.7136 110.434 79.744 110.434 79.744V89.0241C110.434 89.724 109.886 90.3934 109.187 90.3934H105.262V93.223C105.262 95.3225 103.558 96.1744 101.458 96.1744C99.3588 96.1744 97.6549 95.3225 97.6549 93.223V90.4238H79.7031V93.2535C79.7031 95.3529 77.9992 96.2049 75.8997 96.2049C73.8003 96.2049 72.0964 95.3529 72.0964 93.2535V90.4238H68.2322C67.5324 90.4238 66.9238 89.7544 66.9238 89.0546V79.7744C66.9238 79.744 66.9543 79.7136 66.9543 79.7136C66.9543 79.6527 66.9238 79.6223 66.9238 79.5614C66.9238 76.4883 69.358 73.9933 72.4006 73.8716C72.4006 73.8716 72.7962 71.8662 73.6786 67.594C74.5609 63.3218 76.3257 61.6912 79.5509 61.6912H97.9287C101.154 61.6912 103.142 64.2684 103.771 67.594C104.399 70.9196 105.018 73.8716 105.018 73.8716C108.03 74.0237 110.434 76.5187 110.434 79.5614C110.465 79.5918 110.434 79.6223 110.434 79.6831ZM101.823 69.0544C100.73 64.8477 99.5413 64.0949 96.7421 64.0949H80.7376C77.9383 64.0949 76.6611 64.9221 75.6563 69.0544C74.6515 73.1868 74.5609 73.6891 74.5609 73.6891C74.5609 76.7317 102.919 76.7317 102.919 73.6891C102.919 73.6891 102.916 73.2612 101.823 69.0544Z" fill="#363636"/>
<path d="M73.2834 84.3999C74.9134 84.3999 76.2348 83.0785 76.2348 81.4485C76.2348 79.8185 74.9134 78.4971 73.2834 78.4971C71.6534 78.4971 70.332 79.8185 70.332 81.4485C70.332 83.0785 71.6534 84.3999 73.2834 84.3999Z" fill="white"/>
<path d="M107.088 81.448C107.088 83.091 105.749 84.3994 104.136 84.3994C102.493 84.3994 101.185 83.0606 101.185 81.448C101.185 79.805 102.493 78.4966 104.136 78.4966C105.749 78.4662 107.088 79.805 107.088 81.448Z" fill="white"/>
</svg>
