<svg width="20" height="20" viewBox="0 0 20 20" fill="none" xmlns="http://www.w3.org/2000/svg">
<path d="M6.66669 10.6249H13.3334C13.5104 10.6249 13.6589 10.565 13.7787 10.4451C13.8984 10.3253 13.9583 10.1768 13.9583 9.99963C13.9583 9.82246 13.8984 9.67405 13.7787 9.5544C13.6589 9.43475 13.5104 9.37492 13.3334 9.37492H6.66669C6.4896 9.37492 6.34117 9.43484 6.2214 9.55467C6.1016 9.67452 6.04171 9.82302 6.04171 10.0002C6.04171 10.1773 6.1016 10.3257 6.2214 10.4454C6.34117 10.5651 6.4896 10.6249 6.66669 10.6249ZM10.0014 17.9165C8.90647 17.9165 7.87728 17.7088 6.91383 17.2932C5.95037 16.8777 5.1123 16.3137 4.39962 15.6013C3.68693 14.889 3.12271 14.0513 2.70698 13.0882C2.29124 12.1252 2.08337 11.0962 2.08337 10.0013C2.08337 8.90635 2.29115 7.87716 2.70671 6.91371C3.12226 5.95025 3.68622 5.11218 4.39858 4.3995C5.11096 3.68681 5.94866 3.12259 6.91169 2.70686C7.8747 2.29112 8.90368 2.08325 9.99863 2.08325C11.0936 2.08325 12.1228 2.29103 13.0862 2.70659C14.0497 3.12214 14.8877 3.6861 15.6004 4.39846C16.3131 5.11084 16.8773 5.94854 17.2931 6.91157C17.7088 7.87458 17.9167 8.90356 17.9167 9.9985C17.9167 11.0934 17.7089 12.1226 17.2933 13.0861C16.8778 14.0495 16.3138 14.8876 15.6015 15.6003C14.8891 16.313 14.0514 16.8772 13.0884 17.2929C12.1253 17.7087 11.0964 17.9165 10.0014 17.9165ZM10 16.6666C11.8611 16.6666 13.4375 16.0207 14.7292 14.7291C16.0209 13.4374 16.6667 11.861 16.6667 9.9999C16.6667 8.13879 16.0209 6.5624 14.7292 5.27073C13.4375 3.97907 11.8611 3.33323 10 3.33323C8.13891 3.33323 6.56252 3.97907 5.27085 5.27073C3.97919 6.5624 3.33335 8.13879 3.33335 9.9999C3.33335 11.861 3.97919 13.4374 5.27085 14.7291C6.56252 16.0207 8.13891 16.6666 10 16.6666Z" fill="#C4C4C4"/>
</svg>
