<svg width="32" height="32" viewBox="0 0 32 32" fill="none" xmlns="http://www.w3.org/2000/svg">
<path d="M16 15.5758C14.7167 15.5758 13.6452 15.1459 12.7854 14.2862C11.9256 13.4264 11.4958 12.3535 11.4958 11.0673C11.4958 9.78116 11.9256 8.70963 12.7854 7.85272C13.6452 6.99583 14.7167 6.56738 16 6.56738C17.2833 6.56738 18.3548 6.99583 19.2146 7.85272C20.0744 8.70963 20.5042 9.78116 20.5042 11.0673C20.5042 12.3535 20.0744 13.4264 19.2146 14.2862C18.3548 15.1459 17.2833 15.5758 16 15.5758ZM6.00003 24.0425V23.0681C6.00003 22.373 6.18564 21.7555 6.55686 21.2156C6.92809 20.6757 7.41484 20.2608 8.01713 19.9707C9.39204 19.3394 10.7371 18.8645 12.0523 18.5459C13.3675 18.2274 14.6833 18.0682 15.9997 18.0682C17.3161 18.0682 18.6297 18.2297 19.9406 18.5528C21.2514 18.8759 22.5924 19.3505 23.9636 19.9768C24.5817 20.2663 25.0756 20.6801 25.4453 21.2182C25.8151 21.7564 26 22.373 26 23.0681V24.0425C26 24.5112 25.8337 24.9118 25.501 25.2444C25.1684 25.577 24.7678 25.7433 24.2991 25.7433H7.70086C7.23222 25.7433 6.83159 25.577 6.49896 25.2444C6.16634 24.9118 6.00003 24.5112 6.00003 24.0425ZM7.6752 24.0681H24.3248V23.0681C24.3248 22.7468 24.2255 22.4418 24.0269 22.1532C23.8284 21.8646 23.5664 21.6357 23.241 21.4664C21.984 20.8527 20.7691 20.4122 19.5963 20.1446C18.4235 19.8771 17.2247 19.7434 16 19.7434C14.7753 19.7434 13.5705 19.8771 12.3857 20.1446C11.201 20.4122 9.98748 20.8527 8.7453 21.4664C8.41994 21.6357 8.16025 21.8646 7.96623 22.1532C7.77221 22.4418 7.6752 22.7468 7.6752 23.0681V24.0681ZM16 13.9006C16.7994 13.9006 17.4708 13.629 18.0141 13.0857C18.5574 12.5424 18.8291 11.871 18.8291 11.0716C18.8291 10.2722 18.5574 9.60079 18.0141 9.05748C17.4708 8.51419 16.7994 8.24255 16 8.24255C15.2006 8.24255 14.5292 8.51419 13.9859 9.05748C13.4426 9.60079 13.1709 10.2722 13.1709 11.0716C13.1709 11.871 13.4426 12.5424 13.9859 13.0857C14.5292 13.629 15.2006 13.9006 16 13.9006Z" fill="black"/>
</svg>
