<svg width="20" height="20" viewBox="0 0 20 20" fill="none" xmlns="http://www.w3.org/2000/svg">
<path d="M9.99996 17.2004C9.85146 17.2004 9.71338 17.1758 9.58571 17.1266C9.45805 17.0775 9.3285 17.0011 9.19709 16.8975C8.79646 16.5556 8.2946 16.089 7.6915 15.4977C7.08841 14.9063 6.50107 14.2423 5.92948 13.5057C5.3579 12.769 4.87286 11.9798 4.47436 11.1379C4.07584 10.296 3.87659 9.45091 3.87659 8.60262C3.87659 6.90179 4.44657 5.4456 5.58652 4.23406C6.72647 3.02252 8.19761 2.41675 9.99996 2.41675C11.7884 2.41675 13.2561 3.02252 14.403 4.23406C15.5499 5.4456 16.1233 6.90179 16.1233 8.60262C16.1233 9.45091 15.9206 10.2981 15.5152 11.1443C15.1097 11.9905 14.626 12.7832 14.064 13.5225C13.5021 14.2618 12.9195 14.9223 12.3164 15.5041C11.7133 16.0858 11.2115 16.5476 10.8108 16.8895C10.6814 16.9931 10.5516 17.0708 10.4215 17.1226C10.2914 17.1745 10.1509 17.2004 9.99996 17.2004Z" fill="#EE4646"/>
<path d="M10.9504 9.49663C10.6908 9.75719 10.3745 9.88747 10.0015 9.88747C9.62856 9.88747 9.31179 9.75766 9.05123 9.49805C8.79068 9.23844 8.6604 8.92214 8.6604 8.54915C8.6604 8.17617 8.79021 7.8594 9.04982 7.59884C9.30943 7.33829 9.62573 7.20801 9.99871 7.20801C10.3717 7.20801 10.6885 7.33781 10.949 7.59742C11.2096 7.85704 11.3399 8.17333 11.3399 8.54632C11.3399 8.91931 11.2101 9.23608 10.9504 9.49663Z" fill="white"/>
</svg>
