<svg width="25" height="28" viewBox="0 0 25 28" fill="none" xmlns="http://www.w3.org/2000/svg">
<g id="Group 87">
<path id="Polygon 1" d="M11.4606 10.3133C12.1041 9.94181 12.8968 9.94181 13.5403 10.3133L15.0678 11.1952C15.7112 11.5667 16.1076 12.2533 16.1076 12.9963V14.76C16.1076 15.5031 15.7112 16.1896 15.0678 16.5611L15.5166 17.3385L15.0678 16.5611L13.5403 17.443C12.8968 17.8145 12.1041 17.8145 11.4606 17.443L9.93313 16.5611C9.28966 16.1896 8.89326 15.5031 8.89326 14.76V12.9963C8.89326 12.2533 9.28966 11.5667 9.93314 11.1952L11.4606 10.3133Z" stroke="white" stroke-width="2.07974"/>
<g id="Group 75">
<path id="Vector 23" d="M12.5005 9.04894V1" stroke="white" stroke-width="1.55981" stroke-linecap="round"/>
<path id="Vector 25" d="M12.4084 4.89036L9.99634 3.50415" stroke="white" stroke-width="1.55981" stroke-linecap="round"/>
<path id="Vector 26" d="M12.5004 4.89036L14.9125 3.50415" stroke="white" stroke-width="1.55981" stroke-linecap="round"/>
</g>
<g id="Group 77">
<path id="Vector 23_2" d="M16.4117 16.27L22.949 20.9656" stroke="white" stroke-width="1.55981" stroke-linecap="round"/>
<path id="Vector 25_2" d="M19.843 18.6214L22.3761 17.4709" stroke="white" stroke-width="1.55981" stroke-linecap="round"/>
<path id="Vector 26_2" d="M19.7894 18.6961L19.5081 21.4639" stroke="white" stroke-width="1.55981" stroke-linecap="round"/>
</g>
<g id="Group 76">
<path id="Vector 23_3" d="M12.4084 18.5287L12.4084 26.5776" stroke="white" stroke-width="1.55981" stroke-linecap="round"/>
<path id="Vector 25_3" d="M12.5005 22.6873L14.9126 24.0735" stroke="white" stroke-width="1.55981" stroke-linecap="round"/>
<path id="Vector 26_3" d="M12.4084 22.6873L9.99634 24.0735" stroke="white" stroke-width="1.55981" stroke-linecap="round"/>
</g>
<g id="Group 78">
<path id="Vector 23_4" d="M8.33582 11.5899L1.79849 6.89429" stroke="white" stroke-width="1.55981" stroke-linecap="round"/>
<path id="Vector 25_4" d="M4.90448 9.23851L2.37143 10.3889" stroke="white" stroke-width="1.55981" stroke-linecap="round"/>
<path id="Vector 26_4" d="M4.95817 9.16378L5.23947 6.396" stroke="white" stroke-width="1.55981" stroke-linecap="round"/>
</g>
<g id="Group 79">
<path id="Vector 23_5" d="M16.4192 11.603L23.7544 8.28931" stroke="white" stroke-width="1.55981" stroke-linecap="round"/>
<path id="Vector 25_5" d="M20.1712 9.80673L20.4415 7.03784" stroke="white" stroke-width="1.55981" stroke-linecap="round"/>
<path id="Vector 26_5" d="M20.2091 9.89056L22.4654 11.5181" stroke="white" stroke-width="1.55981" stroke-linecap="round"/>
</g>
<g id="Group 80">
<path id="Vector 23_6" d="M8.32823 16.2566L0.993042 19.5703" stroke="white" stroke-width="1.55981" stroke-linecap="round"/>
<path id="Vector 25_6" d="M4.57621 18.0526L4.30597 20.8215" stroke="white" stroke-width="1.55981" stroke-linecap="round"/>
<path id="Vector 26_6" d="M4.53834 17.9688L2.28201 16.3413" stroke="white" stroke-width="1.55981" stroke-linecap="round"/>
</g>
</g>
</svg>
