<svg width="24" height="27" viewBox="0 0 24 27" fill="none" xmlns="http://www.w3.org/2000/svg">
<g id="Frame 1630">
<g id="Group">
<g id="Group_2">
<g id="Group_3">
<g id="Group_4">
<g id="Group_5">
<path id="Vector" d="M16.1036 5.27654C16.5045 4.82548 17.3398 4.32431 17.5904 4.17396C18.0081 3.92337 18.3088 4.54148 17.9078 4.77536C17.39 5.09277 16.538 5.42689 16.2373 5.51042C16.1036 5.52712 16.0368 5.37677 16.1036 5.27654Z" fill="#FFDD32"/>
</g>
</g>
<g id="Group_6">
<g id="Group_7">
<path id="Vector_2" d="M5.82961 11.04C5.42867 11.4911 4.59338 11.9923 4.3428 12.1426C3.92515 12.3932 3.62445 11.7751 4.02539 11.5412C4.54327 11.2238 5.39526 10.8897 5.69596 10.8062C5.82961 10.8062 5.89643 10.9565 5.82961 11.04Z" fill="#FFDD32"/>
</g>
</g>
<g id="Group_8">
<g id="Group_9">
<path id="Vector_3" d="M14.1157 3.13819C14.266 2.53678 14.7505 1.70149 14.9009 1.4509C15.1514 1.03326 15.7027 1.41749 15.4521 1.81843C15.1514 2.35302 14.55 3.05466 14.3329 3.28854C14.2326 3.33866 14.099 3.23842 14.1157 3.13819Z" fill="#FFDD32"/>
</g>
</g>
<g id="Group_10">
<g id="Group_11">
<path id="Vector_4" d="M7.81751 13.1952C7.66716 13.7966 7.18269 14.6319 7.03234 14.8825C6.78175 15.3001 6.23046 14.9159 6.48105 14.515C6.78175 13.9804 7.38316 13.2787 7.60033 13.0449C7.70057 12.9947 7.83421 13.0783 7.81751 13.1952Z" fill="#FFDD32"/>
</g>
</g>
<g id="Group_12">
<g id="Group_13">
<path id="Vector_5" d="M11.3925 2.20271C11.2422 1.6013 11.2756 0.632365 11.309 0.331662C11.3424 -0.152806 11.9939 -0.0859826 11.9605 0.398485C11.9438 1.0166 11.7434 1.91871 11.6598 2.23612C11.593 2.33635 11.4427 2.31965 11.3925 2.20271Z" fill="#FFDD32"/>
</g>
</g>
<g id="Group_14">
<g id="Group_15">
<path id="Vector_6" d="M10.5407 14.114C10.691 14.7154 10.6576 15.6843 10.6242 15.985C10.5908 16.4695 9.93927 16.4027 9.97268 15.9182C9.98938 15.3001 10.1899 14.398 10.2734 14.0806C10.3402 13.9971 10.5073 14.0138 10.5407 14.114Z" fill="#FFDD32"/>
</g>
</g>
<g id="Group_16">
<g id="Group_17">
<path id="Vector_7" d="M8.31873 2.83751C7.88438 2.40316 7.41662 1.55117 7.28297 1.28387C7.04909 0.849525 7.6672 0.565526 7.88438 0.98317C8.16838 1.51775 8.48578 2.40316 8.55261 2.72057C8.55261 2.83751 8.40226 2.90433 8.31873 2.83751Z" fill="#FFDD32"/>
</g>
</g>
<g id="Group_18">
<g id="Group_19">
<path id="Vector_8" d="M13.6145 13.4792C14.0488 13.9135 14.5166 14.7655 14.6503 15.0328C14.8841 15.4672 14.266 15.7512 14.0488 15.3335C13.7648 14.7989 13.4474 13.9135 13.3806 13.5961C13.3806 13.4792 13.531 13.4124 13.6145 13.4792Z" fill="#FFDD32"/>
</g>
</g>
<g id="Group_20">
<g id="Group_21">
<path id="Vector_9" d="M5.96318 5.0593C5.37848 4.92566 4.54319 4.44119 4.29261 4.29084C3.87496 4.04025 4.24249 3.47225 4.64343 3.72284C5.17801 4.02354 5.87965 4.60825 6.09683 4.84213C6.16365 4.92566 6.08012 5.0593 5.96318 5.0593Z" fill="#FFDD32"/>
</g>
</g>
<g id="Group_22">
<g id="Group_23">
<path id="Vector_10" d="M15.9699 11.274C16.5546 11.4076 17.3899 11.8921 17.6405 12.0425C18.0581 12.293 17.6906 12.861 17.2897 12.6104C16.7551 12.3097 16.0534 11.725 15.8363 11.4912C15.7694 11.4076 15.853 11.2573 15.9699 11.274Z" fill="#FFDD32"/>
</g>
</g>
<g id="Group_24">
<g id="Group_25">
<path id="Vector_11" d="M5.17804 8.06647C4.61005 8.28364 3.65782 8.33376 3.35711 8.33376C2.87265 8.35047 2.88935 7.66553 3.35711 7.66553C3.95852 7.63212 4.87734 7.73235 5.17804 7.81588C5.27828 7.83259 5.27828 7.99965 5.17804 8.06647Z" fill="#FFDD32"/>
</g>
</g>
<g id="Group_26">
<g id="Group_27">
<path id="Vector_12" d="M16.822 8.04982C17.39 7.83264 18.3422 7.78253 18.6429 7.78253C19.1274 7.76582 19.1107 8.45076 18.6429 8.45076C18.0415 8.48417 17.1227 8.38393 16.822 8.30041C16.7218 8.26699 16.7218 8.09994 16.822 8.04982Z" fill="#FFDD32"/>
</g>
</g>
</g>
<g id="Group_28">
<g id="Group_29">
<g id="Group_30">
<path id="Vector_13" d="M15.1516 3.99044C15.4189 3.43915 16.0871 2.73751 16.3043 2.52033C16.6384 2.16951 17.0894 2.67069 16.7553 3.0048C16.3377 3.45586 15.6026 4.00715 15.3353 4.1742C15.2351 4.20762 15.1182 4.09068 15.1516 3.99044Z" fill="#FFDD32"/>
</g>
</g>
<g id="Group_31">
<g id="Group_32">
<path id="Vector_14" d="M6.78201 12.3434C6.51472 12.8947 5.84649 13.5963 5.62931 13.8135C5.2952 14.1643 4.84414 13.6631 5.17826 13.329C5.5959 12.878 6.33096 12.3267 6.59825 12.1596C6.71519 12.1095 6.81542 12.2264 6.78201 12.3434Z" fill="#FFDD32"/>
</g>
</g>
<g id="Group_33">
<g id="Group_34">
<path id="Vector_15" d="M12.679 2.45349C12.6623 1.83538 12.9129 0.899857 12.9964 0.599154C13.1301 0.131392 13.7649 0.348567 13.6312 0.799623C13.4642 1.41774 13.0967 2.25302 12.9296 2.53702C12.8461 2.62055 12.6957 2.57043 12.679 2.45349Z" fill="#FFDD32"/>
</g>
</g>
<g id="Group_35">
<g id="Group_36">
<path id="Vector_16" d="M9.25429 13.8636C9.271 14.4817 9.02041 15.4173 8.93688 15.718C8.80324 16.1857 8.16842 15.9686 8.30206 15.5175C8.45242 14.9161 8.83665 14.0808 9.00371 13.7968C9.08723 13.7133 9.23759 13.7634 9.25429 13.8636Z" fill="#FFDD32"/>
</g>
</g>
<g id="Group_37">
<g id="Group_38">
<path id="Vector_17" d="M9.8056 2.31999C9.50489 1.7854 9.28772 0.833174 9.2209 0.532471C9.12066 0.0480035 9.77219 -0.0522312 9.87242 0.41553C10.0061 1.01694 10.0729 1.95246 10.0562 2.26987C10.0395 2.3701 9.87242 2.40352 9.8056 2.31999Z" fill="#FFDD32"/>
</g>
</g>
<g id="Group_39">
<g id="Group_40">
<path id="Vector_18" d="M12.1279 14.0141C12.4286 14.5487 12.6457 15.5009 12.7126 15.8016C12.8128 16.2861 12.1613 16.3863 12.061 15.9186C11.9274 15.3172 11.8606 14.3816 11.8773 14.0642C11.894 13.9473 12.061 13.9306 12.1279 14.0141Z" fill="#FFDD32"/>
</g>
</g>
<g id="Group_41">
<g id="Group_42">
<path id="Vector_19" d="M7.01582 3.75647C6.48123 3.45577 5.813 2.77083 5.61253 2.53695C5.27842 2.18613 5.7963 1.73507 6.11371 2.08589C6.53135 2.52024 7.06593 3.28871 7.21629 3.57271C7.23299 3.68965 7.11605 3.80659 7.01582 3.75647Z" fill="#FFDD32"/>
</g>
</g>
<g id="Group_43">
<g id="Group_44">
<path id="Vector_20" d="M14.9177 12.5605C15.4522 12.8612 16.1205 13.5461 16.3209 13.78C16.6551 14.1308 16.1372 14.5819 15.8198 14.231C15.4021 13.7967 14.8675 13.0282 14.7172 12.7442C14.7005 12.6273 14.8174 12.5271 14.9177 12.5605Z" fill="#FFDD32"/>
</g>
</g>
<g id="Group_45">
<g id="Group_46">
<path id="Vector_21" d="M5.32857 6.52966C4.72716 6.56307 3.79164 6.32919 3.50764 6.24566C3.03988 6.11201 3.25705 5.47719 3.6914 5.59413C4.27611 5.74448 5.11139 6.11201 5.39539 6.27907C5.49563 6.34589 5.44551 6.51295 5.32857 6.52966Z" fill="#FFDD32"/>
</g>
</g>
<g id="Group_47">
<g id="Group_48">
<path id="Vector_22" d="M16.6049 9.80402C17.2063 9.77061 18.1419 10.0045 18.4259 10.088C18.8936 10.2217 18.6764 10.8565 18.2421 10.7395C17.6574 10.5892 16.8221 10.2217 16.5381 10.0546C16.4546 9.97108 16.488 9.82073 16.6049 9.80402Z" fill="#FFDD32"/>
</g>
</g>
<g id="Group_49">
<g id="Group_50">
<path id="Vector_23" d="M5.34516 9.55356C4.86069 9.90439 3.94188 10.2218 3.65788 10.3053C3.19012 10.4557 3.03977 9.78745 3.47412 9.6538C4.04211 9.45333 4.94422 9.30298 5.26163 9.30298C5.37857 9.30298 5.42869 9.47004 5.34516 9.55356Z" fill="#FFDD32"/>
</g>
</g>
<g id="Group_51">
<g id="Group_52">
<path id="Vector_24" d="M16.5883 6.46287C17.0727 6.11205 17.9915 5.79464 18.2755 5.71111C18.7433 5.56076 18.8937 6.22899 18.4593 6.36263C17.8913 6.5631 16.9892 6.71346 16.6718 6.71346C16.5381 6.69675 16.5047 6.52969 16.5883 6.46287Z" fill="#FFDD32"/>
</g>
</g>
</g>
<path id="Vector_25" d="M6.197 9.13564C6.69817 11.7751 9.3711 13.4457 12.1443 12.8777C14.9174 12.3097 16.755 9.73704 16.2372 7.09753C15.7193 4.47473 13.0631 2.78745 10.2899 3.35544C7.51676 3.92344 5.67912 6.51283 6.197 9.13564Z" fill="#FFDD32"/>
<g id="Group_53">
<path id="Vector_26" d="M9.38784 4.34104C8.41891 4.95915 7.85091 5.81114 7.63374 6.04502C7.41656 6.2622 7.2328 5.96149 7.33303 5.77773C7.68385 5.09279 8.80314 4.25751 9.30431 4.17398C9.40455 4.15727 9.45466 4.27421 9.38784 4.34104Z" fill="white"/>
</g>
<g id="Group_54">
<path id="Vector_27" d="M7.23276 6.56281C7.26617 6.69646 7.08241 7.34798 6.98217 7.46492C6.91535 7.54845 6.74829 7.54845 6.69817 7.44822C6.61464 7.26445 6.69817 7.03057 6.7817 6.86352C6.84852 6.72987 6.99888 6.5127 7.14923 6.5127C7.18264 6.5127 7.23276 6.5294 7.23276 6.56281Z" fill="white"/>
</g>
<path id="Vector_28" opacity="0.2" d="M15.5524 6.29565C15.5524 6.29565 16.5047 8.40058 15.1348 10.4888C13.7649 12.577 10.8581 13.1951 8.43579 11.8086C8.53603 11.2071 9.17084 10.7394 9.77225 10.7561C10.24 10.7728 10.7746 11.0234 11.1254 10.6893C11.3593 10.4721 11.3426 10.1046 11.4762 9.82057C11.7101 9.3361 12.2781 9.15234 12.796 9.0354C13.3139 8.91846 13.8819 8.7514 14.1325 8.26693C14.2661 8.01635 14.2661 7.71564 14.2828 7.43165C14.2828 7.14765 14.2995 6.84694 14.4332 6.59636C14.5668 6.34577 15.3019 6.24554 15.5524 6.32907V6.29565Z" fill="#E6AF29"/>
</g>
</g>
<g id="Group_55">
<path id="Vector_29" d="M5.81013 6.36543C5.81013 6.36543 2.90506 6.49019 1.58619 5.38519C0.26732 4.29801 1.47925 3.56729 2.24562 3.92374C2.24562 3.92374 1.6753 2.96132 2.47732 2.5514C3.27933 2.15931 3.84965 3.06826 3.84965 3.06826C3.84965 3.06826 3.51102 1.25036 5.11505 1.01866C6.7369 0.769148 7.32505 3.1039 7.32505 3.1039C7.32505 3.1039 9.08948 1.96326 9.85585 3.53164C10.64 5.1535 8.0736 6.40107 5.81013 6.36543Z" fill="#DBDBDB"/>
<g id="Group_56">
<path id="Vector_30" d="M4.2417 2.9614C4.31299 2.42673 4.5625 2.01681 4.61597 1.87423C4.66944 1.73165 4.49121 1.71382 4.43774 1.78511C4.20605 2.05245 4.08129 2.71189 4.15258 2.94358C4.17041 2.99705 4.2417 3.01487 4.2417 2.9614Z" fill="white"/>
</g>
<g id="Group_57">
<path id="Vector_31" d="M4.75849 1.62452C4.82978 1.62452 5.0793 1.42847 5.09712 1.35718C5.11495 1.30371 5.0793 1.23242 5.02583 1.23242C4.9189 1.23242 4.84761 1.30371 4.79414 1.375C4.75849 1.42847 4.6872 1.5354 4.72285 1.6067C4.72285 1.6067 4.74067 1.62452 4.75849 1.62452Z" fill="white"/>
</g>
<path id="Vector_32" d="M1.90698 5.02873C1.90698 5.02873 3.35061 5.88421 5.77448 5.91985C8.19834 5.9555 9.4281 4.52969 9.60632 4.24453C9.44592 4.01284 9.036 3.92373 8.76866 3.9772C8.50133 4.03066 8.28745 4.20889 8.07358 4.36929C7.85971 4.52969 7.64584 4.70792 7.39633 4.79703C6.71907 5.0109 5.9527 4.54752 5.25762 4.6901C4.86553 4.76139 4.5269 5.02873 4.11698 5.04655C3.72488 5.06437 3.35061 4.8505 2.95851 4.74357C2.60206 4.63663 2.06739 4.67227 1.90698 5.02873Z" fill="#DBDBDB"/>
</g>
<g id="Group_58">
<path id="Vector_33" d="M17.6017 15.3639C17.6017 15.3639 13.6146 15.5351 11.8045 14.0185C9.99442 12.5264 11.6578 11.5235 12.7096 12.0127C12.7096 12.0127 11.9268 10.6918 13.0276 10.1292C14.1283 9.59111 14.911 10.8386 14.911 10.8386C14.911 10.8386 14.4463 8.34361 16.6478 8.02562C18.8737 7.68316 19.6809 10.8875 19.6809 10.8875C19.6809 10.8875 22.1025 9.32204 23.1543 11.4746C24.2306 13.7005 20.7082 15.4128 17.6017 15.3639Z" fill="#DBDBDB"/>
<g id="Group_59">
<path id="Vector_34" d="M15.4491 10.692C15.5469 9.95822 15.8894 9.39562 15.9628 9.19993C16.0361 9.00425 15.7915 8.97979 15.7182 9.07763C15.4002 9.44454 15.2289 10.3496 15.3268 10.6676C15.3512 10.741 15.4491 10.7654 15.4491 10.692Z" fill="white"/>
</g>
<g id="Group_60">
<path id="Vector_35" d="M16.1584 8.85723C16.2563 8.85723 16.5987 8.58816 16.6232 8.49032C16.6477 8.41694 16.5987 8.31909 16.5254 8.31909C16.3786 8.31909 16.2808 8.41693 16.2074 8.51478C16.1584 8.58816 16.0606 8.73492 16.1095 8.83277C16.1095 8.83277 16.134 8.85723 16.1584 8.85723Z" fill="white"/>
</g>
<path id="Vector_36" d="M12.2449 13.5293C12.2449 13.5293 14.2262 14.7034 17.5529 14.7523C20.8795 14.8012 22.5673 12.8444 22.8119 12.453C22.5918 12.135 22.0292 12.0127 21.6623 12.0861C21.2954 12.1595 21.0018 12.4041 20.7083 12.6242C20.4148 12.8444 20.1212 13.089 19.7788 13.2113C18.8493 13.5048 17.7975 12.8688 16.8435 13.0645C16.3054 13.1623 15.8406 13.5293 15.278 13.5537C14.7399 13.5782 14.2262 13.2846 13.6881 13.1379C13.1988 12.9911 12.465 13.04 12.2449 13.5293Z" fill="#DBDBDB"/>
</g>
</g>
</svg>
