<svg width="24" height="22" viewBox="0 0 24 22" fill="none" xmlns="http://www.w3.org/2000/svg">
<g id="Frame 1671">
<g id="Group">
<g id="Group_2">
<g id="Group_3">
<g id="Group_4">
<g id="Group_5">
<path id="Vector" d="M16.1039 7.27654C16.5048 6.82548 17.3401 6.32431 17.5907 6.17396C18.0083 5.92337 18.309 6.54148 17.9081 6.77536C17.3902 7.09277 16.5382 7.42689 16.2375 7.51042C16.1039 7.52712 16.037 7.37677 16.1039 7.27654Z" fill="#FFDD32"/>
</g>
</g>
<g id="Group_6">
<g id="Group_7">
<path id="Vector_2" d="M5.82937 13.04C5.42843 13.4911 4.59314 13.9923 4.34255 14.1426C3.92491 14.3932 3.62421 13.7751 4.02514 13.5412C4.54302 13.2238 5.39502 12.8897 5.69572 12.8062C5.82937 12.8062 5.89619 12.9565 5.82937 13.04Z" fill="#FFDD32"/>
</g>
</g>
<g id="Group_8">
<g id="Group_9">
<path id="Vector_3" d="M14.1157 5.13819C14.266 4.53678 14.7505 3.70149 14.9009 3.4509C15.1514 3.03326 15.7027 3.41749 15.4521 3.81843C15.1514 4.35302 14.55 5.05466 14.3329 5.28854C14.2326 5.33866 14.099 5.23842 14.1157 5.13819Z" fill="#FFDD32"/>
</g>
</g>
<g id="Group_10">
<g id="Group_11">
<path id="Vector_4" d="M7.81775 15.1952C7.6674 15.7966 7.18293 16.6319 7.03258 16.8825C6.782 17.3001 6.23071 16.9159 6.48129 16.515C6.782 15.9804 7.3834 15.2787 7.60058 15.0449C7.70081 14.9947 7.83446 15.0783 7.81775 15.1952Z" fill="#FFDD32"/>
</g>
</g>
<g id="Group_12">
<g id="Group_13">
<path id="Vector_5" d="M11.3928 4.20271C11.2424 3.6013 11.2758 2.63237 11.3093 2.33166C11.3427 1.84719 11.9942 1.91402 11.9608 2.39848C11.9441 3.0166 11.7436 3.91871 11.6601 4.23612C11.5933 4.33635 11.4429 4.31965 11.3928 4.20271Z" fill="#FFDD32"/>
</g>
</g>
<g id="Group_14">
<g id="Group_15">
<path id="Vector_6" d="M10.5404 16.114C10.6908 16.7154 10.6574 17.6843 10.624 17.985C10.5905 18.4695 9.93902 18.4027 9.97243 17.9182C9.98914 17.3001 10.1896 16.398 10.2731 16.0806C10.34 15.9971 10.507 16.0138 10.5404 16.114Z" fill="#FFDD32"/>
</g>
</g>
<g id="Group_16">
<g id="Group_17">
<path id="Vector_7" d="M8.31873 4.83751C7.88438 4.40316 7.41662 3.55117 7.28297 3.28387C7.04909 2.84952 7.6672 2.56553 7.88438 2.98317C8.16838 3.51775 8.48578 4.40316 8.55261 4.72057C8.55261 4.83751 8.40226 4.90433 8.31873 4.83751Z" fill="#FFDD32"/>
</g>
</g>
<g id="Group_18">
<g id="Group_19">
<path id="Vector_8" d="M13.6143 15.4792C14.0486 15.9135 14.5164 16.7655 14.65 17.0328C14.8839 17.4672 14.2658 17.7512 14.0486 17.3335C13.7646 16.7989 13.4472 15.9135 13.3804 15.5961C13.3804 15.4792 13.5307 15.4124 13.6143 15.4792Z" fill="#FFDD32"/>
</g>
</g>
<g id="Group_20">
<g id="Group_21">
<path id="Vector_9" d="M5.96343 7.0593C5.37873 6.92566 4.54344 6.44119 4.29285 6.29084C3.87521 6.04025 4.24273 5.47225 4.64367 5.72284C5.17826 6.02354 5.8799 6.60825 6.09707 6.84213C6.1639 6.92566 6.08037 7.0593 5.96343 7.0593Z" fill="#FFDD32"/>
</g>
</g>
<g id="Group_22">
<g id="Group_23">
<path id="Vector_10" d="M15.9699 13.274C16.5546 13.4076 17.3899 13.8921 17.6405 14.0425C18.0581 14.293 17.6906 14.861 17.2897 14.6104C16.7551 14.3097 16.0534 13.725 15.8363 13.4912C15.7694 13.4076 15.853 13.2573 15.9699 13.274Z" fill="#FFDD32"/>
</g>
</g>
<g id="Group_24">
<g id="Group_25">
<path id="Vector_11" d="M5.17804 10.0665C4.61005 10.2836 3.65782 10.3338 3.35711 10.3338C2.87265 10.3505 2.88935 9.66553 3.35711 9.66553C3.95852 9.63212 4.87734 9.73235 5.17804 9.81588C5.27828 9.83259 5.27828 9.99965 5.17804 10.0665Z" fill="#FFDD32"/>
</g>
</g>
<g id="Group_26">
<g id="Group_27">
<path id="Vector_12" d="M16.8218 10.0498C17.3898 9.83264 18.342 9.78253 18.6427 9.78253C19.1272 9.76582 19.1104 10.4508 18.6427 10.4508C18.0413 10.4842 17.1225 10.3839 16.8218 10.3004C16.7215 10.267 16.7215 10.0999 16.8218 10.0498Z" fill="#FFDD32"/>
</g>
</g>
</g>
<g id="Group_28">
<g id="Group_29">
<g id="Group_30">
<path id="Vector_13" d="M15.1513 5.99044C15.4186 5.43915 16.0869 4.73751 16.304 4.52033C16.6381 4.16951 17.0892 4.67069 16.7551 5.0048C16.3374 5.45586 15.6024 6.00715 15.3351 6.1742C15.2349 6.20762 15.1179 6.09068 15.1513 5.99044Z" fill="#FFDD32"/>
</g>
</g>
<g id="Group_31">
<g id="Group_32">
<path id="Vector_14" d="M6.78177 14.3434C6.51448 14.8947 5.84625 15.5963 5.62907 15.8135C5.29496 16.1643 4.8439 15.6631 5.17802 15.329C5.59566 14.878 6.33071 14.3267 6.598 14.1596C6.71495 14.1095 6.81518 14.2264 6.78177 14.3434Z" fill="#FFDD32"/>
</g>
</g>
<g id="Group_33">
<g id="Group_34">
<path id="Vector_15" d="M12.679 4.45349C12.6623 3.83538 12.9129 2.89986 12.9964 2.59915C13.1301 2.13139 13.7649 2.34857 13.6312 2.79962C13.4642 3.41774 13.0967 4.25302 12.9296 4.53702C12.8461 4.62055 12.6957 4.57043 12.679 4.45349Z" fill="#FFDD32"/>
</g>
</g>
<g id="Group_35">
<g id="Group_36">
<path id="Vector_16" d="M9.25429 15.8636C9.271 16.4817 9.02041 17.4173 8.93688 17.718C8.80324 18.1857 8.16842 17.9686 8.30206 17.5175C8.45242 16.9161 8.83665 16.0808 9.00371 15.7968C9.08723 15.7133 9.23759 15.7634 9.25429 15.8636Z" fill="#FFDD32"/>
</g>
</g>
<g id="Group_37">
<g id="Group_38">
<path id="Vector_17" d="M9.8056 4.31999C9.50489 3.7854 9.28772 2.83317 9.2209 2.53247C9.12066 2.048 9.77219 1.94777 9.87242 2.41553C10.0061 3.01694 10.0729 3.95246 10.0562 4.26987C10.0395 4.3701 9.87242 4.40352 9.8056 4.31999Z" fill="#FFDD32"/>
</g>
</g>
<g id="Group_39">
<g id="Group_40">
<path id="Vector_18" d="M12.1276 16.0141C12.4283 16.5487 12.6455 17.5009 12.7123 17.8016C12.8126 18.2861 12.161 18.3863 12.0608 17.9186C11.9272 17.3172 11.8603 16.3816 11.877 16.0642C11.8937 15.9473 12.0608 15.9306 12.1276 16.0141Z" fill="#FFDD32"/>
</g>
</g>
<g id="Group_41">
<g id="Group_42">
<path id="Vector_19" d="M7.01582 5.75647C6.48123 5.45577 5.813 4.77083 5.61253 4.53695C5.27842 4.18613 5.7963 3.73507 6.11371 4.08589C6.53135 4.52024 7.06593 5.28871 7.21629 5.57271C7.23299 5.68965 7.11605 5.80659 7.01582 5.75647Z" fill="#FFDD32"/>
</g>
</g>
<g id="Group_43">
<g id="Group_44">
<path id="Vector_20" d="M14.9174 14.5605C15.452 14.8612 16.1202 15.5461 16.3207 15.78C16.6548 16.1308 16.1369 16.5819 15.8195 16.231C15.4019 15.7967 14.8673 15.0282 14.7169 14.7442C14.7002 14.6273 14.8172 14.5271 14.9174 14.5605Z" fill="#FFDD32"/>
</g>
</g>
<g id="Group_45">
<g id="Group_46">
<path id="Vector_21" d="M5.32857 8.52966C4.72716 8.56307 3.79164 8.32919 3.50764 8.24566C3.03988 8.11201 3.25705 7.47719 3.6914 7.59413C4.27611 7.74448 5.11139 8.11201 5.39539 8.27907C5.49563 8.34589 5.44551 8.51295 5.32857 8.52966Z" fill="#FFDD32"/>
</g>
</g>
<g id="Group_47">
<g id="Group_48">
<path id="Vector_22" d="M16.6049 11.804C17.2063 11.7706 18.1419 12.0045 18.4259 12.088C18.8936 12.2217 18.6764 12.8565 18.2421 12.7395C17.6574 12.5892 16.8221 12.2217 16.5381 12.0546C16.4546 11.9711 16.488 11.8207 16.6049 11.804Z" fill="#FFDD32"/>
</g>
</g>
<g id="Group_49">
<g id="Group_50">
<path id="Vector_23" d="M5.34516 11.5536C4.86069 11.9044 3.94188 12.2218 3.65788 12.3053C3.19012 12.4557 3.03977 11.7874 3.47412 11.6538C4.04211 11.4533 4.94422 11.303 5.26163 11.303C5.37857 11.303 5.42869 11.47 5.34516 11.5536Z" fill="#FFDD32"/>
</g>
</g>
<g id="Group_51">
<g id="Group_52">
<path id="Vector_24" d="M16.588 8.46287C17.0725 8.11205 17.9913 7.79464 18.2753 7.71111C18.7431 7.56076 18.8934 8.22899 18.4591 8.36263C17.8911 8.5631 16.989 8.71346 16.6715 8.71346C16.5379 8.69675 16.5045 8.52969 16.588 8.46287Z" fill="#FFDD32"/>
</g>
</g>
</g>
<path id="Vector_25" d="M6.19725 11.1356C6.69842 13.7751 9.37134 15.4457 12.1445 14.8777C14.9177 14.3097 16.7553 11.737 16.2374 9.09753C15.7195 6.47473 13.0633 4.78745 10.2902 5.35544C7.517 5.92344 5.67937 8.51283 6.19725 11.1356Z" fill="#FFDD32"/>
<g id="Group_53">
<path id="Vector_26" d="M9.38809 6.34104C8.41915 6.95915 7.85116 7.81114 7.63398 8.04502C7.41681 8.2622 7.23304 7.96149 7.33328 7.77773C7.6841 7.09279 8.80338 6.25751 9.30456 6.17398C9.40479 6.15727 9.45491 6.27421 9.38809 6.34104Z" fill="white"/>
</g>
<g id="Group_54">
<path id="Vector_27" d="M7.23276 8.56281C7.26617 8.69646 7.08241 9.34798 6.98217 9.46492C6.91535 9.54845 6.74829 9.54845 6.69817 9.44822C6.61464 9.26445 6.69817 9.03057 6.7817 8.86352C6.84852 8.72987 6.99888 8.5127 7.14923 8.5127C7.18264 8.5127 7.23276 8.5294 7.23276 8.56281Z" fill="white"/>
</g>
<path id="Vector_28" opacity="0.2" d="M15.5522 8.29565C15.5522 8.29565 16.5044 10.4006 15.1346 12.4888C13.7647 14.577 10.8579 15.1951 8.43555 13.8086C8.53578 13.2071 9.1706 12.7394 9.77201 12.7561C10.2398 12.7728 10.7744 13.0234 11.1252 12.6893C11.3591 12.4721 11.3424 12.1046 11.476 11.8206C11.7099 11.3361 12.2779 11.1523 12.7958 11.0354C13.3136 10.9185 13.8816 10.7514 14.1322 10.2669C14.2659 10.0163 14.2659 9.71564 14.2826 9.43165C14.2826 9.14765 14.2993 8.84694 14.4329 8.59636C14.5666 8.34577 15.3016 8.24554 15.5522 8.32907V8.29565Z" fill="#E6AF29"/>
</g>
</g>
<g id="Group_55">
<path id="Vector_29" d="M5.81013 8.36543C5.81013 8.36543 2.90506 8.49019 1.58619 7.38519C0.26732 6.29801 1.47925 5.56729 2.24562 5.92374C2.24562 5.92374 1.6753 4.96132 2.47732 4.5514C3.27933 4.15931 3.84965 5.06826 3.84965 5.06826C3.84965 5.06826 3.51102 3.25036 5.11505 3.01866C6.7369 2.76915 7.32505 5.1039 7.32505 5.1039C7.32505 5.1039 9.08948 3.96326 9.85585 5.53164C10.64 7.1535 8.0736 8.40107 5.81013 8.36543Z" fill="#DBDBDB"/>
<g id="Group_56">
<path id="Vector_30" d="M4.24194 4.9614C4.31323 4.42673 4.56275 4.01681 4.61621 3.87423C4.66968 3.73165 4.49146 3.71382 4.43799 3.78511C4.20629 4.05245 4.08154 4.71189 4.15283 4.94358C4.17065 4.99705 4.24194 5.01487 4.24194 4.9614Z" fill="white"/>
</g>
<g id="Group_57">
<path id="Vector_31" d="M4.75874 3.62452C4.83003 3.62452 5.07954 3.42847 5.09737 3.35718C5.11519 3.30371 5.07954 3.23242 5.02608 3.23242C4.91914 3.23242 4.84785 3.30371 4.79438 3.375C4.75874 3.42847 4.68745 3.5354 4.72309 3.6067C4.72309 3.6067 4.74092 3.62452 4.75874 3.62452Z" fill="white"/>
</g>
<path id="Vector_32" d="M1.90723 7.02873C1.90723 7.02873 3.35085 7.88421 5.77472 7.91985C8.19859 7.9555 9.42834 6.52969 9.60657 6.24453C9.44616 6.01284 9.03625 5.92373 8.76891 5.9772C8.50157 6.03066 8.2877 6.20889 8.07383 6.36929C7.85996 6.52969 7.64609 6.70792 7.39657 6.79703C6.71931 7.0109 5.95294 6.54752 5.25787 6.6901C4.86577 6.76139 4.52714 7.02873 4.11722 7.04655C3.72513 7.06437 3.35085 6.8505 2.95876 6.74357C2.60231 6.63663 2.06763 6.67227 1.90723 7.02873Z" fill="#DBDBDB"/>
</g>
<g id="Group_58">
<path id="Vector_33" d="M17.6017 17.3639C17.6017 17.3639 13.6146 17.5351 11.8045 16.0185C9.99442 14.5264 11.6578 13.5235 12.7096 14.0127C12.7096 14.0127 11.9268 12.6918 13.0276 12.1292C14.1283 11.5911 14.911 12.8386 14.911 12.8386C14.911 12.8386 14.4463 10.3436 16.6478 10.0256C18.8737 9.68316 19.6809 12.8875 19.6809 12.8875C19.6809 12.8875 22.1025 11.322 23.1543 13.4746C24.2306 15.7005 20.7082 17.4128 17.6017 17.3639Z" fill="#DBDBDB"/>
<g id="Group_59">
<path id="Vector_34" d="M15.4491 12.692C15.5469 11.9582 15.8894 11.3956 15.9628 11.1999C16.0361 11.0042 15.7915 10.9798 15.7182 11.0776C15.4002 11.4445 15.2289 12.3496 15.3268 12.6676C15.3512 12.741 15.4491 12.7654 15.4491 12.692Z" fill="white"/>
</g>
<g id="Group_60">
<path id="Vector_35" d="M16.1584 10.8572C16.2563 10.8572 16.5987 10.5882 16.6232 10.4903C16.6477 10.4169 16.5987 10.3191 16.5254 10.3191C16.3786 10.3191 16.2808 10.4169 16.2074 10.5148C16.1584 10.5882 16.0606 10.7349 16.1095 10.8328C16.1095 10.8328 16.134 10.8572 16.1584 10.8572Z" fill="white"/>
</g>
<path id="Vector_36" d="M12.2446 15.5293C12.2446 15.5293 14.226 16.7034 17.5526 16.7523C20.8793 16.8012 22.5671 14.8444 22.8117 14.453C22.5915 14.135 22.0289 14.0127 21.662 14.0861C21.2951 14.1595 21.0016 14.4041 20.7081 14.6242C20.4145 14.8444 20.121 15.089 19.7786 15.2113C18.849 15.5048 17.7972 14.8688 16.8433 15.0645C16.3051 15.1623 15.8404 15.5293 15.2778 15.5537C14.7396 15.5782 14.226 15.2846 13.6878 15.1379C13.1986 14.9911 12.4648 15.04 12.2446 15.5293Z" fill="#DBDBDB"/>
</g>
</g>
</svg>
