<svg width="24" height="22" viewBox="0 0 24 22" fill="none" xmlns="http://www.w3.org/2000/svg">
<g id="Frame 1633">
<g id="Group">
<g id="Group_2">
<g id="Clip path group">
<g id="Group_3">
<path id="Vector" d="M12.7742 13.9916C12.7742 13.9916 6.27787 14.2564 3.31216 11.8202C0.346439 9.36645 3.10032 7.74237 4.79501 8.53676C4.79501 8.53676 3.50634 6.36543 5.2893 5.48277C7.07226 4.60012 8.37859 6.63022 8.37859 6.63022C8.37859 6.63022 7.61951 2.58767 11.2384 2.04042C14.8396 1.49318 16.1636 6.68318 16.1636 6.68318C16.1636 6.68318 20.1179 4.12349 21.8302 7.63645C23.5955 11.2906 17.8406 14.0798 12.7742 13.9916Z" fill="#DBDBDB"/>
<g id="Group_4">
<path id="Vector_2" d="M9.27893 6.41849C9.42016 5.20043 10.0027 4.31778 10.1263 4.00002C10.2498 3.69992 9.86148 3.62931 9.72026 3.80584C9.20832 4.4237 8.92587 5.8536 9.08475 6.40084C9.1024 6.50676 9.24363 6.50676 9.27893 6.41849Z" fill="white"/>
</g>
<g id="Group_5">
<path id="Vector_3" d="M10.4443 3.39999C10.5855 3.38234 11.1504 2.94101 11.2034 2.79979C11.2387 2.69387 11.1857 2.53499 11.0445 2.51734C10.815 2.49968 10.6385 2.67622 10.5149 2.83509C10.4267 2.95866 10.2678 3.1705 10.3384 3.32938C10.3561 3.38234 10.409 3.39999 10.4443 3.39999Z" fill="white"/>
</g>
<path id="Vector_4" d="M4.05371 11.0084C4.05371 11.0084 7.28422 12.9149 12.6861 13.0032C18.0879 13.0915 20.8771 9.89627 21.2655 9.24311C20.8947 8.73117 20.0121 8.53698 19.4119 8.66055C18.8117 8.80178 18.3174 9.17249 17.8584 9.54321C17.3994 9.91392 16.9228 10.3023 16.3403 10.4788C14.8397 10.9555 13.1274 9.93158 11.5739 10.2317C10.6913 10.4082 9.94984 10.9731 9.04953 11.0261C8.16688 11.079 7.31953 10.6024 6.45453 10.3552C5.58953 10.1258 4.42443 10.2317 4.05371 11.0084Z" fill="#DBDBDB"/>
</g>
</g>
</g>
</g>
</g>
</svg>
