<svg width="24" height="22" viewBox="0 0 24 22" fill="none" xmlns="http://www.w3.org/2000/svg">
<g clip-path="url(#clip0_286_155)">
<path d="M11.9367 11.8103V10.8714C11.9367 10.7181 11.8025 10.584 11.6492 10.584C11.4959 10.584 11.3618 10.7181 11.3618 10.8714V11.8295C11.5534 11.7912 11.745 11.8103 11.9367 11.8103Z" fill="white"/>
<path d="M11.381 11.9829V15.2213V16.7925C11.381 17.0032 11.3235 17.1757 11.2277 17.2715C11.0552 17.4248 10.787 17.4248 10.787 17.4248H10.7678C10.5954 17.4248 10.4612 17.3865 10.3846 17.2907C10.2121 17.1182 10.2121 16.7733 10.2121 16.6583C10.2313 16.505 10.1163 16.3709 9.96302 16.3517C9.80973 16.3326 9.67559 16.4476 9.65643 16.6008C9.65643 16.6583 9.61811 17.2523 9.98218 17.6547C10.1738 17.8655 10.4421 17.9805 10.7678 17.9805C10.787 17.9805 10.8061 17.9805 10.8253 17.9805C10.9786 17.9805 11.3427 17.9422 11.6301 17.6931C11.86 17.4823 11.975 17.1757 11.975 16.7925V15.2213V11.9829C11.7451 11.9829 11.5534 11.9637 11.381 11.9829Z" fill="#C4C4C4"/>
<path d="M11.2277 17.2717C11.3235 17.1759 11.381 17.0034 11.381 16.7926V15.2214H11.975V16.7926C11.975 17.1759 11.86 17.4824 11.6301 17.6932C11.3427 17.9423 10.9786 17.9806 10.8253 17.9806H10.7678C10.4421 17.9806 10.1738 17.8657 9.98218 17.6549C9.61811 17.2525 9.65643 16.6585 9.65643 16.601C9.67559 16.4477 9.80973 16.3327 9.96302 16.3519C10.1163 16.3711 10.2313 16.5052 10.2121 16.6585C10.2121 16.7735 10.2121 17.1184 10.3846 17.2908C10.4612 17.3866 10.5954 17.425 10.7678 17.425H10.787C10.787 17.425 11.0552 17.425 11.2277 17.2717Z" fill="#FD9999"/>
<path d="M11.4575 5.14233C7.87425 5.23814 5 7.99742 5 10.431C5 10.7184 5 10.8142 5.07665 11.0825C5.07665 11.0825 6.16886 11.1016 8.37246 12.0597C8.50659 9.47287 9.40719 7.67168 10.212 6.5603C10.6527 5.92796 11.0934 5.46808 11.4575 5.14233Z" fill="#FD9999"/>
<path d="M11.7642 5.21899C10.7487 6.11959 8.83249 8.28486 8.64087 12.1172C8.64087 12.1172 10.5187 11.504 14.2744 12.1555C13.6804 6.67528 12.1283 5.44893 11.7642 5.21899Z" fill="#FFDD32"/>
<path d="M12.0898 5.14233C12.703 5.62138 14.006 7.17347 14.5425 12.098C14.5425 12.098 15.9413 11.4657 18.3174 11.1016C18.3366 10.9675 18.3174 10.5651 18.3174 10.431C18.3174 8.05491 15.5581 5.35311 12.0898 5.14233Z" fill="#90E4FF"/>
<path d="M8.56417 12.3665C8.56417 12.4431 8.50668 12.4815 8.4492 12.4815C8.37255 12.4815 8.33423 12.424 8.33423 12.3665C8.33423 12.2898 8.39171 12.2515 8.4492 12.2515C8.50668 12.2324 8.56417 12.2898 8.56417 12.3665Z" fill="white"/>
<path d="M5.30684 11.3125C5.30684 11.3891 5.24936 11.4275 5.19187 11.4275C5.11523 11.4275 5.0769 11.37 5.0769 11.3125C5.0769 11.2358 5.13439 11.1975 5.19187 11.1975C5.24936 11.1975 5.30684 11.255 5.30684 11.3125Z" fill="white"/>
<path d="M14.5044 12.3665C14.5044 12.4431 14.4469 12.4815 14.3894 12.4815C14.3127 12.4815 14.2744 12.424 14.2744 12.3665C14.2744 12.2898 14.3319 12.2515 14.3894 12.2515C14.466 12.2324 14.5044 12.2898 14.5044 12.3665Z" fill="white"/>
<path d="M18.4323 11.3125C18.4323 11.3891 18.3748 11.4275 18.3174 11.4275C18.2407 11.4275 18.2024 11.37 18.2024 11.3125C18.2024 11.2358 18.2599 11.1975 18.3174 11.1975C18.3748 11.1975 18.4323 11.255 18.4323 11.3125Z" fill="white"/>
<path d="M11.6492 5.14217H11.8791L11.8025 4.16492C11.8025 4.16492 11.7641 4.08828 11.7258 4.16492L11.6492 5.14217Z" fill="#C4C4C4"/>
<path d="M19.6014 4.56738C19.6014 4.56738 18.7774 5.14223 18.7583 5.52547C18.7199 5.9087 19.3523 6.10032 19.5056 5.56379C19.6589 5.02726 19.6014 4.56738 19.6014 4.56738ZM19.2948 5.19972C19.2373 5.37217 19.0457 5.31469 19.0457 5.18056C19.0648 5.04642 19.3139 4.87397 19.3139 4.87397C19.3139 4.87397 19.3331 5.02726 19.2948 5.19972Z" fill="#90E4FF"/>
<path d="M14.8108 3.66699C14.8108 3.66699 13.9869 4.24184 13.9677 4.62508C13.9294 5.00831 14.5617 5.19993 14.715 4.6634C14.8683 4.12687 14.8108 3.66699 14.8108 3.66699ZM14.5043 4.31849C14.4468 4.49094 14.2552 4.43346 14.2552 4.29933C14.2743 4.1652 14.5234 3.99274 14.5234 3.99274C14.5234 3.99274 14.5426 4.14603 14.5043 4.31849Z" fill="#90E4FF"/>
<path d="M16.9954 2C16.9954 2 16.1715 2.57485 16.1523 2.95808C16.114 3.34132 16.7463 3.53293 16.8996 2.99641C17.0529 2.45988 16.9954 2 16.9954 2ZM16.6697 2.6515C16.6122 2.82395 16.4206 2.76647 16.4206 2.63234C16.4397 2.4982 16.6888 2.32575 16.6888 2.32575C16.6888 2.32575 16.7272 2.47904 16.6697 2.6515Z" fill="#90E4FF"/>
<path d="M19.1797 7.38452C19.1797 7.38452 18.3558 7.95937 18.3366 8.3426C18.2983 8.72584 18.9306 8.91746 19.0839 8.38093C19.2372 7.8444 19.1797 7.38452 19.1797 7.38452ZM18.854 8.03602C18.7965 8.20847 18.6049 8.15099 18.6049 8.01686C18.6241 7.88272 18.8732 7.71027 18.8732 7.71027C18.8732 7.71027 18.9115 7.86356 18.854 8.03602Z" fill="#90E4FF"/>
<path d="M17.1485 5.14258C17.1485 5.14258 16.3245 5.71743 16.3054 6.10066C16.2671 6.4839 16.8994 6.67551 17.0527 6.13899C17.206 5.60246 17.1485 5.14258 17.1485 5.14258ZM16.8419 5.79408C16.7844 5.96653 16.5928 5.90905 16.5928 5.77491C16.612 5.64078 16.8611 5.46833 16.8611 5.46833C16.8611 5.46833 16.8802 5.62162 16.8419 5.79408Z" fill="#90E4FF"/>
</g>
<defs>
<clipPath id="clip0_286_155">
<rect width="14.6204" height="16" fill="white" transform="translate(5 2)"/>
</clipPath>
</defs>
</svg>
