<svg width="24" height="27" viewBox="0 0 24 27" fill="none" xmlns="http://www.w3.org/2000/svg">
<g clip-path="url(#clip0_254_14270)">
<path d="M11.9367 9.81033V8.87141C11.9367 8.71812 11.8025 8.58398 11.6492 8.58398C11.4959 8.58398 11.3618 8.71812 11.3618 8.87141V9.82949C11.5534 9.79117 11.745 9.81033 11.9367 9.81033Z" fill="white"/>
<path d="M11.381 9.98288V13.2213V14.7925C11.381 15.0032 11.3235 15.1757 11.2277 15.2715C11.0552 15.4248 10.787 15.4248 10.787 15.4248H10.7678C10.5954 15.4248 10.4612 15.3865 10.3846 15.2907C10.2121 15.1182 10.2121 14.7733 10.2121 14.6583C10.2313 14.505 10.1163 14.3709 9.96302 14.3517C9.80973 14.3326 9.67559 14.4476 9.65643 14.6008C9.65643 14.6583 9.61811 15.2523 9.98218 15.6547C10.1738 15.8655 10.4421 15.9805 10.7678 15.9805C10.787 15.9805 10.8061 15.9805 10.8253 15.9805C10.9786 15.9805 11.3427 15.9422 11.6301 15.6931C11.86 15.4823 11.975 15.1757 11.975 14.7925V13.2213V9.98288C11.7451 9.98288 11.5534 9.96372 11.381 9.98288Z" fill="#C4C4C4"/>
<path d="M11.2277 15.2717C11.3235 15.1759 11.381 15.0034 11.381 14.7926V13.2214H11.975V14.7926C11.975 15.1759 11.86 15.4824 11.6301 15.6932C11.3427 15.9423 10.9786 15.9806 10.8253 15.9806H10.7678C10.4421 15.9806 10.1738 15.8657 9.98218 15.6549C9.61811 15.2525 9.65643 14.6585 9.65643 14.601C9.67559 14.4477 9.80973 14.3327 9.96302 14.3519C10.1163 14.3711 10.2313 14.5052 10.2121 14.6585C10.2121 14.7735 10.2121 15.1184 10.3846 15.2908C10.4612 15.3866 10.5954 15.425 10.7678 15.425H10.787C10.787 15.425 11.0552 15.425 11.2277 15.2717Z" fill="#FD9999"/>
<path d="M11.4575 3.14233C7.87425 3.23814 5 5.99742 5 8.43096C5 8.71838 5 8.81419 5.07665 9.08245C5.07665 9.08245 6.16886 9.10162 8.37246 10.0597C8.50659 7.47287 9.40719 5.67168 10.212 4.5603C10.6527 3.92796 11.0934 3.46808 11.4575 3.14233Z" fill="#FD9999"/>
<path d="M11.7642 3.21899C10.7487 4.11959 8.83249 6.28486 8.64087 10.1172C8.64087 10.1172 10.5187 9.50402 14.2744 10.1555C13.6804 4.67528 12.1283 3.44893 11.7642 3.21899Z" fill="#FFDD32"/>
<path d="M12.0898 3.14233C12.703 3.62138 14.006 5.17347 14.5425 10.098C14.5425 10.098 15.9413 9.46569 18.3174 9.10162C18.3366 8.96748 18.3174 8.56509 18.3174 8.43096C18.3174 6.05491 15.5581 3.35311 12.0898 3.14233Z" fill="#90E4FF"/>
<path d="M8.56417 10.3665C8.56417 10.4431 8.50668 10.4815 8.4492 10.4815C8.37255 10.4815 8.33423 10.424 8.33423 10.3665C8.33423 10.2898 8.39171 10.2515 8.4492 10.2515C8.50668 10.2324 8.56417 10.2898 8.56417 10.3665Z" fill="white"/>
<path d="M5.30684 9.31248C5.30684 9.38913 5.24936 9.42745 5.19187 9.42745C5.11523 9.42745 5.0769 9.36996 5.0769 9.31248C5.0769 9.23583 5.13439 9.19751 5.19187 9.19751C5.24936 9.19751 5.30684 9.25499 5.30684 9.31248Z" fill="white"/>
<path d="M14.5044 10.3665C14.5044 10.4431 14.4469 10.4815 14.3894 10.4815C14.3127 10.4815 14.2744 10.424 14.2744 10.3665C14.2744 10.2898 14.3319 10.2515 14.3894 10.2515C14.466 10.2324 14.5044 10.2898 14.5044 10.3665Z" fill="white"/>
<path d="M18.4323 9.31248C18.4323 9.38913 18.3748 9.42745 18.3174 9.42745C18.2407 9.42745 18.2024 9.36996 18.2024 9.31248C18.2024 9.23583 18.2599 9.19751 18.3174 9.19751C18.3748 9.19751 18.4323 9.25499 18.4323 9.31248Z" fill="white"/>
<path d="M11.6492 3.14217H11.8791L11.8025 2.16492C11.8025 2.16492 11.7641 2.08828 11.7258 2.16492L11.6492 3.14217Z" fill="#C4C4C4"/>
<path d="M19.6014 2.56738C19.6014 2.56738 18.7774 3.14223 18.7583 3.52547C18.7199 3.9087 19.3523 4.10032 19.5056 3.56379C19.6589 3.02726 19.6014 2.56738 19.6014 2.56738ZM19.2948 3.19972C19.2373 3.37217 19.0457 3.31469 19.0457 3.18056C19.0648 3.04642 19.3139 2.87397 19.3139 2.87397C19.3139 2.87397 19.3331 3.02726 19.2948 3.19972Z" fill="#90E4FF"/>
<path d="M14.8108 1.66699C14.8108 1.66699 13.9869 2.24184 13.9677 2.62508C13.9294 3.00831 14.5617 3.19993 14.715 2.6634C14.8683 2.12687 14.8108 1.66699 14.8108 1.66699ZM14.5043 2.31849C14.4468 2.49094 14.2552 2.43346 14.2552 2.29933C14.2743 2.1652 14.5234 1.99274 14.5234 1.99274C14.5234 1.99274 14.5426 2.14603 14.5043 2.31849Z" fill="#90E4FF"/>
<path d="M16.9954 0C16.9954 0 16.1715 0.57485 16.1523 0.958084C16.114 1.34132 16.7463 1.53293 16.8996 0.996407C17.0529 0.45988 16.9954 0 16.9954 0ZM16.6697 0.651497C16.6122 0.823952 16.4206 0.766467 16.4206 0.632335C16.4397 0.498204 16.6888 0.325749 16.6888 0.325749C16.6888 0.325749 16.7272 0.479042 16.6697 0.651497Z" fill="#90E4FF"/>
<path d="M19.1797 5.38452C19.1797 5.38452 18.3558 5.95937 18.3366 6.3426C18.2983 6.72584 18.9306 6.91746 19.0839 6.38093C19.2372 5.8444 19.1797 5.38452 19.1797 5.38452ZM18.854 6.03602C18.7965 6.20847 18.6049 6.15099 18.6049 6.01686C18.6241 5.88272 18.8732 5.71027 18.8732 5.71027C18.8732 5.71027 18.9115 5.86356 18.854 6.03602Z" fill="#90E4FF"/>
<path d="M17.1485 3.14258C17.1485 3.14258 16.3245 3.71743 16.3054 4.10066C16.2671 4.4839 16.8994 4.67551 17.0527 4.13899C17.206 3.60246 17.1485 3.14258 17.1485 3.14258ZM16.8419 3.79408C16.7844 3.96653 16.5928 3.90905 16.5928 3.77491C16.612 3.64078 16.8611 3.46833 16.8611 3.46833C16.8611 3.46833 16.8802 3.62162 16.8419 3.79408Z" fill="#90E4FF"/>
</g>
<defs>
<clipPath id="clip0_254_14270">
<rect width="14.6204" height="16" fill="white" transform="translate(5)"/>
</clipPath>
</defs>
</svg>
