<svg width="24" height="27" viewBox="0 0 24 27" fill="none" xmlns="http://www.w3.org/2000/svg">
<g id="Frame 1628">
<g id="Group">
<g id="Group_2">
<g id="Clip path group">
<g id="Group_3">
<path id="Vector" d="M12.7742 13.9916C12.7742 13.9916 6.27787 14.2564 3.31216 11.8202C0.346439 9.36645 3.10032 7.74237 4.79501 8.53676C4.79501 8.53676 3.50634 6.36543 5.2893 5.48277C7.07226 4.60012 8.37859 6.63022 8.37859 6.63022C8.37859 6.63022 7.61951 2.58767 11.2384 2.04042C14.8396 1.49318 16.1636 6.68318 16.1636 6.68318C16.1636 6.68318 20.1179 4.12349 21.8302 7.63645C23.5955 11.2906 17.8406 14.0798 12.7742 13.9916Z" fill="#DBDBDB"/>
<g id="Group_4">
<path id="Vector_2" d="M9.27893 6.41849C9.42016 5.20043 10.0027 4.31778 10.1263 4.00002C10.2498 3.69992 9.86148 3.62931 9.72026 3.80584C9.20832 4.4237 8.92587 5.8536 9.08475 6.40084C9.1024 6.50676 9.24363 6.50676 9.27893 6.41849Z" fill="white"/>
</g>
<g id="Group_5">
<path id="Vector_3" d="M10.4441 3.39999C10.5853 3.38234 11.1502 2.94101 11.2032 2.79979C11.2385 2.69387 11.1855 2.53499 11.0443 2.51734C10.8148 2.49968 10.6383 2.67622 10.5147 2.83509C10.4264 2.95866 10.2675 3.1705 10.3382 3.32938C10.3558 3.38234 10.4088 3.39999 10.4441 3.39999Z" fill="white"/>
</g>
<path id="Vector_4" d="M4.05371 11.0084C4.05371 11.0084 7.28422 12.9149 12.6861 13.0032C18.0879 13.0915 20.8771 9.89627 21.2655 9.24311C20.8947 8.73117 20.0121 8.53698 19.4119 8.66055C18.8117 8.80178 18.3174 9.17249 17.8584 9.54321C17.3994 9.91392 16.9228 10.3023 16.3403 10.4788C14.8397 10.9555 13.1274 9.93158 11.5739 10.2317C10.6913 10.4082 9.94984 10.9731 9.04953 11.0261C8.16688 11.079 7.31953 10.6024 6.45453 10.3552C5.58953 10.1258 4.42443 10.2317 4.05371 11.0084Z" fill="#DBDBDB"/>
</g>
</g>
</g>
</g>
<g id="Group 6365">
<path id="Vector_5" d="M8.49103 16.6807C8.49103 16.6807 7.45362 18.4858 8.24206 18.4858C9.03049 18.4858 8.49103 16.6807 8.49103 16.6807Z" fill="#90E3FF"/>
<path id="Vector_6" d="M5.54475 15.1245C5.54475 15.1245 4.50733 16.9296 5.29577 16.9296C6.10495 16.9296 5.54475 15.1245 5.54475 15.1245Z" fill="#90E3FF"/>
<path id="Vector_7" d="M11.4578 15.8921C11.4578 15.8921 10.4204 17.6972 11.2089 17.6972C12.018 17.6972 11.4578 15.8921 11.4578 15.8921Z" fill="#90E3FF"/>
<path id="Vector_8" d="M17.8692 15.166C17.8692 15.166 16.8318 16.9711 17.6202 16.9711C18.4087 16.9711 17.8692 15.166 17.8692 15.166Z" fill="#90E3FF"/>
<path id="Vector_9" d="M12.931 18.6516C12.931 18.6516 11.8936 20.4567 12.682 20.4567C13.4912 20.4567 12.931 18.6516 12.931 18.6516Z" fill="#90E3FF"/>
<path id="Vector_10" d="M11.8524 22.0129C11.8524 22.0129 10.8149 23.818 11.6034 23.818C12.3918 23.7973 11.8524 22.0129 11.8524 22.0129Z" fill="#90E3FF"/>
<path id="Vector_11" d="M17.1014 22.656C17.1014 22.656 16.064 24.4611 16.8524 24.4611C17.6408 24.4611 17.1014 22.656 17.1014 22.656Z" fill="#90E3FF"/>
<path id="Vector_12" d="M9.96418 19.4194C9.96418 19.4194 8.92677 21.2245 9.7152 21.2245C10.5036 21.2245 9.96418 19.4194 9.96418 19.4194Z" fill="#90E3FF"/>
<path id="Vector_13" d="M8.98883 22.905C8.98883 22.905 7.95143 24.7101 8.73986 24.7101C9.52829 24.7101 8.98883 22.905 8.98883 22.905Z" fill="#90E3FF"/>
<path id="Vector_14" d="M6.47834 19.6685C6.47834 19.6685 5.44093 21.4736 6.22936 21.4736C7.01779 21.4736 6.47834 19.6685 6.47834 19.6685Z" fill="#90E3FF"/>
<path id="Vector_15" d="M14.7777 15.8716C14.7777 15.8716 13.7402 17.6767 14.5287 17.6767C15.3171 17.6767 14.7777 15.8716 14.7777 15.8716Z" fill="#90E3FF"/>
<path id="Vector_16" d="M14.2798 22.656C14.2798 22.656 13.2424 24.4611 14.0309 24.4611C14.8401 24.4611 14.2798 22.656 14.2798 22.656Z" fill="#90E3FF"/>
<path id="Vector_17" d="M16.002 19.0251C16.002 19.0251 14.9646 20.8302 15.753 20.8302C16.5622 20.8302 16.002 19.0251 16.002 19.0251Z" fill="#90E3FF"/>
<path id="Vector_18" d="M20.857 15C20.857 15 19.8196 16.8051 20.608 16.8051C21.3965 16.8051 20.857 15 20.857 15Z" fill="#90E3FF"/>
<path id="Vector_19" d="M19.0106 19.0251C19.0106 19.0251 17.9732 20.8302 18.7616 20.8302C19.5708 20.8302 19.0106 19.0251 19.0106 19.0251Z" fill="#90E3FF"/>
</g>
</g>
</svg>
