<svg width="24" height="27" viewBox="0 0 24 27" fill="none" xmlns="http://www.w3.org/2000/svg">
<g id="Frame 1669">
<path id="Union" fill-rule="evenodd" clip-rule="evenodd" d="M9.55716 4C9.75578 4 9.9168 4.15745 9.9168 4.35167V5.46225L10.4675 5.15276C10.6397 5.05599 10.8596 5.11405 10.9585 5.28244C11.0575 5.45083 10.9981 5.66579 10.8259 5.76257L9.9168 6.27345V7.90655C9.9168 7.91498 9.91649 7.92333 9.9159 7.93161C10.0406 7.963 10.162 8.01102 10.2765 8.07568L10.9369 8.4485C11.0523 8.51368 11.1563 8.5932 11.2469 8.68401L12.6795 8.05119L12.786 6.98431C12.8053 6.791 12.9812 6.6496 13.1788 6.66846C13.3765 6.68733 13.5211 6.85932 13.5018 7.05262L13.4355 7.71723L14.4922 7.25043C14.6732 7.17047 14.8863 7.24913 14.968 7.42613C15.0498 7.60313 14.9693 7.81143 14.7883 7.89139L13.7533 8.34861L14.2684 8.71194C14.4295 8.82556 14.4659 9.04536 14.3497 9.20287C14.2335 9.36039 14.0087 9.39598 13.8477 9.28236L12.9973 8.68257L11.6057 9.29731C11.6388 9.41616 11.6561 9.54023 11.6561 9.66671V10.4124C11.6561 10.5621 11.6318 10.7085 11.5858 10.8468L12.8706 11.7492L13.8689 11.3059C14.0498 11.2256 14.263 11.3038 14.3451 11.4807C14.4272 11.6575 14.3472 11.866 14.1664 11.9463L13.5444 12.2225L14.4863 12.884C14.6476 12.9973 14.6845 13.2171 14.5686 13.3748C14.4527 13.5326 14.228 13.5686 14.0667 13.4553L13.1443 12.8074L13.0801 13.4253C13.06 13.6185 12.8835 13.7592 12.6859 13.7396C12.4883 13.72 12.3444 13.5474 12.3645 13.3542L12.4705 12.3342L11.1989 11.441C11.1201 11.5129 11.0324 11.5766 10.9369 11.6306L10.2765 12.0034C10.1496 12.075 10.0143 12.1263 9.87535 12.157V13.7032L10.8259 14.2373C10.9981 14.3341 11.0575 14.5491 10.9585 14.7175C10.8596 14.8859 10.6397 14.9439 10.4675 14.8471L9.87535 14.5144V15.6483C9.87535 15.8426 9.71433 16 9.51571 16C9.31709 16 9.15608 15.8426 9.15608 15.6483V14.5377L8.60535 14.8471C8.43314 14.9439 8.21331 14.8859 8.11434 14.7175C8.01538 14.5491 8.07475 14.3341 8.24696 14.2373L9.15608 13.7265V12.1361C9.0463 12.1049 8.93945 12.0607 8.83796 12.0034L8.17758 11.6306C8.05965 11.564 7.95373 11.4825 7.86172 11.3892C7.84873 11.397 7.83509 11.4041 7.82083 11.4104L6.32054 12.0732L6.21403 13.1402C6.19474 13.3335 6.01885 13.475 5.82117 13.4561C5.62349 13.4372 5.47888 13.2652 5.49817 13.0719L5.56452 12.4071L4.50778 12.874C4.32677 12.9539 4.11375 12.8752 4.03198 12.6982C3.95021 12.5212 4.03066 12.3129 4.21166 12.233L5.24662 11.7758L4.73158 11.4125C4.57049 11.2989 4.5341 11.0791 4.65029 10.9216C4.76648 10.7641 4.99126 10.7285 5.15235 10.8421L6.00263 11.4418L7.50747 10.7771C7.47523 10.6596 7.45831 10.5372 7.45831 10.4124V9.66671C7.45831 9.55342 7.47224 9.44208 7.49893 9.33468C7.48784 9.32852 7.47698 9.32173 7.46639 9.31429L6.12938 8.37522L5.13108 8.81857C4.95023 8.89888 4.73705 8.82063 4.65492 8.64379C4.57279 8.46696 4.65281 8.2585 4.83365 8.17818L5.4556 7.90198L4.51371 7.24043C4.35239 7.12713 4.31555 6.9074 4.43142 6.74965C4.54729 6.59191 4.772 6.55588 4.93332 6.66919L5.85571 7.31704L5.91992 6.69926C5.94 6.50604 6.11647 6.36532 6.31407 6.38496C6.51167 6.4046 6.65558 6.57715 6.6355 6.77038L6.52949 7.79028L7.84091 8.71138C7.93764 8.60913 8.05066 8.52015 8.17758 8.4485L8.83796 8.07568C8.95245 8.01104 9.07378 7.96303 9.19843 7.93164C9.19783 7.92336 9.19753 7.91499 9.19753 7.90655V6.29675L8.24696 5.76257C8.07475 5.66579 8.01538 5.45083 8.11434 5.28244C8.21331 5.11405 8.43314 5.05599 8.60535 5.15276L9.19753 5.48554V4.35167C9.19753 4.15745 9.35854 4 9.55716 4ZM10.4574 9.26064L9.79698 8.88781C9.64862 8.80406 9.46583 8.80406 9.31747 8.88781L8.65709 9.26064C8.50873 9.3444 8.41733 9.49919 8.41733 9.66671V10.4124C8.41733 10.5799 8.50873 10.7347 8.65709 10.8184L9.31747 11.1912C9.46583 11.275 9.64862 11.275 9.79698 11.1912L10.4574 10.8184C10.6057 10.7347 10.6971 10.5799 10.6971 10.4124V9.66671C10.6971 9.49919 10.6057 9.3444 10.4574 9.26064Z" fill="#A2E9F3"/>
<path id="Union_2" fill-rule="evenodd" clip-rule="evenodd" d="M17.0312 0C17.1395 0 17.2273 0.0918435 17.2273 0.205138V0.85298L17.5277 0.672445C17.6217 0.615994 17.7416 0.649861 17.7956 0.74809C17.8495 0.84632 17.8172 0.971713 17.7232 1.02816L17.2273 1.32618V2.27882C17.2273 2.28374 17.2272 2.28861 17.2269 2.29344C17.2949 2.31175 17.3611 2.33976 17.4235 2.37748L17.7837 2.59496C17.8467 2.63298 17.9034 2.67937 17.9529 2.73234L18.7343 2.3632L18.7923 1.74084C18.8029 1.62809 18.8988 1.5456 19.0066 1.5566C19.1145 1.56761 19.1933 1.66794 19.1828 1.7807L19.1466 2.16838L19.723 1.89608C19.8218 1.84944 19.938 1.89533 19.9826 1.99858C20.0272 2.10182 19.9833 2.22333 19.8845 2.26998L19.32 2.53669L19.601 2.74863C19.6888 2.81491 19.7087 2.94312 19.6453 3.03501C19.5819 3.1269 19.4593 3.14765 19.3714 3.08138L18.9076 2.7315L18.1486 3.09009C18.1666 3.15943 18.1761 3.2318 18.1761 3.30558V3.74054C18.1761 3.8279 18.1628 3.91329 18.1377 3.99399L18.8385 4.52039L19.383 4.26177C19.4817 4.21493 19.598 4.26057 19.6428 4.36373C19.6876 4.46688 19.6439 4.58848 19.5453 4.63533L19.206 4.79645L19.7198 5.18235C19.8078 5.24845 19.8279 5.37662 19.7647 5.46864C19.7015 5.56066 19.5789 5.58167 19.4909 5.51558L18.9878 5.13767L18.9528 5.49809C18.9418 5.6108 18.8456 5.69289 18.7378 5.68143C18.63 5.66997 18.5515 5.56932 18.5625 5.4566L18.6203 4.86161L17.9266 4.34059C17.8837 4.3825 17.8359 4.4197 17.7837 4.45116L17.4235 4.66864C17.3543 4.71044 17.2805 4.74031 17.2047 4.75827V5.66018L17.7232 5.97178C17.8172 6.02823 17.8495 6.15363 17.7956 6.25186C17.7416 6.35009 17.6217 6.38395 17.5277 6.3275L17.2047 6.13338V6.79486C17.2047 6.90816 17.1169 7 17.0086 7C16.9002 7 16.8124 6.90816 16.8124 6.79486V6.14697L16.512 6.3275C16.4181 6.38395 16.2982 6.35009 16.2442 6.25186C16.1902 6.15363 16.2226 6.02823 16.3165 5.97178L16.8124 5.67377V4.74605C16.7525 4.72786 16.6942 4.70206 16.6389 4.66864L16.2787 4.45116C16.2144 4.41232 16.1566 4.36476 16.1064 4.31037C16.0993 4.31493 16.0919 4.31908 16.0841 4.32275L15.2657 4.70935L15.2077 5.33181C15.1971 5.44457 15.1012 5.52706 14.9934 5.51605C14.8855 5.50505 14.8067 5.40472 14.8172 5.29196L14.8534 4.90416L14.277 5.17647C14.1782 5.22311 14.062 5.17723 14.0174 5.07398C13.9728 4.97073 14.0167 4.84922 14.1155 4.80258L14.68 4.53588L14.399 4.32397C14.3112 4.2577 14.2913 4.12948 14.3547 4.03759C14.4181 3.94571 14.5407 3.92495 14.6286 3.99123L15.0923 4.34107L15.9132 3.9533C15.8956 3.8848 15.8864 3.81335 15.8864 3.74054V3.30558C15.8864 3.2395 15.894 3.17455 15.9085 3.11189C15.9025 3.1083 15.8965 3.10434 15.8908 3.1L15.1615 2.55221L14.617 2.81083C14.5183 2.85768 14.402 2.81203 14.3572 2.70888C14.3124 2.60572 14.3561 2.48412 14.4547 2.43727L14.794 2.27615L14.2802 1.89025C14.1922 1.82416 14.1721 1.69598 14.2353 1.60396C14.2985 1.51195 14.4211 1.49093 14.5091 1.55703L15.0122 1.93494L15.0472 1.57457C15.0582 1.46186 15.1544 1.37977 15.2622 1.39123C15.37 1.40268 15.4485 1.50334 15.4375 1.61605L15.3797 2.211L16.095 2.74831C16.1478 2.68866 16.2095 2.63676 16.2787 2.59496L16.6389 2.37748C16.7013 2.33977 16.7675 2.31177 16.8355 2.29346C16.8352 2.28862 16.835 2.28374 16.835 2.27882V1.33977L16.3165 1.02816C16.2226 0.971713 16.1902 0.84632 16.2442 0.74809C16.2982 0.649861 16.4181 0.615994 16.512 0.672445L16.835 0.866567V0.205138C16.835 0.0918435 16.9228 0 17.0312 0ZM17.5222 3.06871L17.162 2.85122C17.0811 2.80237 16.9814 2.80237 16.9004 2.85122L16.5402 3.06871C16.4593 3.11756 16.4095 3.20786 16.4095 3.30558V3.74054C16.4095 3.83826 16.4593 3.92855 16.5402 3.97741L16.9004 4.19489C16.9814 4.24375 17.0811 4.24375 17.162 4.19489L17.5222 3.97741C17.6031 3.92855 17.653 3.83826 17.653 3.74054V3.30558C17.653 3.20786 17.6031 3.11756 17.5222 3.06871Z" fill="#A2E9F3"/>
</g>
</svg>
