<svg width="24" height="27" viewBox="0 0 24 27" fill="none" xmlns="http://www.w3.org/2000/svg">
<g id="Frame 1629">
<path id="Union" fill-rule="evenodd" clip-rule="evenodd" d="M6.51559 13C6.56976 13 6.61367 13.0443 6.61367 13.0989V13.4113L6.76387 13.3242C6.81084 13.297 6.87079 13.3133 6.89778 13.3607C6.92477 13.408 6.90858 13.4685 6.86161 13.4957L6.61367 13.6394V14.0987C6.61367 14.1011 6.61359 14.1034 6.61343 14.1058C6.64743 14.1146 6.68053 14.1281 6.71177 14.1463L6.89187 14.2511C6.92336 14.2695 6.95171 14.2918 6.97644 14.3174L7.36713 14.1394L7.39617 13.8393C7.40143 13.785 7.4494 13.7452 7.50332 13.7505C7.55723 13.7558 7.59667 13.8042 7.59141 13.8586L7.57332 14.0455L7.86151 13.9142C7.91088 13.8917 7.96898 13.9138 7.99128 13.9636C8.01358 14.0134 7.99164 14.072 7.94227 14.0945L7.65999 14.223L7.80048 14.3252C7.84441 14.3572 7.85434 14.419 7.82265 14.4633C7.79096 14.5076 7.72966 14.5176 7.68572 14.4857L7.45381 14.317L7.07428 14.4899C7.0833 14.5233 7.08804 14.5582 7.08804 14.5938V14.8035C7.08804 14.8456 7.0814 14.8868 7.06886 14.9257L7.41926 15.1795L7.69152 15.0548C7.74085 15.0322 7.79899 15.0542 7.82139 15.1039C7.84379 15.1537 7.82196 15.2123 7.77264 15.2349L7.60302 15.3126L7.8599 15.4986C7.90389 15.5305 7.91394 15.5923 7.88234 15.6367C7.85074 15.681 7.78946 15.6912 7.74546 15.6593L7.4939 15.4771L7.47639 15.6509C7.47091 15.7052 7.42278 15.7448 7.36889 15.7393C7.315 15.7337 7.27575 15.6852 7.28123 15.6309L7.31014 15.344L6.96332 15.0928C6.94184 15.113 6.91793 15.1309 6.89187 15.1461L6.71177 15.251C6.67716 15.2711 6.64025 15.2855 6.60237 15.2942V15.729L6.86161 15.8793C6.90858 15.9065 6.92477 15.9669 6.89778 16.0143C6.87079 16.0616 6.81084 16.078 6.76387 16.0508L6.60237 15.9572V16.2761C6.60237 16.3307 6.55845 16.375 6.50429 16.375C6.45012 16.375 6.4062 16.3307 6.4062 16.2761V15.9637L6.256 16.0508C6.20904 16.078 6.14908 16.0616 6.12209 16.0143C6.0951 15.9669 6.1113 15.9065 6.15826 15.8793L6.4062 15.7356V15.2883C6.37626 15.2795 6.34712 15.2671 6.31944 15.251L6.13934 15.1461C6.10718 15.1274 6.07829 15.1044 6.0532 15.0782C6.04965 15.0804 6.04593 15.0824 6.04204 15.0842L5.63287 15.2706L5.60383 15.5707C5.59857 15.6251 5.5506 15.6648 5.49668 15.6595C5.44277 15.6542 5.40333 15.6058 5.40859 15.5515L5.42669 15.3645L5.13849 15.4958C5.08912 15.5183 5.03102 15.4962 5.00872 15.4464C4.98642 15.3966 5.00836 15.338 5.05773 15.3155L5.33999 15.1869L5.19952 15.0848C5.15559 15.0528 5.14566 14.991 5.17735 14.9467C5.20904 14.9024 5.27034 14.8924 5.31428 14.9243L5.54617 15.093L5.95658 14.9061C5.94779 14.873 5.94318 14.8386 5.94318 14.8035V14.5938C5.94318 14.5619 5.94698 14.5306 5.95425 14.5004C5.95123 14.4986 5.94827 14.4967 5.94538 14.4946L5.58074 14.2305L5.30848 14.3552C5.25915 14.3778 5.20101 14.3558 5.17861 14.3061C5.15621 14.2563 5.17804 14.1977 5.22736 14.1751L5.39698 14.0974L5.1401 13.9114C5.09611 13.8795 5.08606 13.8177 5.11766 13.7733C5.14926 13.729 5.21055 13.7188 5.25454 13.7507L5.5061 13.9329L5.52361 13.7592C5.52909 13.7048 5.57722 13.6652 5.63111 13.6708C5.685 13.6763 5.72425 13.7248 5.71877 13.7792L5.68986 14.066L6.04752 14.3251C6.0739 14.2963 6.10473 14.2713 6.13934 14.2511L6.31944 14.1463C6.35067 14.1281 6.38376 14.1146 6.41775 14.1058C6.41759 14.1034 6.41751 14.1011 6.41751 14.0987V13.646L6.15826 13.4957C6.1113 13.4685 6.0951 13.408 6.12209 13.3607C6.14908 13.3133 6.20904 13.297 6.256 13.3242L6.41751 13.4178V13.0989C6.41751 13.0443 6.46142 13 6.51559 13ZM6.7611 14.4796L6.58099 14.3747C6.54053 14.3511 6.49068 14.3511 6.45022 14.3747L6.27012 14.4796C6.22965 14.5031 6.20473 14.5466 6.20473 14.5938V14.8035C6.20473 14.8506 6.22965 14.8941 6.27012 14.9177L6.45022 15.0225C6.49068 15.0461 6.54053 15.0461 6.58099 15.0225L6.7611 14.9177C6.80156 14.8941 6.82649 14.8506 6.82649 14.8035V14.5938C6.82649 14.5466 6.80156 14.5031 6.7611 14.4796Z" fill="#B6ECF4"/>
<g id="Group">
<g id="Group_2">
<g id="Clip path group">
<g id="Group_3">
<path id="Vector" d="M12.7742 13.9916C12.7742 13.9916 6.27787 14.2564 3.31216 11.8202C0.346439 9.36645 3.10032 7.74237 4.79501 8.53676C4.79501 8.53676 3.50634 6.36543 5.2893 5.48277C7.07226 4.60012 8.37859 6.63022 8.37859 6.63022C8.37859 6.63022 7.61951 2.58767 11.2384 2.04042C14.8396 1.49318 16.1636 6.68318 16.1636 6.68318C16.1636 6.68318 20.1179 4.12349 21.8302 7.63645C23.5955 11.2906 17.8406 14.0798 12.7742 13.9916Z" fill="#E9E9E9"/>
<g id="Group_4">
<path id="Vector_2" d="M9.27893 6.41849C9.42016 5.20043 10.0027 4.31778 10.1263 4.00002C10.2498 3.69992 9.86148 3.62931 9.72026 3.80584C9.20832 4.4237 8.92587 5.8536 9.08475 6.40084C9.1024 6.50676 9.24363 6.50676 9.27893 6.41849Z" fill="white"/>
</g>
<g id="Group_5">
<path id="Vector_3" d="M10.4441 3.39999C10.5853 3.38234 11.1502 2.94101 11.2032 2.79979C11.2385 2.69387 11.1855 2.53499 11.0443 2.51734C10.8148 2.49968 10.6383 2.67622 10.5147 2.83509C10.4264 2.95866 10.2675 3.1705 10.3382 3.32938C10.3558 3.38234 10.4088 3.39999 10.4441 3.39999Z" fill="white"/>
</g>
<path id="Vector_4" d="M4.05371 11.0084C4.05371 11.0084 7.28422 12.9149 12.6861 13.0032C18.0879 13.0915 20.8771 9.89627 21.2655 9.24311C20.8947 8.73117 20.0121 8.53698 19.4119 8.66055C18.8117 8.80178 18.3174 9.17249 17.8584 9.54321C17.3994 9.91392 16.9228 10.3023 16.3403 10.4788C14.8397 10.9555 13.1274 9.93158 11.5739 10.2317C10.6913 10.4082 9.94984 10.9731 9.04953 11.0261C8.16688 11.079 7.31953 10.6024 6.45453 10.3552C5.58953 10.1258 4.42443 10.2317 4.05371 11.0084Z" fill="#E9E9E9"/>
</g>
</g>
</g>
</g>
<path id="Union_2" fill-rule="evenodd" clip-rule="evenodd" d="M6.02079 18C6.09301 18 6.15156 18.059 6.15156 18.1319V18.5483L6.35183 18.4323C6.41445 18.396 6.49439 18.4178 6.53038 18.4809C6.56636 18.5441 6.54477 18.6247 6.48215 18.661L6.15156 18.8525V19.465C6.15156 19.4681 6.15145 19.4713 6.15123 19.4744C6.19658 19.4861 6.24071 19.5041 6.28236 19.5284L6.5225 19.6682C6.56448 19.6926 6.60228 19.7225 6.63525 19.7565L7.15617 19.5192L7.1949 19.1191C7.20191 19.0466 7.26587 18.9936 7.33776 19.0007C7.40964 19.0077 7.46223 19.0722 7.45521 19.1447L7.43109 19.394L7.81535 19.2189C7.88117 19.1889 7.95864 19.2184 7.98837 19.2848C8.01811 19.3512 7.98885 19.4293 7.92303 19.4593L7.54666 19.6307L7.73397 19.767C7.79255 19.8096 7.80578 19.892 7.76353 19.9511C7.72128 20.0101 7.63954 20.0235 7.58096 19.9809L7.27174 19.756L6.7657 19.9865C6.77773 20.0311 6.78405 20.0776 6.78405 20.125V20.4046C6.78405 20.4608 6.7752 20.5157 6.75848 20.5676L7.22568 20.906L7.5887 20.7397C7.65446 20.7096 7.73198 20.7389 7.76185 20.8053C7.79171 20.8716 7.76262 20.9497 7.69685 20.9799L7.47069 21.0834L7.8132 21.3315C7.87186 21.374 7.88525 21.4564 7.84312 21.5156C7.80098 21.5747 7.71927 21.5882 7.66061 21.5457L7.3252 21.3028L7.30185 21.5345C7.29455 21.6069 7.23038 21.6597 7.15852 21.6523C7.08666 21.645 7.03433 21.5803 7.04164 21.5078L7.08019 21.1253L6.61776 20.7904C6.58912 20.8173 6.55724 20.8412 6.5225 20.8615L6.28236 21.0013C6.23621 21.0281 6.18701 21.0473 6.13649 21.0589V21.6387L6.48215 21.839C6.54477 21.8753 6.56636 21.9559 6.53038 22.0191C6.49439 22.0822 6.41445 22.104 6.35183 22.0677L6.13649 21.9429V22.3681C6.13649 22.441 6.07794 22.5 6.00571 22.5C5.93349 22.5 5.87494 22.441 5.87494 22.3681V21.9516L5.67467 22.0677C5.61205 22.104 5.53211 22.0822 5.49612 22.0191C5.46014 21.9559 5.48173 21.8753 5.54435 21.839L5.87494 21.6474V21.051C5.83502 21.0393 5.79616 21.0228 5.75926 21.0013L5.51912 20.8615C5.47624 20.8365 5.43772 20.8059 5.40426 20.771C5.39954 20.7739 5.39458 20.7765 5.38939 20.7789L4.84383 21.0274L4.8051 21.4276C4.79809 21.5001 4.73413 21.5531 4.66224 21.546C4.59036 21.539 4.53777 21.4745 4.54479 21.402L4.56892 21.1527L4.18465 21.3277C4.11883 21.3577 4.04136 21.3282 4.01163 21.2618C3.98189 21.1955 4.01115 21.1174 4.07697 21.0874L4.45332 20.9159L4.26603 20.7797C4.20745 20.7371 4.19422 20.6547 4.23647 20.5956C4.27872 20.5365 4.36046 20.5232 4.41904 20.5658L4.72823 20.7907L5.27545 20.5414C5.26372 20.4974 5.25757 20.4514 5.25757 20.4046V20.125C5.25757 20.0825 5.26263 20.0408 5.27234 20.0005C5.26831 19.9982 5.26436 19.9956 5.26051 19.9929L4.77432 19.6407L4.4113 19.807C4.34554 19.8371 4.26802 19.8077 4.23815 19.7414C4.20829 19.6751 4.23738 19.5969 4.30315 19.5668L4.52931 19.4632L4.1868 19.2152C4.12814 19.1727 4.11475 19.0903 4.15688 19.0311C4.19902 18.972 4.28073 18.9585 4.33939 19.0009L4.6748 19.2439L4.69815 19.0122C4.70545 18.9398 4.76963 18.887 4.84148 18.8944C4.91334 18.9017 4.96567 18.9664 4.95836 19.0389L4.91981 19.4214L5.3967 19.7668C5.43187 19.7284 5.47297 19.6951 5.51912 19.6682L5.75926 19.5284C5.80089 19.5041 5.84501 19.4861 5.89034 19.4744C5.89012 19.4713 5.89001 19.4681 5.89001 19.465V18.8613L5.54435 18.661C5.48173 18.6247 5.46014 18.5441 5.49612 18.4809C5.53211 18.4178 5.61205 18.396 5.67467 18.4323L5.89001 18.5571V18.1319C5.89001 18.059 5.94856 18 6.02079 18ZM6.34813 19.9727L6.10799 19.8329C6.05404 19.8015 5.98757 19.8015 5.93362 19.8329L5.69349 19.9727C5.63954 20.0041 5.6063 20.0622 5.6063 20.125V20.4046C5.6063 20.4675 5.63954 20.5255 5.69349 20.5569L5.93362 20.6967C5.98757 20.7281 6.05404 20.7281 6.10799 20.6967L6.34813 20.5569C6.40208 20.5255 6.43531 20.4675 6.43531 20.4046V20.125C6.43531 20.0622 6.40208 20.0041 6.34813 19.9727Z" fill="#B6ECF4"/>
<path id="Union_3" fill-rule="evenodd" clip-rule="evenodd" d="M15.5156 16C15.5698 16 15.6137 16.0443 15.6137 16.0989V16.4113L15.7639 16.3242C15.8108 16.297 15.8708 16.3133 15.8978 16.3607C15.9248 16.408 15.9086 16.4685 15.8616 16.4957L15.6137 16.6394V17.0987C15.6137 17.1011 15.6136 17.1034 15.6134 17.1058C15.6474 17.1146 15.6805 17.1281 15.7118 17.1463L15.8919 17.2511C15.9234 17.2695 15.9517 17.2918 15.9764 17.3174L16.3671 17.1394L16.3962 16.8393C16.4014 16.785 16.4494 16.7452 16.5033 16.7505C16.5572 16.7558 16.5967 16.8042 16.5914 16.8586L16.5733 17.0455L16.8615 16.9142C16.9109 16.8917 16.969 16.9138 16.9913 16.9636C17.0136 17.0134 16.9916 17.072 16.9423 17.0945L16.66 17.223L16.8005 17.3252C16.8444 17.3572 16.8543 17.419 16.8226 17.4633C16.791 17.5076 16.7297 17.5176 16.6857 17.4857L16.4538 17.317L16.0743 17.4899C16.0833 17.5233 16.088 17.5582 16.088 17.5938V17.8035C16.088 17.8456 16.0814 17.8868 16.0689 17.9257L16.4193 18.1795L16.6915 18.0548C16.7408 18.0322 16.799 18.0542 16.8214 18.1039C16.8438 18.1537 16.822 18.2123 16.7726 18.2349L16.603 18.3126L16.8599 18.4986C16.9039 18.5305 16.9139 18.5923 16.8823 18.6367C16.8507 18.681 16.7895 18.6912 16.7455 18.6593L16.4939 18.4771L16.4764 18.6509C16.4709 18.7052 16.4228 18.7448 16.3689 18.7393C16.315 18.7337 16.2758 18.6852 16.2812 18.6309L16.3101 18.344L15.9633 18.0928C15.9418 18.113 15.9179 18.1309 15.8919 18.1461L15.7118 18.251C15.6772 18.2711 15.6403 18.2855 15.6024 18.2942V18.729L15.8616 18.8793C15.9086 18.9065 15.9248 18.9669 15.8978 19.0143C15.8708 19.0616 15.8108 19.078 15.7639 19.0508L15.6024 18.9572V19.2761C15.6024 19.3307 15.5585 19.375 15.5043 19.375C15.4501 19.375 15.4062 19.3307 15.4062 19.2761V18.9637L15.256 19.0508C15.209 19.078 15.1491 19.0616 15.1221 19.0143C15.0951 18.9669 15.1113 18.9065 15.1583 18.8793L15.4062 18.7356V18.2883C15.3763 18.2795 15.3471 18.2671 15.3194 18.251L15.1393 18.1461C15.1072 18.1274 15.0783 18.1044 15.0532 18.0782C15.0497 18.0804 15.0459 18.0824 15.042 18.0842L14.6329 18.2706L14.6038 18.5707C14.5986 18.6251 14.5506 18.6648 14.4967 18.6595C14.4428 18.6542 14.4033 18.6058 14.4086 18.5515L14.4267 18.3645L14.1385 18.4958C14.0891 18.5183 14.031 18.4962 14.0087 18.4464C13.9864 18.3966 14.0084 18.338 14.0577 18.3155L14.34 18.1869L14.1995 18.0848C14.1556 18.0528 14.1457 17.991 14.1774 17.9467C14.209 17.9024 14.2703 17.8924 14.3143 17.9243L14.5462 18.093L14.9566 17.9061C14.9478 17.873 14.9432 17.8386 14.9432 17.8035V17.5938C14.9432 17.5619 14.947 17.5306 14.9543 17.5004C14.9512 17.4986 14.9483 17.4967 14.9454 17.4946L14.5807 17.2305L14.3085 17.3552C14.2592 17.3778 14.201 17.3558 14.1786 17.3061C14.1562 17.2563 14.178 17.1977 14.2274 17.1751L14.397 17.0974L14.1401 16.9114C14.0961 16.8795 14.0861 16.8177 14.1177 16.7733C14.1493 16.729 14.2105 16.7188 14.2545 16.7507L14.5061 16.9329L14.5236 16.7592C14.5291 16.7048 14.5772 16.6652 14.6311 16.6708C14.685 16.6763 14.7242 16.7248 14.7188 16.7792L14.6899 17.066L15.0475 17.3251C15.0739 17.2963 15.1047 17.2713 15.1393 17.2511L15.3194 17.1463C15.3507 17.1281 15.3838 17.1146 15.4178 17.1058C15.4176 17.1034 15.4175 17.1011 15.4175 17.0987V16.646L15.1583 16.4957C15.1113 16.4685 15.0951 16.408 15.1221 16.3607C15.1491 16.3133 15.209 16.297 15.256 16.3242L15.4175 16.4178V16.0989C15.4175 16.0443 15.4614 16 15.5156 16ZM15.7611 17.4796L15.581 17.3747C15.5405 17.3511 15.4907 17.3511 15.4502 17.3747L15.2701 17.4796C15.2297 17.5031 15.2047 17.5466 15.2047 17.5938V17.8035C15.2047 17.8506 15.2297 17.8941 15.2701 17.9177L15.4502 18.0225C15.4907 18.0461 15.5405 18.0461 15.581 18.0225L15.7611 17.9177C15.8016 17.8941 15.8265 17.8506 15.8265 17.8035V17.5938C15.8265 17.5466 15.8016 17.5031 15.7611 17.4796Z" fill="#B6ECF4"/>
<path id="Union_4" fill-rule="evenodd" clip-rule="evenodd" d="M10.5156 23C10.5698 23 10.6137 23.0443 10.6137 23.0989V23.4113L10.7639 23.3242C10.8108 23.297 10.8708 23.3133 10.8978 23.3607C10.9248 23.408 10.9086 23.4685 10.8616 23.4957L10.6137 23.6394V24.0987C10.6137 24.1011 10.6136 24.1034 10.6134 24.1058C10.6474 24.1146 10.6805 24.1281 10.7118 24.1463L10.8919 24.2511C10.9234 24.2695 10.9517 24.2918 10.9764 24.3174L11.3671 24.1394L11.3962 23.8393C11.4014 23.785 11.4494 23.7452 11.5033 23.7505C11.5572 23.7558 11.5967 23.8042 11.5914 23.8586L11.5733 24.0455L11.8615 23.9142C11.9109 23.8917 11.969 23.9138 11.9913 23.9636C12.0136 24.0134 11.9916 24.072 11.9423 24.0945L11.66 24.223L11.8005 24.3252C11.8444 24.3572 11.8543 24.419 11.8226 24.4633C11.791 24.5076 11.7297 24.5176 11.6857 24.4857L11.4538 24.317L11.0743 24.4899C11.0833 24.5233 11.088 24.5582 11.088 24.5938V24.8035C11.088 24.8456 11.0814 24.8868 11.0689 24.9257L11.4193 25.1795L11.6915 25.0548C11.7408 25.0322 11.799 25.0542 11.8214 25.1039C11.8438 25.1537 11.822 25.2123 11.7726 25.2349L11.603 25.3126L11.8599 25.4986C11.9039 25.5305 11.9139 25.5923 11.8823 25.6367C11.8507 25.681 11.7895 25.6912 11.7455 25.6593L11.4939 25.4771L11.4764 25.6509C11.4709 25.7052 11.4228 25.7448 11.3689 25.7393C11.315 25.7337 11.2758 25.6852 11.2812 25.6309L11.3101 25.344L10.9633 25.0928C10.9418 25.113 10.9179 25.1309 10.8919 25.1461L10.7118 25.251C10.6772 25.2711 10.6403 25.2855 10.6024 25.2942V25.729L10.8616 25.8793C10.9086 25.9065 10.9248 25.9669 10.8978 26.0143C10.8708 26.0616 10.8108 26.078 10.7639 26.0508L10.6024 25.9572V26.2761C10.6024 26.3307 10.5585 26.375 10.5043 26.375C10.4501 26.375 10.4062 26.3307 10.4062 26.2761V25.9637L10.256 26.0508C10.209 26.078 10.1491 26.0616 10.1221 26.0143C10.0951 25.9669 10.1113 25.9065 10.1583 25.8793L10.4062 25.7356V25.2883C10.3763 25.2795 10.3471 25.2671 10.3194 25.251L10.1393 25.1461C10.1072 25.1274 10.0783 25.1044 10.0532 25.0782C10.0497 25.0804 10.0459 25.0824 10.042 25.0842L9.63287 25.2706L9.60383 25.5707C9.59857 25.6251 9.5506 25.6648 9.49668 25.6595C9.44277 25.6542 9.40333 25.6058 9.40859 25.5515L9.42669 25.3645L9.13849 25.4958C9.08912 25.5183 9.03102 25.4962 9.00872 25.4464C8.98642 25.3966 9.00836 25.338 9.05773 25.3155L9.33999 25.1869L9.19952 25.0848C9.15559 25.0528 9.14566 24.991 9.17735 24.9467C9.20904 24.9024 9.27034 24.8924 9.31428 24.9243L9.54617 25.093L9.95658 24.9061C9.94779 24.873 9.94318 24.8386 9.94318 24.8035V24.5938C9.94318 24.5619 9.94698 24.5306 9.95425 24.5004C9.95123 24.4986 9.94827 24.4967 9.94538 24.4946L9.58074 24.2305L9.30848 24.3552C9.25915 24.3778 9.20101 24.3558 9.17861 24.3061C9.15621 24.2563 9.17804 24.1977 9.22736 24.1751L9.39698 24.0974L9.1401 23.9114C9.09611 23.8795 9.08606 23.8177 9.11766 23.7733C9.14926 23.729 9.21055 23.7188 9.25454 23.7507L9.5061 23.9329L9.52361 23.7592C9.52909 23.7048 9.57722 23.6652 9.63111 23.6708C9.685 23.6763 9.72425 23.7248 9.71877 23.7792L9.68986 24.066L10.0475 24.3251C10.0739 24.2963 10.1047 24.2713 10.1393 24.2511L10.3194 24.1463C10.3507 24.1281 10.3838 24.1146 10.4178 24.1058C10.4176 24.1034 10.4175 24.1011 10.4175 24.0987V23.646L10.1583 23.4957C10.1113 23.4685 10.0951 23.408 10.1221 23.3607C10.1491 23.3133 10.209 23.297 10.256 23.3242L10.4175 23.4178V23.0989C10.4175 23.0443 10.4614 23 10.5156 23ZM10.7611 24.4796L10.581 24.3747C10.5405 24.3511 10.4907 24.3511 10.4502 24.3747L10.2701 24.4796C10.2297 24.5031 10.2047 24.5466 10.2047 24.5938V24.8035C10.2047 24.8506 10.2297 24.8941 10.2701 24.9177L10.4502 25.0225C10.4907 25.0461 10.5405 25.0461 10.581 25.0225L10.7611 24.9177C10.8016 24.8941 10.8265 24.8506 10.8265 24.8035V24.5938C10.8265 24.5466 10.8016 24.5031 10.7611 24.4796Z" fill="#B6ECF4"/>
<path id="Union_5" fill-rule="evenodd" clip-rule="evenodd" d="M20.5156 19C20.5698 19 20.6137 19.0443 20.6137 19.0989V19.4113L20.7639 19.3242C20.8108 19.297 20.8708 19.3133 20.8978 19.3607C20.9248 19.408 20.9086 19.4685 20.8616 19.4957L20.6137 19.6394V20.0987C20.6137 20.1011 20.6136 20.1034 20.6134 20.1058C20.6474 20.1146 20.6805 20.1281 20.7118 20.1463L20.8919 20.2511C20.9234 20.2695 20.9517 20.2918 20.9764 20.3174L21.3671 20.1394L21.3962 19.8393C21.4014 19.785 21.4494 19.7452 21.5033 19.7505C21.5572 19.7558 21.5967 19.8042 21.5914 19.8586L21.5733 20.0455L21.8615 19.9142C21.9109 19.8917 21.969 19.9138 21.9913 19.9636C22.0136 20.0134 21.9916 20.072 21.9423 20.0945L21.66 20.223L21.8005 20.3252C21.8444 20.3572 21.8543 20.419 21.8226 20.4633C21.791 20.5076 21.7297 20.5176 21.6857 20.4857L21.4538 20.317L21.0743 20.4899C21.0833 20.5233 21.088 20.5582 21.088 20.5938V20.8035C21.088 20.8456 21.0814 20.8868 21.0689 20.9257L21.4193 21.1795L21.6915 21.0548C21.7408 21.0322 21.799 21.0542 21.8214 21.1039C21.8438 21.1537 21.822 21.2123 21.7726 21.2349L21.603 21.3126L21.8599 21.4986C21.9039 21.5305 21.9139 21.5923 21.8823 21.6367C21.8507 21.681 21.7895 21.6912 21.7455 21.6593L21.4939 21.4771L21.4764 21.6509C21.4709 21.7052 21.4228 21.7448 21.3689 21.7393C21.315 21.7337 21.2758 21.6852 21.2812 21.6309L21.3101 21.344L20.9633 21.0928C20.9418 21.113 20.9179 21.1309 20.8919 21.1461L20.7118 21.251C20.6772 21.2711 20.6403 21.2855 20.6024 21.2942V21.729L20.8616 21.8793C20.9086 21.9065 20.9248 21.9669 20.8978 22.0143C20.8708 22.0616 20.8108 22.078 20.7639 22.0508L20.6024 21.9572V22.2761C20.6024 22.3307 20.5585 22.375 20.5043 22.375C20.4501 22.375 20.4062 22.3307 20.4062 22.2761V21.9637L20.256 22.0508C20.209 22.078 20.1491 22.0616 20.1221 22.0143C20.0951 21.9669 20.1113 21.9065 20.1583 21.8793L20.4062 21.7356V21.2883C20.3763 21.2795 20.3471 21.2671 20.3194 21.251L20.1393 21.1461C20.1072 21.1274 20.0783 21.1044 20.0532 21.0782C20.0497 21.0804 20.0459 21.0824 20.042 21.0842L19.6329 21.2706L19.6038 21.5707C19.5986 21.6251 19.5506 21.6648 19.4967 21.6595C19.4428 21.6542 19.4033 21.6058 19.4086 21.5515L19.4267 21.3645L19.1385 21.4958C19.0891 21.5183 19.031 21.4962 19.0087 21.4464C18.9864 21.3966 19.0084 21.338 19.0577 21.3155L19.34 21.1869L19.1995 21.0848C19.1556 21.0528 19.1457 20.991 19.1774 20.9467C19.209 20.9024 19.2703 20.8924 19.3143 20.9243L19.5462 21.093L19.9566 20.9061C19.9478 20.873 19.9432 20.8386 19.9432 20.8035V20.5938C19.9432 20.5619 19.947 20.5306 19.9543 20.5004C19.9512 20.4986 19.9483 20.4967 19.9454 20.4946L19.5807 20.2305L19.3085 20.3552C19.2592 20.3778 19.201 20.3558 19.1786 20.3061C19.1562 20.2563 19.178 20.1977 19.2274 20.1751L19.397 20.0974L19.1401 19.9114C19.0961 19.8795 19.0861 19.8177 19.1177 19.7733C19.1493 19.729 19.2105 19.7188 19.2545 19.7507L19.5061 19.9329L19.5236 19.7592C19.5291 19.7048 19.5772 19.6652 19.6311 19.6708C19.685 19.6763 19.7242 19.7248 19.7188 19.7792L19.6899 20.066L20.0475 20.3251C20.0739 20.2963 20.1047 20.2713 20.1393 20.2511L20.3194 20.1463C20.3507 20.1281 20.3838 20.1146 20.4178 20.1058C20.4176 20.1034 20.4175 20.1011 20.4175 20.0987V19.646L20.1583 19.4957C20.1113 19.4685 20.0951 19.408 20.1221 19.3607C20.1491 19.3133 20.209 19.297 20.256 19.3242L20.4175 19.4178V19.0989C20.4175 19.0443 20.4614 19 20.5156 19ZM20.7611 20.4796L20.581 20.3747C20.5405 20.3511 20.4907 20.3511 20.4502 20.3747L20.2701 20.4796C20.2297 20.5031 20.2047 20.5466 20.2047 20.5938V20.8035C20.2047 20.8506 20.2297 20.8941 20.2701 20.9177L20.4502 21.0225C20.4907 21.0461 20.5405 21.0461 20.581 21.0225L20.7611 20.9177C20.8016 20.8941 20.8265 20.8506 20.8265 20.8035V20.5938C20.8265 20.5466 20.8016 20.5031 20.7611 20.4796Z" fill="#B6ECF4"/>
</g>
</svg>
