<svg width="24" height="22" viewBox="0 0 24 22" fill="none" xmlns="http://www.w3.org/2000/svg">
<g id="Frame 1669">
<path id="Union" fill-rule="evenodd" clip-rule="evenodd" d="M9.55716 6C9.75578 6 9.9168 6.15745 9.9168 6.35167V7.46225L10.4675 7.15276C10.6397 7.05599 10.8596 7.11405 10.9585 7.28244C11.0575 7.45083 10.9981 7.66579 10.8259 7.76257L9.9168 8.27345V9.90655C9.9168 9.91498 9.91649 9.92333 9.9159 9.93161C10.0406 9.963 10.162 10.011 10.2765 10.0757L10.9369 10.4485C11.0523 10.5137 11.1563 10.5932 11.2469 10.684L12.6795 10.0512L12.786 8.98431C12.8053 8.791 12.9812 8.6496 13.1788 8.66846C13.3765 8.68733 13.5211 8.85932 13.5018 9.05262L13.4355 9.71723L14.4922 9.25043C14.6732 9.17047 14.8863 9.24913 14.968 9.42613C15.0498 9.60313 14.9693 9.81143 14.7883 9.89139L13.7533 10.3486L14.2684 10.7119C14.4295 10.8256 14.4659 11.0454 14.3497 11.2029C14.2335 11.3604 14.0087 11.396 13.8477 11.2824L12.9973 10.6826L11.6057 11.2973C11.6388 11.4162 11.6561 11.5402 11.6561 11.6667V12.4124C11.6561 12.5621 11.6318 12.7085 11.5858 12.8468L12.8706 13.7492L13.8689 13.3059C14.0498 13.2256 14.263 13.3038 14.3451 13.4807C14.4272 13.6575 14.3472 13.866 14.1664 13.9463L13.5444 14.2225L14.4863 14.884C14.6476 14.9973 14.6845 15.2171 14.5686 15.3748C14.4527 15.5326 14.228 15.5686 14.0667 15.4553L13.1443 14.8074L13.0801 15.4253C13.06 15.6185 12.8835 15.7592 12.6859 15.7396C12.4883 15.72 12.3444 15.5474 12.3645 15.3542L12.4705 14.3342L11.1989 13.441C11.1201 13.5129 11.0324 13.5766 10.9369 13.6306L10.2765 14.0034C10.1496 14.075 10.0143 14.1263 9.87535 14.157V15.7032L10.8259 16.2373C10.9981 16.3341 11.0575 16.5491 10.9585 16.7175C10.8596 16.8859 10.6397 16.9439 10.4675 16.8471L9.87535 16.5144V17.6483C9.87535 17.8426 9.71433 18 9.51571 18C9.31709 18 9.15608 17.8426 9.15608 17.6483V16.5377L8.60535 16.8471C8.43314 16.9439 8.21331 16.8859 8.11434 16.7175C8.01538 16.5491 8.07475 16.3341 8.24696 16.2373L9.15608 15.7265V14.1361C9.0463 14.1049 8.93945 14.0607 8.83796 14.0034L8.17758 13.6306C8.05965 13.564 7.95373 13.4825 7.86172 13.3892C7.84873 13.397 7.83509 13.4041 7.82083 13.4104L6.32054 14.0732L6.21403 15.1402C6.19474 15.3335 6.01885 15.475 5.82117 15.4561C5.62349 15.4372 5.47888 15.2652 5.49817 15.0719L5.56452 14.4071L4.50778 14.874C4.32677 14.9539 4.11375 14.8752 4.03198 14.6982C3.95021 14.5212 4.03066 14.3129 4.21166 14.233L5.24662 13.7758L4.73158 13.4125C4.57049 13.2989 4.5341 13.0791 4.65029 12.9216C4.76648 12.7641 4.99126 12.7285 5.15235 12.8421L6.00263 13.4418L7.50747 12.7771C7.47523 12.6596 7.45831 12.5372 7.45831 12.4124V11.6667C7.45831 11.5534 7.47224 11.4421 7.49893 11.3347C7.48784 11.3285 7.47698 11.3217 7.46639 11.3143L6.12938 10.3752L5.13108 10.8186C4.95023 10.8989 4.73705 10.8206 4.65492 10.6438C4.57279 10.467 4.65281 10.2585 4.83365 10.1782L5.4556 9.90198L4.51371 9.24043C4.35239 9.12713 4.31555 8.9074 4.43142 8.74965C4.54729 8.59191 4.772 8.55588 4.93332 8.66919L5.85571 9.31704L5.91992 8.69926C5.94 8.50604 6.11647 8.36532 6.31407 8.38496C6.51167 8.4046 6.65558 8.57715 6.6355 8.77038L6.52949 9.79028L7.84091 10.7114C7.93764 10.6091 8.05066 10.5202 8.17758 10.4485L8.83796 10.0757C8.95245 10.011 9.07378 9.96303 9.19843 9.93164C9.19783 9.92336 9.19753 9.91499 9.19753 9.90655V8.29675L8.24696 7.76257C8.07475 7.66579 8.01538 7.45083 8.11434 7.28244C8.21331 7.11405 8.43314 7.05599 8.60535 7.15276L9.19753 7.48554V6.35167C9.19753 6.15745 9.35854 6 9.55716 6ZM10.4574 11.2606L9.79698 10.8878C9.64862 10.8041 9.46583 10.8041 9.31747 10.8878L8.65709 11.2606C8.50873 11.3444 8.41733 11.4992 8.41733 11.6667V12.4124C8.41733 12.5799 8.50873 12.7347 8.65709 12.8184L9.31747 13.1912C9.46583 13.275 9.64862 13.275 9.79698 13.1912L10.4574 12.8184C10.6057 12.7347 10.6971 12.5799 10.6971 12.4124V11.6667C10.6971 11.4992 10.6057 11.3444 10.4574 11.2606Z" fill="#A2E9F3"/>
<path id="Union_2" fill-rule="evenodd" clip-rule="evenodd" d="M17.0312 2C17.1395 2 17.2273 2.09184 17.2273 2.20514V2.85298L17.5277 2.67244C17.6217 2.61599 17.7416 2.64986 17.7956 2.74809C17.8495 2.84632 17.8172 2.97171 17.7232 3.02816L17.2273 3.32618V4.27882C17.2273 4.28374 17.2272 4.28861 17.2269 4.29344C17.2949 4.31175 17.3611 4.33976 17.4235 4.37748L17.7837 4.59496C17.8467 4.63298 17.9034 4.67937 17.9529 4.73234L18.7343 4.3632L18.7923 3.74084C18.8029 3.62809 18.8988 3.5456 19.0066 3.5566C19.1145 3.56761 19.1933 3.66794 19.1828 3.7807L19.1466 4.16838L19.723 3.89608C19.8218 3.84944 19.938 3.89533 19.9826 3.99858C20.0272 4.10182 19.9833 4.22333 19.8845 4.26998L19.32 4.53669L19.601 4.74863C19.6888 4.81491 19.7087 4.94312 19.6453 5.03501C19.5819 5.1269 19.4593 5.14765 19.3714 5.08138L18.9076 4.7315L18.1486 5.09009C18.1666 5.15943 18.1761 5.2318 18.1761 5.30558V5.74054C18.1761 5.8279 18.1628 5.91329 18.1377 5.99399L18.8385 6.52039L19.383 6.26177C19.4817 6.21493 19.598 6.26057 19.6428 6.36373C19.6876 6.46688 19.6439 6.58848 19.5453 6.63533L19.206 6.79645L19.7198 7.18235C19.8078 7.24845 19.8279 7.37662 19.7647 7.46864C19.7015 7.56066 19.5789 7.58167 19.4909 7.51558L18.9878 7.13767L18.9528 7.49809C18.9418 7.6108 18.8456 7.69289 18.7378 7.68143C18.63 7.66997 18.5515 7.56932 18.5625 7.4566L18.6203 6.86161L17.9266 6.34059C17.8837 6.3825 17.8359 6.4197 17.7837 6.45116L17.4235 6.66864C17.3543 6.71044 17.2805 6.74031 17.2047 6.75827V7.66018L17.7232 7.97178C17.8172 8.02823 17.8495 8.15363 17.7956 8.25186C17.7416 8.35009 17.6217 8.38395 17.5277 8.3275L17.2047 8.13338V8.79486C17.2047 8.90816 17.1169 9 17.0086 9C16.9002 9 16.8124 8.90816 16.8124 8.79486V8.14697L16.512 8.3275C16.4181 8.38395 16.2982 8.35009 16.2442 8.25186C16.1902 8.15363 16.2226 8.02823 16.3165 7.97178L16.8124 7.67377V6.74605C16.7525 6.72786 16.6942 6.70206 16.6389 6.66864L16.2787 6.45116C16.2144 6.41232 16.1566 6.36476 16.1064 6.31037C16.0993 6.31493 16.0919 6.31908 16.0841 6.32275L15.2657 6.70935L15.2077 7.33181C15.1971 7.44457 15.1012 7.52706 14.9934 7.51605C14.8855 7.50505 14.8067 7.40472 14.8172 7.29196L14.8534 6.90416L14.277 7.17647C14.1782 7.22311 14.062 7.17723 14.0174 7.07398C13.9728 6.97073 14.0167 6.84922 14.1155 6.80258L14.68 6.53588L14.399 6.32397C14.3112 6.2577 14.2913 6.12948 14.3547 6.03759C14.4181 5.94571 14.5407 5.92495 14.6286 5.99123L15.0923 6.34107L15.9132 5.9533C15.8956 5.8848 15.8864 5.81335 15.8864 5.74054V5.30558C15.8864 5.2395 15.894 5.17455 15.9085 5.11189C15.9025 5.1083 15.8965 5.10434 15.8908 5.1L15.1615 4.55221L14.617 4.81083C14.5183 4.85768 14.402 4.81203 14.3572 4.70888C14.3124 4.60572 14.3561 4.48412 14.4547 4.43727L14.794 4.27615L14.2802 3.89025C14.1922 3.82416 14.1721 3.69598 14.2353 3.60396C14.2985 3.51195 14.4211 3.49093 14.5091 3.55703L15.0122 3.93494L15.0472 3.57457C15.0582 3.46186 15.1544 3.37977 15.2622 3.39123C15.37 3.40268 15.4485 3.50334 15.4375 3.61605L15.3797 4.211L16.095 4.74831C16.1478 4.68866 16.2095 4.63676 16.2787 4.59496L16.6389 4.37748C16.7013 4.33977 16.7675 4.31177 16.8355 4.29346C16.8352 4.28862 16.835 4.28374 16.835 4.27882V3.33977L16.3165 3.02816C16.2226 2.97171 16.1902 2.84632 16.2442 2.74809C16.2982 2.64986 16.4181 2.61599 16.512 2.67244L16.835 2.86657V2.20514C16.835 2.09184 16.9228 2 17.0312 2ZM17.5222 5.06871L17.162 4.85122C17.0811 4.80237 16.9814 4.80237 16.9004 4.85122L16.5402 5.06871C16.4593 5.11756 16.4095 5.20786 16.4095 5.30558V5.74054C16.4095 5.83826 16.4593 5.92855 16.5402 5.97741L16.9004 6.19489C16.9814 6.24375 17.0811 6.24375 17.162 6.19489L17.5222 5.97741C17.6031 5.92855 17.653 5.83826 17.653 5.74054V5.30558C17.653 5.20786 17.6031 5.11756 17.5222 5.06871Z" fill="#A2E9F3"/>
</g>
</svg>
