<svg width="24" height="27" viewBox="0 0 24 27" fill="none" xmlns="http://www.w3.org/2000/svg">
<g id="Frame 1626">
<g id="Group">
<g id="Group_2">
<g id="Group_3">
<g id="Group_4">
<g id="Group_5">
<path id="Vector" d="M17.1348 5.31347C17.537 4.86355 18.3737 4.36474 18.6247 4.21509C19.043 3.96569 19.342 4.58465 18.9404 4.81739C18.4216 5.13334 17.5687 5.46505 17.2677 5.54773C17.134 5.56406 17.0676 5.41352 17.1348 5.31347Z" fill="#FFDD32"/>
</g>
</g>
<g id="Group_6">
<g id="Group_7">
<path id="Vector_2" d="M6.84457 11.0481C6.44236 11.498 5.60566 11.9968 5.35465 12.1465C4.9363 12.3959 4.63734 11.7769 5.03894 11.5442C5.55771 11.2282 6.41064 10.8965 6.71158 10.8138C6.84523 10.8142 6.91163 10.9648 6.84457 11.0481Z" fill="#FFDD32"/>
</g>
</g>
<g id="Group_8">
<g id="Group_9">
<path id="Vector_3" d="M15.1529 3.16968C15.3049 2.5687 15.7918 1.73478 15.9428 1.48462C16.1946 1.06768 16.7448 1.45347 16.4931 1.8537C16.1909 2.38743 15.5875 3.08738 15.3696 3.32064C15.2693 3.37048 15.1359 3.26986 15.1529 3.16968Z" fill="#FFDD32"/>
</g>
</g>
<g id="Group_10">
<g id="Group_11">
<path id="Vector_4" d="M8.82631 13.2087C8.67427 13.8097 8.18744 14.6436 8.03638 14.8938C7.78462 15.3107 7.23441 14.9249 7.48613 14.5247C7.78834 13.9909 8.39173 13.291 8.60956 13.0577C8.70994 13.0079 8.84335 13.0918 8.82631 13.2087Z" fill="#FFDD32"/>
</g>
</g>
<g id="Group_12">
<g id="Group_13">
<path id="Vector_5" d="M12.4325 2.22645C12.2838 1.62462 12.32 0.655786 12.3542 0.355178C12.389 -0.129193 13.0403 -0.0605305 13.0055 0.42384C12.9871 1.0419 12.7841 1.94345 12.6997 2.26062C12.6326 2.36066 12.4822 2.34353 12.4325 2.22645Z" fill="#FFDD32"/>
</g>
</g>
<g id="Group_14">
<g id="Group_15">
<path id="Vector_6" d="M11.5468 14.1351C11.6954 14.737 11.6593 15.7058 11.625 16.0064C11.5902 16.4908 10.9389 16.4221 10.9737 15.9377C10.9921 15.3197 11.1952 14.4181 11.2796 14.101C11.3466 14.0176 11.5136 14.0348 11.5468 14.1351Z" fill="#FFDD32"/>
</g>
</g>
<g id="Group_16">
<g id="Group_17">
<path id="Vector_7" d="M9.35686 2.85254C8.92373 2.41696 8.45838 1.56365 8.32549 1.29598C8.09284 0.860974 8.71175 0.578722 8.92774 0.996977C9.21023 1.53236 9.52514 2.41866 9.59107 2.73626C9.59074 2.8532 9.4402 2.91959 9.35686 2.85254Z" fill="#FFDD32"/>
</g>
</g>
<g id="Group_18">
<g id="Group_19">
<path id="Vector_8" d="M14.6225 13.5089C15.0556 13.9445 15.521 14.7978 15.6538 15.0655C15.8865 15.5005 15.2676 15.7827 15.0516 15.3645C14.7691 14.8291 14.4542 13.9428 14.3883 13.6252C14.3886 13.5082 14.5391 13.4418 14.6225 13.5089Z" fill="#FFDD32"/>
</g>
</g>
<g id="Group_20">
<g id="Group_21">
<path id="Vector_9" d="M6.99512 5.06771C6.41079 4.93241 5.57688 4.44559 5.32672 4.29453C4.90978 4.04276 5.27891 3.47581 5.67914 3.72753C6.21287 4.02974 6.91286 4.61642 7.12937 4.85091C7.19596 4.93463 7.11206 5.06804 6.99512 5.06771Z" fill="#FFDD32"/>
</g>
</g>
<g id="Group_22">
<g id="Group_23">
<path id="Vector_10" d="M16.9843 11.3106C17.5686 11.4459 18.4025 11.9327 18.6527 12.0837C19.0696 12.3355 18.7005 12.9025 18.3003 12.6507C17.7665 12.3485 17.0666 11.7619 16.85 11.5274C16.7835 11.4436 16.8674 11.2935 16.9843 11.3106Z" fill="#FFDD32"/>
</g>
</g>
<g id="Group_24">
<g id="Group_25">
<path id="Vector_11" d="M6.2013 8.07262C5.63269 8.28819 4.68032 8.33562 4.37962 8.33477C3.89511 8.3501 3.91375 7.66522 4.38151 7.66654C4.98301 7.63482 5.90154 7.73765 6.202 7.82203C6.30219 7.83902 6.30172 8.00608 6.2013 8.07262Z" fill="#FFDD32"/>
</g>
</g>
<g id="Group_26">
<g id="Group_27">
<path id="Vector_12" d="M17.8454 8.0886C18.414 7.87303 19.3664 7.82561 19.6671 7.82645C20.1516 7.81112 20.133 8.496 19.6652 8.49468C19.0637 8.5264 18.1452 8.42357 17.8447 8.33919C17.7446 8.3055 17.745 8.13844 17.8454 8.0886Z" fill="#FFDD32"/>
</g>
</g>
</g>
<g id="Group_28">
<g id="Group_29">
<g id="Group_30">
<path id="Vector_13" d="M16.1861 4.02463C16.455 3.4741 17.1252 2.77434 17.343 2.55778C17.6781 2.20791 18.1277 2.71035 17.7927 3.04352C17.3738 3.4934 16.6372 4.04261 16.3694 4.20891C16.2691 4.24204 16.1525 4.12477 16.1861 4.02463Z" fill="#FFDD32"/>
</g>
</g>
<g id="Group_31">
<g id="Group_32">
<path id="Vector_14" d="M7.79293 12.3539C7.52408 12.9044 6.85387 13.6041 6.63608 13.8207C6.30098 14.1706 5.85134 13.6681 6.1864 13.335C6.60531 12.8851 7.34192 12.3359 7.60968 12.1696C7.72677 12.1198 7.82667 12.237 7.79293 12.3539Z" fill="#FFDD32"/>
</g>
</g>
<g id="Group_33">
<g id="Group_34">
<path id="Vector_15" d="M13.718 2.48083C13.703 1.86267 13.9562 0.927862 14.0406 0.627395C14.1756 0.160013 14.8098 0.378979 14.6749 0.829655C14.5061 1.44729 14.1362 2.28154 13.9683 2.56507C13.8846 2.64836 13.7343 2.59782 13.718 2.48083Z" fill="#FFDD32"/>
</g>
</g>
<g id="Group_35">
<g id="Group_36">
<path id="Vector_16" d="M10.2611 13.881C10.276 14.4992 10.0228 15.434 9.93842 15.7345C9.80345 16.2018 9.16925 15.9829 9.30417 15.5322C9.45622 14.9312 9.84281 14.097 10.0107 13.8135C10.0944 13.7302 10.2446 13.7807 10.2611 13.881Z" fill="#FFDD32"/>
</g>
</g>
<g id="Group_37">
<g id="Group_38">
<path id="Vector_17" d="M10.845 2.33899C10.5458 1.80356 10.3313 0.850724 10.2654 0.549832C10.1665 0.0650843 10.8183 -0.0333106 10.9172 0.434732C11.0492 1.03651 11.1133 1.97222 11.0957 2.28958C11.0788 2.38977 10.9116 2.42271 10.845 2.33899Z" fill="#FFDD32"/>
</g>
</g>
<g id="Group_39">
<g id="Group_40">
<path id="Vector_18" d="M13.1341 14.0395C13.4333 14.5749 13.6477 15.5278 13.7137 15.8287C13.8126 16.3134 13.1608 16.4118 13.0619 15.9438C12.9299 15.342 12.8657 14.4063 12.8833 14.0889C12.9004 13.972 13.0675 13.9558 13.1341 14.0395Z" fill="#FFDD32"/>
</g>
</g>
<g id="Group_41">
<g id="Group_42">
<path id="Vector_19" d="M8.05126 3.76781C7.51753 3.4656 6.85124 2.77878 6.65143 2.54433C6.31831 2.19257 6.83746 1.74298 7.15387 2.09469C7.57029 2.53022 8.1027 3.30019 8.25225 3.58462C8.26863 3.7016 8.15136 3.81821 8.05126 3.76781Z" fill="#FFDD32"/>
</g>
</g>
<g id="Group_43">
<g id="Group_44">
<path id="Vector_20" d="M15.9281 12.594C16.4619 12.8962 17.1282 13.583 17.328 13.8175C17.6611 14.1692 17.1419 14.6188 16.8255 14.2671C16.4091 13.8316 15.8767 13.0616 15.7271 12.7772C15.7108 12.6602 15.828 12.5603 15.9281 12.594Z" fill="#FFDD32"/>
</g>
</g>
<g id="Group_45">
<g id="Group_46">
<path id="Vector_21" d="M6.35615 6.53627C5.75465 6.56798 4.81979 6.33146 4.53603 6.24713C4.06865 6.11216 4.28762 5.47796 4.72164 5.59613C5.30591 5.74813 6.14016 6.11801 6.42368 6.28587C6.52373 6.35298 6.47314 6.51989 6.35615 6.53627Z" fill="#FFDD32"/>
</g>
</g>
<g id="Group_47">
<g id="Group_48">
<path id="Vector_22" d="M17.6232 9.84243C18.2247 9.81072 19.1596 10.0472 19.4433 10.1316C19.9107 10.2665 19.6918 10.9007 19.2577 10.7826C18.6735 10.6306 17.8392 10.2607 17.5557 10.0928C17.4724 10.0091 17.5062 9.8588 17.6232 9.84243Z" fill="#FFDD32"/>
</g>
</g>
<g id="Group_49">
<g id="Group_50">
<path id="Vector_23" d="M6.36422 9.56006C5.87876 9.90951 4.95906 10.2243 4.67482 10.3071C4.20664 10.4561 4.05817 9.78743 4.4929 9.65502C5.06146 9.45615 5.96399 9.30835 6.2814 9.30924C6.39834 9.30957 6.44798 9.47677 6.36422 9.56006Z" fill="#FFDD32"/>
</g>
</g>
<g id="Group_51">
<g id="Group_52">
<path id="Vector_24" d="M17.6159 6.50108C18.1013 6.15163 19.021 5.83682 19.3053 5.75409C19.7734 5.60506 19.9219 6.27371 19.4872 6.40613C18.9186 6.60499 18.0161 6.7528 17.6987 6.7519C17.5651 6.73482 17.5321 6.56767 17.6159 6.50108Z" fill="#FFDD32"/>
</g>
</g>
</g>
<path id="Vector_25" d="M7.21748 9.14465C7.7112 11.7856 10.3794 13.4637 13.1541 12.9035C15.9289 12.3434 17.7738 9.77586 17.2634 7.1349C16.7529 4.51064 14.1014 2.81587 11.3267 3.37603C8.55195 3.9362 6.70701 6.52039 7.21748 9.14465Z" fill="#FFDD32"/>
<g id="Group_53">
<path id="Vector_26" d="M10.4218 4.35912C9.45111 4.9745 8.88071 5.82488 8.66287 6.05815C8.44508 6.27471 8.26217 5.97349 8.36292 5.79001C8.71568 5.10607 9.83732 4.27394 10.3387 4.19183C10.439 4.17541 10.4888 4.29249 10.4218 4.35912Z" fill="white"/>
</g>
<g id="Group_54">
<path id="Vector_27" d="M8.26045 6.57492C8.29348 6.70866 8.10788 7.35966 8.00731 7.47632C7.94025 7.55966 7.7732 7.55919 7.72336 7.45881C7.64035 7.27481 7.72454 7.04117 7.80854 6.87435C7.87574 6.74089 8.02671 6.52414 8.17706 6.52456C8.21047 6.52466 8.26054 6.54151 8.26045 6.57492Z" fill="white"/>
</g>
<path id="Vector_28" opacity="0.2" d="M16.5807 6.33113C16.5807 6.33113 17.527 8.43873 16.1513 10.5231C14.7755 12.6074 11.867 13.2173 9.44855 11.8239C9.55048 11.2228 10.1866 10.7568 10.788 10.7752C11.2557 10.7933 11.7896 11.0454 12.1413 10.7122C12.3758 10.4957 12.3601 10.1281 12.4946 9.84452C12.7298 9.36072 13.2984 9.17856 13.8166 9.06308C14.3348 8.9476 14.9032 8.78215 15.1552 8.29839C15.2895 8.04818 15.2904 7.74748 15.3079 7.46353C15.3087 7.17953 15.3263 6.87888 15.4606 6.62867C15.595 6.37846 16.3303 6.2803 16.5806 6.36454L16.5807 6.33113Z" fill="#E6AF29"/>
</g>
</g>
</g>
</svg>
