<svg width="24" height="22" viewBox="0 0 24 22" fill="none" xmlns="http://www.w3.org/2000/svg">
<g id="Frame 1639">
<g id="Group">
<g id="Group_2">
<g id="Group_3">
<g id="Group_4">
<path id="Vector" d="M17.1348 7.31347C17.537 6.86355 18.3737 6.36474 18.6247 6.21509C19.043 5.96569 19.342 6.58465 18.9404 6.81739C18.4216 7.13334 17.5687 7.46505 17.2677 7.54773C17.134 7.56406 17.0676 7.41352 17.1348 7.31347Z" fill="#FFDD32"/>
</g>
</g>
<g id="Group_5">
<g id="Group_6">
<path id="Vector_2" d="M6.84432 13.0481C6.44211 13.498 5.60541 13.9968 5.3544 14.1465C4.93605 14.3959 4.6371 13.7769 5.03869 13.5442C5.55747 13.2282 6.4104 12.8965 6.71134 12.8138C6.84498 12.8142 6.91138 12.9648 6.84432 13.0481Z" fill="#FFDD32"/>
</g>
</g>
<g id="Group_7">
<g id="Group_8">
<path id="Vector_3" d="M15.1524 5.16968C15.3045 4.5687 15.7913 3.73478 15.9423 3.48462C16.1941 3.06768 16.7443 3.45347 16.4926 3.8537C16.1904 4.38743 15.587 5.08738 15.3692 5.32064C15.2688 5.37048 15.1354 5.26986 15.1524 5.16968Z" fill="#FFDD32"/>
</g>
</g>
<g id="Group_9">
<g id="Group_10">
<path id="Vector_4" d="M8.82607 15.2087C8.67402 15.8097 8.1872 16.6436 8.03614 16.8938C7.78437 17.3107 7.23417 16.9249 7.48589 16.5247C7.7881 15.9909 8.39149 15.291 8.60932 15.0577C8.7097 15.0079 8.84311 15.0918 8.82607 15.2087Z" fill="#FFDD32"/>
</g>
</g>
<g id="Group_11">
<g id="Group_12">
<path id="Vector_5" d="M12.4325 4.22645C12.2838 3.62462 12.32 2.65579 12.3542 2.35518C12.389 1.87081 13.0403 1.93947 13.0055 2.42384C12.9871 3.0419 12.7841 3.94345 12.6997 4.26062C12.6326 4.36066 12.4822 4.34353 12.4325 4.22645Z" fill="#FFDD32"/>
</g>
</g>
<g id="Group_13">
<g id="Group_14">
<path id="Vector_6" d="M11.5465 16.1351C11.6952 16.737 11.659 17.7058 11.6248 18.0064C11.59 18.4908 10.9387 18.4221 10.9734 17.9377C10.9919 17.3197 11.1949 16.4181 11.2793 16.101C11.3464 16.0176 11.5134 16.0348 11.5465 16.1351Z" fill="#FFDD32"/>
</g>
</g>
<g id="Group_15">
<g id="Group_16">
<path id="Vector_7" d="M9.35637 4.85254C8.92325 4.41696 8.45789 3.56365 8.325 3.29598C8.09235 2.86097 8.71126 2.57872 8.92725 2.99698C9.20974 3.53236 9.52465 4.41866 9.59058 4.73626C9.59025 4.8532 9.43971 4.91959 9.35637 4.85254Z" fill="#FFDD32"/>
</g>
</g>
<g id="Group_17">
<g id="Group_18">
<path id="Vector_8" d="M14.6225 15.5089C15.0556 15.9445 15.521 16.7978 15.6538 17.0655C15.8865 17.5005 15.2676 17.7827 15.0516 17.3645C14.7691 16.8291 14.4542 15.9428 14.3883 15.6252C14.3886 15.5082 14.5391 15.4418 14.6225 15.5089Z" fill="#FFDD32"/>
</g>
</g>
<g id="Group_19">
<g id="Group_20">
<path id="Vector_9" d="M6.99463 7.06771C6.4103 6.93241 5.57639 6.44559 5.32623 6.29453C4.90929 6.04276 5.27842 5.47581 5.67865 5.72753C6.21238 6.02974 6.91237 6.61642 7.12889 6.85091C7.19547 6.93463 7.11157 7.06804 6.99463 7.06771Z" fill="#FFDD32"/>
</g>
</g>
<g id="Group_21">
<g id="Group_22">
<path id="Vector_10" d="M16.9841 13.3106C17.5684 13.4459 18.4023 13.9327 18.6525 14.0837C19.0694 14.3355 18.7003 14.9025 18.3 14.6507C17.7663 14.3485 17.0663 13.7619 16.8498 13.5274C16.7832 13.4436 16.8672 13.2935 16.9841 13.3106Z" fill="#FFDD32"/>
</g>
</g>
<g id="Group_23">
<g id="Group_24">
<path id="Vector_11" d="M6.2013 10.0726C5.63269 10.2882 4.68032 10.3356 4.37962 10.3348C3.89511 10.3501 3.91375 9.66522 4.38151 9.66654C4.98301 9.63482 5.90154 9.73765 6.202 9.82203C6.30219 9.83902 6.30172 10.0061 6.2013 10.0726Z" fill="#FFDD32"/>
</g>
</g>
<g id="Group_25">
<g id="Group_26">
<path id="Vector_12" d="M17.8449 10.0886C18.4135 9.87303 19.3659 9.82561 19.6666 9.82645C20.1511 9.81112 20.1325 10.496 19.6647 10.4947C19.0632 10.5264 18.1447 10.4236 17.8442 10.3392C17.7441 10.3055 17.7446 10.1384 17.8449 10.0886Z" fill="#FFDD32"/>
</g>
</g>
</g>
<g id="Group_27">
<g id="Group_28">
<g id="Group_29">
<path id="Vector_13" d="M16.1859 6.02463C16.4548 5.4741 17.125 4.77434 17.3427 4.55778C17.6779 4.20791 18.1275 4.71035 17.7924 5.04352C17.3735 5.4934 16.6369 6.04261 16.3691 6.20891C16.2688 6.24204 16.1522 6.12477 16.1859 6.02463Z" fill="#FFDD32"/>
</g>
</g>
<g id="Group_30">
<g id="Group_31">
<path id="Vector_14" d="M7.79293 14.3539C7.52408 14.9044 6.85387 15.6041 6.63608 15.8207C6.30098 16.1706 5.85134 15.6681 6.1864 15.335C6.60531 14.8851 7.34192 14.3359 7.60968 14.1696C7.72677 14.1198 7.82667 14.237 7.79293 14.3539Z" fill="#FFDD32"/>
</g>
</g>
<g id="Group_32">
<g id="Group_33">
<path id="Vector_15" d="M13.718 4.48083C13.703 3.86267 13.9562 2.92786 14.0406 2.62739C14.1756 2.16001 14.8098 2.37898 14.6749 2.82966C14.5061 3.44729 14.1362 4.28154 13.9683 4.56507C13.8846 4.64836 13.7343 4.59782 13.718 4.48083Z" fill="#FFDD32"/>
</g>
</g>
<g id="Group_34">
<g id="Group_35">
<path id="Vector_16" d="M10.2608 15.881C10.2758 16.4992 10.0226 17.434 9.93817 17.7345C9.80321 18.2018 9.169 17.9829 9.30392 17.5322C9.45597 16.9312 9.84256 16.097 10.0104 15.8135C10.0942 15.7302 10.2444 15.7807 10.2608 15.881Z" fill="#FFDD32"/>
</g>
</g>
<g id="Group_36">
<g id="Group_37">
<path id="Vector_17" d="M10.8448 4.33899C10.5456 3.80356 10.3311 2.85072 10.2651 2.54983C10.1663 2.06508 10.8181 1.96669 10.917 2.43473C11.0489 3.03651 11.1131 3.97222 11.0955 4.28958C11.0785 4.38977 10.9114 4.42271 10.8448 4.33899Z" fill="#FFDD32"/>
</g>
</g>
<g id="Group_38">
<g id="Group_39">
<path id="Vector_18" d="M13.1338 16.0395C13.433 16.5749 13.6475 17.5278 13.7135 17.8287C13.8123 18.3134 13.1605 18.4118 13.0616 17.9438C12.9297 17.342 12.8655 16.4063 12.8831 16.0889C12.9001 15.972 13.0672 15.9558 13.1338 16.0395Z" fill="#FFDD32"/>
</g>
</g>
<g id="Group_40">
<g id="Group_41">
<path id="Vector_19" d="M8.05078 5.76781C7.51704 5.4656 6.85075 4.77878 6.65094 4.54433C6.31782 4.19257 6.83697 3.74298 7.15338 4.09469C7.5698 4.53022 8.10221 5.30019 8.25176 5.58462C8.26814 5.7016 8.15087 5.81821 8.05078 5.76781Z" fill="#FFDD32"/>
</g>
</g>
<g id="Group_42">
<g id="Group_43">
<path id="Vector_20" d="M15.9276 14.594C16.4614 14.8962 17.1277 15.583 17.3275 15.8175C17.6606 16.1692 17.1415 16.6188 16.825 16.2671C16.4086 15.8316 15.8762 15.0616 15.7267 14.7772C15.7103 14.6602 15.8275 14.5603 15.9276 14.594Z" fill="#FFDD32"/>
</g>
</g>
<g id="Group_44">
<g id="Group_45">
<path id="Vector_21" d="M6.35566 8.53627C5.75417 8.56798 4.81931 8.33146 4.53555 8.24713C4.06816 8.11216 4.28713 7.47796 4.72115 7.59613C5.30542 7.74813 6.13967 8.11801 6.4232 8.28587C6.52324 8.35298 6.47265 8.51989 6.35566 8.53627Z" fill="#FFDD32"/>
</g>
</g>
<g id="Group_46">
<g id="Group_47">
<path id="Vector_22" d="M17.623 11.8424C18.2245 11.8107 19.1593 12.0472 19.4431 12.1316C19.9105 12.2665 19.6915 12.9007 19.2575 12.7826C18.6732 12.6306 17.839 12.2607 17.5554 12.0928C17.4722 12.0091 17.506 11.8588 17.623 11.8424Z" fill="#FFDD32"/>
</g>
</g>
<g id="Group_48">
<g id="Group_49">
<path id="Vector_23" d="M6.36398 11.5601C5.87852 11.9095 4.95881 12.2243 4.67458 12.3071C4.20639 12.4561 4.05793 11.7874 4.49266 11.655C5.06122 11.4562 5.96375 11.3083 6.28116 11.3092C6.3981 11.3096 6.44774 11.4768 6.36398 11.5601Z" fill="#FFDD32"/>
</g>
</g>
<g id="Group_50">
<g id="Group_51">
<path id="Vector_24" d="M17.6156 8.50108C18.1011 8.15163 19.0208 7.83682 19.305 7.75409C19.7732 7.60506 19.9217 8.27371 19.4869 8.40613C18.9184 8.60499 18.0158 8.7528 17.6984 8.7519C17.5648 8.73482 17.5319 8.56767 17.6156 8.50108Z" fill="#FFDD32"/>
</g>
</g>
</g>
<path id="Vector_25" d="M7.21724 11.1446C7.71095 13.7856 10.3791 15.4637 13.1539 14.9035C15.9286 14.3434 17.7735 11.7759 17.2631 9.1349C16.7526 6.51064 14.1012 4.81587 11.3265 5.37603C8.5517 5.9362 6.70676 8.52039 7.21724 11.1446Z" fill="#FFDD32"/>
<g id="Group_52">
<path id="Vector_26" d="M10.4213 6.35912C9.45062 6.9745 8.88022 7.82488 8.66238 8.05815C8.4446 8.27471 8.26168 7.97349 8.36244 7.79001C8.71519 7.10607 9.83683 6.27394 10.3382 6.19183C10.4385 6.17541 10.4883 6.29249 10.4213 6.35912Z" fill="white"/>
</g>
<g id="Group_53">
<path id="Vector_27" d="M8.25996 8.57492C8.29299 8.70866 8.10739 9.35966 8.00683 9.47632C7.93977 9.55966 7.77271 9.55919 7.72288 9.45881C7.63987 9.27481 7.72405 9.04117 7.80805 8.87435C7.87525 8.74089 8.02622 8.52414 8.17657 8.52456C8.20998 8.52466 8.26005 8.54151 8.25996 8.57492Z" fill="white"/>
</g>
<path id="Vector_28" opacity="0.2" d="M16.5805 8.33113C16.5805 8.33113 17.5268 10.4387 16.151 12.5231C14.7752 14.6074 11.8667 15.2173 9.4483 13.8239C9.55023 13.2228 10.1864 12.7568 10.7877 12.7752C11.2554 12.7933 11.7893 13.0454 12.1411 12.7122C12.3756 12.4957 12.3599 12.1281 12.4944 11.8445C12.7296 11.3607 13.2981 11.1786 13.8163 11.0631C14.3345 10.9476 14.903 10.7821 15.1549 10.2984C15.2893 10.0482 15.2901 9.74748 15.3077 9.46353C15.3085 9.17953 15.326 8.87888 15.4604 8.62867C15.5947 8.37846 16.33 8.2803 16.5804 8.36454L16.5805 8.33113Z" fill="#E6AF29"/>
</g>
</g>
</svg>
